<?xml version="1.0" encoding="UTF-8" standalone="no"?><!DOCTYPE svg PUBLIC "-//W3C//DTD SVG 1.1//EN" "http://www.w3.org/Graphics/SVG/1.1/DTD/svg11.dtd"><svg width="100%" height="100%" viewBox="0 0 1948 1706" version="1.1" xmlns="http://www.w3.org/2000/svg" xmlns:xlink="http://www.w3.org/1999/xlink" xml:space="preserve" xmlns:serif="http://www.serif.com/" style="fill-rule:evenodd;clip-rule:evenodd;stroke-linecap:round;stroke-miterlimit:10;"><path d="M679.922,991.815l-0,484.934c-0,8.279 -6.721,15 -15,15l-614.366,-0c-8.279,-0 -15,-6.721 -15,-15l-0,-484.934c-0,-8.279 6.721,-15 15,-15l614.366,0c8.279,0 15,6.721 15,15Z" style="fill:#dcdbda;"/><path d="M486.82,518.339l-436.264,0c-8.279,0 -15,-6.721 -15,-15l-0,-444.555c-0,-8.279 6.721,-15 15,-15l1841.17,-0c8.279,-0 15,6.721 15,15l0,698.237c0,8.278 -6.721,15 -15,15l-1375.12,-0c-8.278,-0 -15,-6.722 -15,-15l0,-224.041c-0.188,-8.044 -6.722,-14.53 -14.785,-14.641Z" style="fill:#dbdbdb;"/><g id="kiko-shopping-cart-add"><path d="M237.848,144.858c0.729,-0.903 1.093,-1.944 1.093,-3.125l0,-29.271c0,-1.389 -0.468,-2.552 -1.406,-3.489c-0.937,-0.938 -2.101,-1.407 -3.489,-1.407l-3.23,0c-1.18,0 -2.239,0.382 -3.177,1.146c-0.937,0.764 -1.475,1.736 -1.614,2.917l-0.104,0.833c-0,1.042 0.295,1.979 0.885,2.813c0.59,0.833 1.372,1.423 2.344,1.77l-0,20.73l-59.896,11.354l-8.958,-31.875c1.18,-0.278 2.118,-0.938 2.812,-1.979c0.695,-1.042 0.972,-2.153 0.833,-3.334c-0.069,-1.25 -0.573,-2.291 -1.51,-3.125c-0.938,-0.833 -2.031,-1.25 -3.281,-1.25l-1.459,0l-3.541,-12.708c-0.347,-1.042 -0.938,-1.892 -1.771,-2.552c-0.833,-0.66 -1.806,-0.99 -2.917,-0.99l-9.791,0c-1.32,0 -2.466,0.469 -3.438,1.407c-0.972,0.937 -1.458,2.1 -1.458,3.489c-0,1.32 0.486,2.465 1.458,3.438c0.972,0.972 2.118,1.458 3.438,1.458l6.041,-0l14.792,53.229l-10.938,21.771c-2.569,0.347 -4.652,1.562 -6.25,3.646c-1.597,2.083 -2.257,4.41 -1.979,6.979c0.278,2.639 1.406,4.792 3.386,6.458c1.979,1.667 4.253,2.431 6.823,2.292c2.569,-0.069 4.757,-1.059 6.562,-2.969c1.806,-1.91 2.708,-4.184 2.708,-6.823l58.646,0c-0.069,2.709 0.851,5.018 2.761,6.927c1.909,1.91 4.218,2.865 6.927,2.865c2.708,-0 5.017,-0.955 6.927,-2.865c1.91,-1.909 2.864,-4.218 2.864,-6.927c0,-2.708 -0.954,-5.017 -2.864,-6.927c-1.91,-1.91 -4.219,-2.864 -6.927,-2.864l-68.542,-0l8.333,-16.771l66.042,-12.604c1.181,-0.209 2.135,-0.764 2.865,-1.667Zm-62.552,-28.958c-0.973,-0.973 -1.459,-2.118 -1.459,-3.438c0,-1.389 0.486,-2.552 1.459,-3.489c0.972,-0.938 2.118,-1.407 3.437,-1.407l11.354,0l0,-11.354c0,-1.389 0.486,-2.552 1.459,-3.489c0.972,-0.938 2.118,-1.407 3.437,-1.407c1.389,0 2.552,0.469 3.49,1.407c0.937,0.937 1.406,2.1 1.406,3.489l-0,11.354l11.354,0c1.389,0 2.552,0.469 3.49,1.407c0.937,0.937 1.406,2.1 1.406,3.489c-0,1.32 -0.469,2.465 -1.406,3.438c-0.938,0.972 -2.101,1.458 -3.49,1.458l-11.354,-0l-0,11.354c-0,1.32 -0.469,2.465 -1.406,3.438c-0.938,0.972 -2.101,1.458 -3.49,1.458c-1.319,-0 -2.465,-0.486 -3.437,-1.458c-0.973,-0.973 -1.459,-2.118 -1.459,-3.438l0,-11.354l-11.354,-0c-1.319,-0 -2.465,-0.486 -3.437,-1.458Z" style="fill-rule:nonzero;"/></g><g id="kiko-school-microscope"><path d="M221.702,405.062l-0,16.458l1.666,0c1.32,0 2.466,0.486 3.438,1.458c0.972,0.973 1.458,2.119 1.458,3.438c0,1.319 -0.486,2.465 -1.458,3.437c-0.972,0.973 -2.118,1.459 -3.438,1.459l-74.791,-0c-1.32,-0 -2.465,-0.486 -3.438,-1.459c-0.972,-0.972 -1.458,-2.118 -1.458,-3.437c-0,-1.389 0.486,-2.552 1.458,-3.49c0.973,-0.937 2.118,-1.406 3.438,-1.406l4.479,0l5,-5.104c0.972,-0.972 2.118,-1.458 3.437,-1.458l30.938,-0l-0,-6.459l-30.938,0c-1.319,0 -2.447,-0.486 -3.385,-1.458c-0.937,-0.972 -1.406,-2.118 -1.406,-3.438c-0,-1.319 0.469,-2.465 1.406,-3.437c0.938,-0.972 2.066,-1.458 3.385,-1.458l30.938,-0l-0,-10.834l-13.021,-3.229l0,2.708c0,1.32 -0.469,2.466 -1.406,3.438c-0.938,0.972 -2.101,1.458 -3.49,1.458c-1.319,0 -2.448,-0.486 -3.385,-1.458c-0.938,-0.972 -1.406,-2.118 -1.406,-3.438l-0,-5.104l-12.605,-3.125c-1.111,-0.347 -2.013,-0.955 -2.708,-1.823c-0.694,-0.868 -1.042,-1.857 -1.042,-2.968l0,-10.938l-16.25,-16.354c-0.902,-0.903 -1.354,-2.049 -1.354,-3.438c0,-1.388 0.452,-2.534 1.354,-3.437l2.5,-2.604l-2.083,-2.084c-0.903,-0.902 -1.354,-2.048 -1.354,-3.437c-0,-1.319 0.469,-2.465 1.406,-3.438c0.938,-0.972 2.066,-1.458 3.386,-1.458c1.389,0 2.569,0.486 3.541,1.458l1.979,2.084l2.084,-2.084c0.972,-0.972 2.118,-1.458 3.437,-1.458c1.389,0 2.57,0.486 3.542,1.458l11.562,11.563l23.646,-0c1.389,-0 2.552,0.469 3.49,1.406c0.937,0.938 1.406,2.101 1.406,3.49l0,11.354l21.146,-0c1.319,-0 2.465,0.486 3.437,1.458c0.973,0.973 1.459,2.118 1.459,3.438l-0,14.791l1.666,-0.104c2.639,0 5.07,0.66 7.292,1.979c2.222,1.32 3.993,3.091 5.313,5.313c1.319,2.222 1.979,4.653 1.979,7.292c-0,2.639 -0.66,5.086 -1.979,7.343c-1.32,2.257 -3.091,4.046 -5.313,5.365c-2.222,1.319 -4.653,1.979 -7.292,1.979c-0.416,0 -0.972,-0.069 -1.666,-0.208Zm5.104,-17.917c-0.972,-0.972 -2.118,-1.458 -3.438,-1.458c-1.319,-0 -2.465,0.486 -3.437,1.458c-0.972,0.972 -1.458,2.118 -1.458,3.438c-0,1.319 0.486,2.465 1.458,3.437c0.972,0.972 2.118,1.458 3.437,1.458c1.32,0 2.466,-0.486 3.438,-1.458c0.972,-0.972 1.458,-2.118 1.458,-3.437c0,-1.32 -0.486,-2.466 -1.458,-3.438Zm-40.833,-30.729l-0,-6.458l-20.938,-0c-1.319,-0 -2.465,-0.486 -3.437,-1.459l-9.584,-9.583l-4.583,4.687l12.917,12.813l25.625,-0Zm22.708,34.167c-0,-3.334 1.076,-6.355 3.229,-9.063l0,-15.312l-48.75,-0l0,4.375l35.313,8.75c1.111,0.347 2.014,0.954 2.708,1.823c0.694,0.868 1.042,1.857 1.042,2.968l-0,37.396l9.687,0l0,-21.771c-2.153,-2.777 -3.229,-5.833 -3.229,-9.166Z" style="fill-rule:nonzero;"/></g><g id="kiko-gps-tracker"><path d="M209.566,654.829c2.014,-1.181 3.612,-2.778 4.792,-4.792c1.181,-2.014 1.771,-4.167 1.771,-6.458l-0,-32.5c-0,-2.361 -0.59,-4.532 -1.771,-6.511c-1.18,-1.979 -2.778,-3.559 -4.792,-4.739c-2.013,-1.181 -4.166,-1.771 -6.458,-1.771l-32.5,-0c-3.611,-0 -6.684,1.267 -9.219,3.802c-2.534,2.535 -3.802,5.608 -3.802,9.219l0,32.5c0,2.291 0.591,4.444 1.771,6.458c1.181,2.014 2.76,3.611 4.74,4.792c1.979,1.18 4.149,1.771 6.51,1.771l32.5,-0c2.292,-0 4.445,-0.591 6.458,-1.771Zm-4.166,-46.094c0.625,0.66 0.937,1.441 0.937,2.344l0,32.5c0,0.903 -0.312,1.666 -0.937,2.291c-0.625,0.625 -1.389,0.938 -2.292,0.938l-32.5,-0c-0.903,-0 -1.684,-0.313 -2.344,-0.938c-0.659,-0.625 -0.989,-1.388 -0.989,-2.291l-0,-32.5c-0,-0.903 0.33,-1.684 0.989,-2.344c0.66,-0.66 1.441,-0.99 2.344,-0.99l32.5,0c0.903,0 1.667,0.33 2.292,0.99Zm-7.813,14.635c0,-2.916 -1.059,-5.434 -3.177,-7.552c-2.118,-2.118 -4.635,-3.177 -7.552,-3.177c-2.986,0 -5.521,1.059 -7.604,3.177c-2.083,2.118 -3.125,4.636 -3.125,7.552c-0,2.431 0.66,4.514 1.979,6.25l8.75,12.292l8.75,-12.292c1.32,-1.875 1.979,-3.958 1.979,-6.25Zm-8.437,-2.604c0.625,0.625 0.937,1.389 0.937,2.292c0,0.903 -0.312,1.667 -0.937,2.292c-0.625,0.625 -1.389,0.937 -2.292,0.937c-0.903,0 -1.684,-0.312 -2.344,-0.937c-0.659,-0.625 -0.989,-1.389 -0.989,-2.292c-0,-0.903 0.33,-1.667 0.989,-2.292c0.66,-0.625 1.441,-0.937 2.344,-0.937c0.903,-0 1.667,0.312 2.292,0.937Zm28.75,-45.729c-1.389,0 -2.535,-0.451 -3.438,-1.354c-3.75,-3.75 -8.003,-6.58 -12.76,-8.49c-4.757,-1.909 -9.705,-2.864 -14.844,-2.864c-5.139,-0 -10.087,0.955 -14.844,2.864c-4.757,1.91 -9.01,4.74 -12.76,8.49c-0.903,0.903 -2.049,1.354 -3.438,1.354c-1.319,0 -2.465,-0.486 -3.437,-1.458c-0.972,-0.972 -1.458,-2.118 -1.458,-3.438c-0,-1.18 0.451,-2.291 1.354,-3.333c4.653,-4.653 9.982,-8.195 15.989,-10.625c6.007,-2.431 12.205,-3.646 18.594,-3.646c6.389,0 12.57,1.215 18.542,3.646c5.972,2.43 11.284,5.972 15.937,10.625c0.972,0.972 1.459,2.118 1.459,3.437c-0,1.32 -0.487,2.466 -1.459,3.438c-0.903,0.903 -2.048,1.354 -3.437,1.354Zm-13.854,13.854c-1.389,0 -2.535,-0.451 -3.438,-1.354c-1.805,-1.875 -3.906,-3.299 -6.302,-4.271c-2.396,-0.972 -4.878,-1.458 -7.448,-1.458c-2.569,-0 -5.052,0.486 -7.448,1.458c-2.396,0.972 -4.531,2.396 -6.406,4.271c-1.042,0.903 -2.153,1.354 -3.333,1.354c-1.32,0 -2.466,-0.486 -3.438,-1.458c-0.972,-0.972 -1.458,-2.118 -1.458,-3.438c-0,-1.388 0.451,-2.534 1.354,-3.437c2.847,-2.778 6.059,-4.879 9.635,-6.302c3.577,-1.424 7.275,-2.136 11.094,-2.136c3.82,0 7.517,0.712 11.094,2.136c3.576,1.423 6.753,3.524 9.531,6.302c0.972,0.972 1.458,2.118 1.458,3.437c0,1.25 -0.486,2.431 -1.458,3.542c-0.903,0.903 -2.049,1.354 -3.437,1.354Z" style="fill-rule:nonzero;"/></g><g id="kiko-wifi-in-house"><path d="M724.883,412.473c0.938,0.937 1.407,2.1 1.407,3.489c-0,1.32 -0.469,2.466 -1.407,3.438c-0.937,0.972 -2.1,1.458 -3.489,1.458l-94.375,0c-1.32,0 -2.465,-0.486 -3.438,-1.458c-0.972,-0.972 -1.458,-2.118 -1.458,-3.438c0,-1.389 0.486,-2.552 1.458,-3.489c0.973,-0.938 2.118,-1.406 3.438,-1.406l1.667,-0l-0.105,-55.625c-0.555,0.208 -1.111,0.312 -1.666,0.312c-0.903,0 -1.736,-0.243 -2.5,-0.729c-0.764,-0.486 -1.354,-1.181 -1.771,-2.083c-0.347,-0.695 -0.521,-1.389 -0.521,-2.084c0,-0.833 0.208,-1.614 0.625,-2.344c0.417,-0.729 0.972,-1.336 1.667,-1.822l47.187,-29.271c0.764,-0.486 1.632,-0.729 2.604,-0.729c1.042,-0 1.91,0.243 2.605,0.729l10.416,6.458l0,-2.292c0,-1.389 0.486,-2.552 1.459,-3.489c0.972,-0.938 2.118,-1.406 3.437,-1.406l16.25,-0c1.389,-0 2.552,0.468 3.49,1.406c0.937,0.937 1.406,2.1 1.406,3.489l-0,18.438l10.729,6.667c0.695,0.486 1.25,1.093 1.667,1.822c0.416,0.73 0.625,1.511 0.625,2.344c-0,0.695 -0.174,1.389 -0.521,2.084c-0.417,0.902 -1.007,1.597 -1.771,2.083c-0.764,0.486 -1.597,0.729 -2.5,0.729c-0.555,0 -1.111,-0.104 -1.667,-0.312l0,55.625l1.563,-0c1.389,-0 2.552,0.468 3.489,1.406Zm-14.843,-62.969l-4.271,-2.604c-0.695,-0.417 -1.25,-0.99 -1.667,-1.719c-0.416,-0.729 -0.625,-1.51 -0.625,-2.344l0,-16.354l-6.458,0l-0,6.25c-0,1.875 -0.833,3.299 -2.5,4.271c-0.625,0.347 -1.389,0.521 -2.292,0.521c-1.041,-0 -1.944,-0.243 -2.708,-0.729l-15.313,-9.479l-35.833,22.187l0,61.563l71.667,-0l-0,-61.563Zm-31.198,40.677c-1.285,-1.285 -2.83,-1.892 -4.636,-1.823c-1.805,-0.069 -3.333,0.538 -4.583,1.823c-1.25,1.285 -1.875,2.83 -1.875,4.636c-0.069,1.805 0.538,3.333 1.823,4.583c1.285,1.25 2.83,1.875 4.635,1.875c1.806,0.069 3.351,-0.538 4.636,-1.823c1.285,-1.285 1.927,-2.83 1.927,-4.635c-0,-1.806 -0.642,-3.351 -1.927,-4.636Zm18.125,-26.979c0.868,-0.66 1.441,-1.545 1.719,-2.656c0.138,-0.556 0.208,-0.973 0.208,-1.25c-0,-0.834 -0.226,-1.632 -0.677,-2.396c-0.452,-0.764 -1.059,-1.389 -1.823,-1.875c-6.806,-3.82 -14.201,-5.729 -22.188,-5.729c-7.847,-0 -15.243,1.909 -22.187,5.729c-0.764,0.417 -1.372,1.007 -1.823,1.771c-0.451,0.764 -0.712,1.597 -0.781,2.5c-0,0.902 0.225,1.736 0.677,2.5c0.451,0.764 1.059,1.354 1.823,1.771c0.833,0.486 1.632,0.729 2.396,0.729c0.833,-0 1.666,-0.243 2.5,-0.729c5.347,-2.987 11.145,-4.48 17.395,-4.48c6.25,0 12.049,1.493 17.396,4.48c0.695,0.416 1.493,0.625 2.396,0.625c1.111,-0 2.101,-0.33 2.969,-0.99Zm-9.479,17.083c0.868,-0.659 1.441,-1.545 1.718,-2.656c0.07,-0.278 0.105,-0.66 0.105,-1.146c-0,-0.903 -0.209,-1.736 -0.625,-2.5c-0.417,-0.764 -1.042,-1.389 -1.875,-1.875c-3.82,-2.153 -8.021,-3.229 -12.605,-3.229c-4.513,0 -8.715,1.076 -12.604,3.229c-0.764,0.486 -1.371,1.111 -1.823,1.875c-0.451,0.764 -0.677,1.563 -0.677,2.396c0,0.833 0.209,1.632 0.625,2.396c0.486,0.764 1.111,1.371 1.875,1.823c0.764,0.451 1.563,0.677 2.396,0.677c0.833,-0 1.597,-0.208 2.292,-0.625c2.569,-1.389 5.208,-2.083 7.916,-2.083c2.848,-0 5.487,0.694 7.917,2.083c0.695,0.417 1.458,0.625 2.292,0.625c1.18,-0 2.205,-0.33 3.073,-0.99Z" style="fill-rule:nonzero;"/></g><g id="kiko-question"><path d="M1156.07,259.296c2.257,1.319 4.045,3.09 5.365,5.313c1.319,2.222 1.979,4.652 1.979,7.291c-0,2.639 -0.66,5.087 -1.979,7.344c-1.32,2.257 -3.108,4.045 -5.365,5.365c-2.257,1.319 -4.705,1.979 -7.344,1.979c-2.638,-0 -5.086,-0.66 -7.343,-1.979c-2.257,-1.32 -4.045,-3.108 -5.365,-5.365c-1.319,-2.257 -1.979,-4.705 -1.979,-7.344c-0,-2.639 0.66,-5.069 1.979,-7.291c1.32,-2.223 3.108,-3.994 5.365,-5.313c2.257,-1.319 4.705,-1.979 7.343,-1.979c2.639,-0 5.087,0.66 7.344,1.979Zm-3.854,16.042c0.937,-0.973 1.406,-2.118 1.406,-3.438c0,-1.389 -0.469,-2.552 -1.406,-3.489c-0.938,-0.938 -2.101,-1.407 -3.49,-1.407c-1.319,0 -2.465,0.469 -3.437,1.407c-0.972,0.937 -1.458,2.1 -1.458,3.489c-0,1.32 0.486,2.465 1.458,3.438c0.972,0.972 2.118,1.458 3.437,1.458c1.389,0 2.552,-0.486 3.49,-1.458Zm13.854,-88.073c4.965,3.021 8.941,6.996 11.927,11.927c2.986,4.93 4.618,10.347 4.896,16.25c0.208,6.458 -1.285,12.5 -4.479,18.125c-3.195,5.625 -7.639,9.965 -13.333,13.021c-1.112,0.555 -1.667,1.389 -1.667,2.5c-0,1.319 -0.469,2.465 -1.406,3.437c-0.938,0.972 -2.101,1.459 -3.49,1.459l-19.583,-0c-1.389,-0 -2.552,-0.469 -3.49,-1.407c-0.937,-0.937 -1.406,-2.066 -1.406,-3.385l-0,-5.938c-0,-4.791 1.736,-9.184 5.208,-13.177c3.472,-3.993 7.639,-7.239 12.5,-9.739c1.042,-0.625 1.632,-1.528 1.771,-2.709c0.07,-0.208 0.104,-0.555 0.104,-1.041c0,-1.528 -0.625,-2.813 -1.875,-3.854c-0.764,-0.695 -1.736,-1.042 -2.916,-1.042c-0.625,-0 -1.355,0.173 -2.188,0.521c-0.903,0.416 -1.597,1.007 -2.083,1.771c-0.486,0.763 -0.729,1.631 -0.729,2.604c-0,1.319 -0.469,2.465 -1.407,3.437c-0.937,0.972 -2.1,1.459 -3.489,1.459l-19.479,-0c-1.32,-0 -2.466,-0.487 -3.438,-1.459c-0.972,-0.972 -1.458,-2.118 -1.458,-3.437c-0,-4.653 0.903,-9.08 2.708,-13.282c1.806,-4.201 4.375,-7.934 7.708,-11.197c3.264,-3.195 7.049,-5.643 11.355,-7.344c4.305,-1.702 8.784,-2.483 13.437,-2.344c5.903,0.208 11.337,1.823 16.302,4.844Zm3.906,41.458c2.292,-3.993 3.334,-8.316 3.125,-12.969c-0.138,-4.236 -1.284,-8.107 -3.437,-11.614c-2.153,-3.507 -5,-6.337 -8.542,-8.49c-3.541,-2.153 -7.43,-3.298 -11.666,-3.437c-3.889,-0.07 -7.587,0.712 -11.094,2.343c-3.507,1.632 -6.459,3.941 -8.854,6.928c-2.396,2.986 -3.976,6.388 -4.74,10.208l10.104,-0c1.111,-2.986 2.917,-5.365 5.417,-7.136c2.5,-1.77 5.278,-2.656 8.333,-2.656c1.528,0 2.847,0.174 3.959,0.521c3.263,0.903 5.885,2.656 7.864,5.26c1.979,2.605 2.969,5.539 2.969,8.803c-0,0.972 -0.104,1.979 -0.313,3.02c-0.347,2.014 -1.128,3.872 -2.343,5.573c-1.216,1.702 -2.726,3.038 -4.532,4.011c-2.986,1.527 -5.798,3.576 -8.437,6.146c-2.639,2.569 -3.958,5.243 -3.958,8.02l-0,1.042l10.833,0c1.18,-2.778 3.09,-4.861 5.729,-6.25c4.097,-2.222 7.292,-5.33 9.583,-9.323Z" style="fill-rule:nonzero;"/></g><g id="kiko-arrow-right-circle"><path d="M1189.56,520.132c-4.236,-7.222 -9.965,-12.951 -17.187,-17.187c-7.222,-4.236 -15.104,-6.355 -23.646,-6.355c-8.542,0 -16.424,2.119 -23.646,6.355c-7.222,4.236 -12.951,9.965 -17.187,17.187c-4.236,7.222 -6.355,15.104 -6.355,23.646c0,8.542 2.119,16.424 6.355,23.646c4.236,7.222 9.965,12.951 17.187,17.187c7.222,4.236 15.104,6.354 23.646,6.354c8.542,0 16.441,-2.1 23.698,-6.302c7.257,-4.201 12.986,-9.93 17.187,-17.187c4.202,-7.257 6.302,-15.156 6.302,-23.698c0,-8.542 -2.118,-16.424 -6.354,-23.646Zm-73.177,4.948c3.368,-5.729 7.917,-10.278 13.646,-13.646c5.729,-3.368 11.962,-5.052 18.698,-5.052c6.806,0 13.073,1.684 18.802,5.052c5.729,3.368 10.278,7.917 13.646,13.646c3.368,5.729 5.052,11.962 5.052,18.698c-0,6.806 -1.684,13.073 -5.052,18.802c-3.368,5.729 -7.917,10.278 -13.646,13.646c-5.729,3.368 -11.996,5.052 -18.802,5.052c-6.736,-0 -12.969,-1.684 -18.698,-5.052c-5.729,-3.368 -10.278,-7.917 -13.646,-13.646c-3.368,-5.729 -5.052,-11.996 -5.052,-18.802c0,-6.736 1.684,-12.969 5.052,-18.698Zm56.823,18.698c0,1.389 -0.486,2.569 -1.458,3.542l-16.25,16.25c-0.903,0.902 -2.049,1.354 -3.438,1.354c-1.389,-0 -2.569,-0.452 -3.541,-1.354c-0.903,-0.973 -1.355,-2.153 -1.355,-3.542c0,-1.389 0.452,-2.535 1.355,-3.438l8.02,-7.916l-27.291,-0c-1.32,-0 -2.465,-0.486 -3.438,-1.459c-0.972,-0.972 -1.458,-2.118 -1.458,-3.437c-0,-1.389 0.486,-2.552 1.458,-3.49c0.973,-0.937 2.118,-1.406 3.438,-1.406l27.291,0l-8.02,-7.917c-0.903,-0.902 -1.355,-2.048 -1.355,-3.437c0,-1.389 0.452,-2.535 1.355,-3.438c1.111,-0.972 2.291,-1.458 3.541,-1.458c1.32,0 2.466,0.486 3.438,1.458l16.25,16.25c0.972,0.973 1.458,2.119 1.458,3.438Z" style="fill-rule:nonzero;"/></g><g id="kiko-desktop-computer"><path d="M1809.03,93.809c2.222,2.222 3.333,4.895 3.333,8.02l0,81.459c0,3.125 -1.111,5.798 -3.333,8.021c-2.222,2.222 -4.896,3.333 -8.021,3.333l-13.021,-0c-1.319,-0 -2.465,-0.486 -3.437,-1.458c-0.972,-0.973 -1.458,-2.119 -1.458,-3.438c-0,-1.389 0.486,-2.552 1.458,-3.49c0.972,-0.937 2.118,-1.406 3.437,-1.406l13.021,0c0.417,0 0.782,-0.156 1.094,-0.469c0.313,-0.312 0.469,-0.677 0.469,-1.093l-0,-81.459c-0,-0.416 -0.156,-0.781 -0.469,-1.093c-0.312,-0.313 -0.677,-0.469 -1.094,-0.469l-4.896,-0c0,0.903 -0.312,1.667 -0.937,2.292c-0.625,0.625 -1.389,0.937 -2.292,0.937l-16.354,0c-0.903,0 -1.667,-0.312 -2.292,-0.937c-0.625,-0.625 -0.937,-1.389 -0.937,-2.292l-4.896,-0c-0.486,-0 -0.868,0.156 -1.146,0.469c-0.277,0.312 -0.416,0.677 -0.416,1.093l-0,14.688l17.812,-0c3.195,-0 5.903,1.111 8.125,3.333c2.222,2.222 3.333,4.896 3.333,8.021l0,39.063c0,3.194 -1.111,5.902 -3.333,8.125c-2.222,2.222 -4.93,3.333 -8.125,3.333l-16.771,-0l1.25,6.458l2.5,0c1.389,0 2.552,0.469 3.49,1.406c0.937,0.938 1.406,2.101 1.406,3.49c0,1.319 -0.469,2.465 -1.406,3.438c-0.938,0.972 -2.101,1.458 -3.49,1.458l-39.062,-0c-1.32,-0 -2.448,-0.469 -3.386,-1.406c-0.937,-0.938 -1.406,-2.101 -1.406,-3.49c0,-1.389 0.469,-2.552 1.406,-3.49c0.938,-0.937 2.066,-1.406 3.386,-1.406l2.5,0l1.354,-6.458l-16.875,-0c-3.125,-0 -5.799,-1.111 -8.021,-3.333c-2.222,-2.223 -3.333,-4.931 -3.333,-8.125l-0,-39.063c-0,-3.125 1.111,-5.799 3.333,-8.021c2.222,-2.222 4.896,-3.333 8.021,-3.333l37.5,-0l-0,-14.688c-0,-3.125 1.111,-5.798 3.333,-8.02c2.223,-2.223 4.896,-3.334 8.021,-3.334l32.604,0c3.125,0 5.799,1.111 8.021,3.334Zm-62.604,84.583l-1.354,6.458l14.166,0l-1.354,-6.458l-11.458,-0Zm39.427,-51.615c-0.312,-0.312 -0.712,-0.468 -1.198,-0.468l-65.104,-0c-0.417,-0 -0.781,0.156 -1.094,0.468c-0.312,0.313 -0.469,0.677 -0.469,1.094l0,39.063c0,0.486 0.157,0.885 0.469,1.197c0.313,0.313 0.677,0.469 1.094,0.469l65.104,0c0.486,0 0.886,-0.156 1.198,-0.469c0.313,-0.312 0.469,-0.711 0.469,-1.197l-0,-39.063c-0,-0.417 -0.156,-0.781 -0.469,-1.094Z" style="fill-rule:nonzero;"/></g><g id="kiko-desktop-computer1" serif:id="kiko-desktop-computer"><path d="M1807.64,1484.14c2.223,2.222 3.334,4.896 3.334,8.021l-0,81.458c-0,3.125 -1.111,5.798 -3.334,8.021c-2.222,2.222 -4.896,3.333 -8.021,3.333l-13.02,0c-1.32,0 -2.466,-0.486 -3.438,-1.458c-0.972,-0.973 -1.458,-2.118 -1.458,-3.438c-0,-1.389 0.486,-2.552 1.458,-3.489c0.972,-0.938 2.118,-1.407 3.438,-1.407l13.02,0c0.417,0 0.782,-0.156 1.094,-0.468c0.313,-0.313 0.469,-0.677 0.469,-1.094l-0,-81.458c-0,-0.417 -0.156,-0.782 -0.469,-1.094c-0.312,-0.313 -0.677,-0.469 -1.094,-0.469l-4.895,0c-0,0.903 -0.313,1.667 -0.938,2.292c-0.625,0.625 -1.389,0.937 -2.292,0.937l-16.354,0c-0.902,0 -1.666,-0.312 -2.291,-0.937c-0.625,-0.625 -0.938,-1.389 -0.938,-2.292l-4.896,0c-0.486,0 -0.868,0.156 -1.146,0.469c-0.277,0.312 -0.416,0.677 -0.416,1.094l-0,14.687l17.812,0c3.195,0 5.903,1.111 8.125,3.333c2.223,2.223 3.334,4.896 3.334,8.021l-0,39.063c-0,3.194 -1.111,5.902 -3.334,8.125c-2.222,2.222 -4.93,3.333 -8.125,3.333l-16.771,0l1.25,6.458l2.5,0c1.389,0 2.553,0.469 3.49,1.407c0.938,0.937 1.406,2.1 1.406,3.489c0,1.32 -0.468,2.465 -1.406,3.438c-0.937,0.972 -2.101,1.458 -3.49,1.458l-39.062,0c-1.319,0 -2.448,-0.469 -3.385,-1.406c-0.938,-0.938 -1.407,-2.101 -1.407,-3.49c0,-1.389 0.469,-2.552 1.407,-3.489c0.937,-0.938 2.066,-1.407 3.385,-1.407l2.5,0l1.354,-6.458l-16.875,0c-3.125,0 -5.798,-1.111 -8.021,-3.333c-2.222,-2.223 -3.333,-4.931 -3.333,-8.125l-0,-39.063c-0,-3.125 1.111,-5.798 3.333,-8.021c2.223,-2.222 4.896,-3.333 8.021,-3.333l37.5,0l0,-14.687c0,-3.125 1.111,-5.799 3.333,-8.021c2.223,-2.223 4.896,-3.334 8.021,-3.334l32.604,0c3.125,0 5.799,1.111 8.021,3.334Zm-62.604,84.583l-1.354,6.458l14.167,0l-1.355,-6.458l-11.458,0Zm39.427,-51.615c-0.312,-0.312 -0.712,-0.468 -1.198,-0.468l-65.104,-0c-0.417,-0 -0.781,0.156 -1.094,0.468c-0.312,0.313 -0.468,0.678 -0.468,1.094l-0,39.063c-0,0.486 0.156,0.885 0.468,1.198c0.313,0.312 0.677,0.468 1.094,0.468l65.104,0c0.486,0 0.886,-0.156 1.198,-0.468c0.313,-0.313 0.469,-0.712 0.469,-1.198l-0,-39.063c-0,-0.416 -0.156,-0.781 -0.469,-1.094Z" style="fill-rule:nonzero;"/></g><g id="kiko-information"><path d="M1800.59,610.256c-4.236,-7.223 -9.983,-12.952 -17.24,-17.188c-7.257,-4.236 -15.156,-6.354 -23.698,-6.354c-8.541,0 -16.423,2.118 -23.645,6.354c-7.223,4.236 -12.952,9.965 -17.188,17.188c-4.236,7.222 -6.354,15.104 -6.354,23.646c-0,8.541 2.118,16.423 6.354,23.645c4.236,7.223 9.965,12.952 17.188,17.188c7.222,4.236 15.104,6.354 23.645,6.354c8.612,0 16.528,-2.118 23.75,-6.354c7.223,-4.236 12.952,-9.965 17.188,-17.188c4.236,-7.222 6.354,-15.104 6.354,-23.645c0,-8.542 -2.118,-16.424 -6.354,-23.646Zm-73.281,4.948c3.368,-5.73 7.916,-10.278 13.646,-13.646c5.729,-3.368 11.961,-5.052 18.697,-5.052c6.806,-0 13.073,1.684 18.803,5.052c5.729,3.368 10.277,7.916 13.645,13.646c3.368,5.729 5.052,11.961 5.052,18.698c0,6.805 -1.684,13.072 -5.052,18.802c-3.368,5.729 -7.916,10.277 -13.645,13.645c-5.73,3.369 -11.997,5.053 -18.803,5.053c-6.736,-0 -12.968,-1.684 -18.697,-5.053c-5.73,-3.368 -10.278,-7.916 -13.646,-13.645c-3.368,-5.73 -5.052,-11.997 -5.052,-18.802c-0,-6.737 1.684,-12.969 5.052,-18.698Zm42.396,34.791c0.937,0.938 1.406,2.101 1.406,3.49c-0,1.319 -0.469,2.465 -1.406,3.437c-0.938,0.973 -2.101,1.459 -3.49,1.459l-13.021,-0c-1.319,-0 -2.465,-0.486 -3.437,-1.459c-0.973,-0.972 -1.459,-2.118 -1.459,-3.437c0,-1.389 0.486,-2.552 1.459,-3.49c0.972,-0.937 2.118,-1.406 3.437,-1.406l1.667,0l-0,-16.25l-1.667,0c-1.319,0 -2.465,-0.486 -3.437,-1.458c-0.973,-0.973 -1.459,-2.118 -1.459,-3.438c0,-1.389 0.486,-2.552 1.459,-3.489c0.972,-0.938 2.118,-1.407 3.437,-1.407l6.458,0c1.389,0 2.553,0.469 3.49,1.407c0.938,0.937 1.406,2.1 1.406,3.489l0,21.146l1.667,0c1.389,0 2.552,0.469 3.49,1.406Zm-6.563,-42.291c0.938,0.937 1.406,2.1 1.406,3.489c0,1.32 -0.468,2.448 -1.406,3.386c-0.937,0.937 -2.101,1.406 -3.49,1.406c-1.319,-0 -2.447,-0.469 -3.385,-1.406c-0.937,-0.938 -1.406,-2.066 -1.406,-3.386c-0,-1.389 0.469,-2.552 1.406,-3.489c0.938,-0.938 2.066,-1.407 3.385,-1.407c1.389,0 2.553,0.469 3.49,1.407Z" style="fill-rule:nonzero;"/></g><g id="kiko-globe"><path d="M1795.39,418.523c-4.271,7.222 -10,12.951 -17.188,17.187c-7.187,4.236 -15.017,6.354 -23.489,6.354c-8.403,0 -16.216,-2.118 -23.438,-6.354c-7.222,-4.236 -12.969,-9.965 -17.24,-17.187c-4.27,-7.223 -6.406,-15.07 -6.406,-23.542c0,-8.403 2.136,-16.215 6.406,-23.438c4.271,-7.222 10.018,-12.968 17.24,-17.239c7.222,-4.271 15.035,-6.406 23.438,-6.406c8.472,-0 16.319,2.135 23.541,6.406c7.222,4.271 12.952,10.017 17.188,17.239c4.236,7.223 6.354,15.035 6.354,23.438c-0,8.472 -2.136,16.319 -6.406,23.542Zm-73.49,-5.73l7.292,0c-0.973,-3.958 -1.632,-8.229 -1.979,-12.812l-9.48,-0c0.486,4.444 1.875,8.715 4.167,12.812Zm-4.167,-22.604l9.48,0c0.347,-4.652 1.006,-8.993 1.979,-13.021l-7.292,0c-2.292,4.237 -3.681,8.577 -4.167,13.021Zm69.792,-13.021l-7.187,0c1.041,4.862 1.666,9.202 1.875,13.021l9.583,0c-0.625,-4.514 -2.049,-8.854 -4.271,-13.021Zm-27.917,-17.812l0,8.021l6.771,-0c-1.597,-3.264 -3.854,-5.938 -6.771,-8.021Zm-16.666,8.021l6.875,-0l-0,-8.021c-2.986,2.153 -5.278,4.826 -6.875,8.021Zm-5.938,22.812l12.813,0l-0,-13.021l-10.625,0c-1.111,4.237 -1.841,8.577 -2.188,13.021Zm2.188,22.604l10.625,0l-0,-12.812l-12.813,-0c0.347,4.514 1.077,8.785 2.188,12.812Zm10.625,18.021l-0,-8.229l-6.875,0c1.666,3.195 3.958,5.938 6.875,8.229Zm16.562,-8.229l-6.771,0l0,8.229c2.917,-2.222 5.174,-4.965 6.771,-8.229Zm6.042,-22.604l-12.813,-0l0,12.812l10.73,0c1.041,-3.68 1.736,-7.951 2.083,-12.812Zm-2.083,-22.813l-10.73,0l0,13.021l12.813,0c-0.347,-4.791 -1.042,-9.132 -2.083,-13.021Zm5.416,-13.02l1.459,3.229l2.5,-0c-1.32,-1.181 -2.639,-2.257 -3.959,-3.229Zm-42.864,1.823c0.243,-0.521 0.538,-1.129 0.885,-1.823c-1.528,1.041 -2.917,2.118 -4.167,3.229l2.605,-0c0.208,-0.417 0.434,-0.886 0.677,-1.406Zm0.885,59.843c-0.278,-0.486 -0.573,-1.076 -0.885,-1.771c-0.313,-0.694 -0.539,-1.18 -0.677,-1.458l-2.605,0c1.598,1.458 2.986,2.535 4.167,3.229Zm42.813,-1.771c-0.209,0.556 -0.487,1.146 -0.834,1.771c1.111,-0.625 2.431,-1.701 3.959,-3.229l-2.5,0c-0.209,0.417 -0.417,0.903 -0.625,1.458Zm15.208,-24.062l-9.583,-0c-0.209,3.819 -0.834,8.09 -1.875,12.812l7.187,0c2.222,-4.027 3.646,-8.298 4.271,-12.812Z" style="fill-rule:nonzero;"/></g><g id="kiko-physics"><path d="M233.004,1261.01c-0,-5.833 -5.66,-13.195 -16.979,-22.083c11.319,-9.028 16.979,-16.389 16.979,-22.084c-0,-1.458 -0.347,-2.778 -1.042,-3.958c-1.736,-2.917 -4.965,-4.375 -9.687,-4.375c-5.556,-0 -12.17,1.58 -19.844,4.74c-7.674,3.159 -14.809,6.579 -21.406,10.26c0.555,-6.458 1.389,-11.962 2.5,-16.51c1.111,-4.549 2.222,-7.726 3.333,-9.532c1.389,2.639 2.396,5.243 3.021,7.813c0.278,1.111 0.851,1.996 1.719,2.656c0.868,0.66 1.857,0.99 2.968,0.99c1.32,-0 2.466,-0.487 3.438,-1.459c0.972,-0.972 1.458,-2.118 1.458,-3.437c0,-0.278 -0.069,-0.695 -0.208,-1.25c-1.111,-4.028 -2.57,-7.691 -4.375,-10.99c-1.806,-3.298 -4.479,-4.948 -8.021,-4.948c-5.486,0 -9.41,4.497 -11.771,13.49c-2.361,8.993 -3.784,18.767 -4.271,29.323c-0.625,0.416 -2.257,1.493 -4.895,3.229c-5.834,-3.889 -10.799,-8.75 -14.896,-14.583c2.639,-0 5.416,0.451 8.333,1.354c0.278,0.069 0.729,0.104 1.354,0.104c1.32,-0 2.466,-0.486 3.438,-1.458c0.972,-0.973 1.458,-2.118 1.458,-3.438c0,-1.111 -0.347,-2.083 -1.042,-2.917c-0.694,-0.833 -1.562,-1.423 -2.604,-1.77c-2.014,-0.487 -3.802,-0.886 -5.364,-1.198c-1.563,-0.313 -3.247,-0.469 -5.052,-0.469c-4.792,-0 -8.021,1.458 -9.688,4.375c-0.764,1.319 -1.146,2.674 -1.146,4.062c0,5.764 5.66,13.091 16.979,21.98c-5,3.888 -9.062,7.725 -12.187,11.51c-3.125,3.785 -4.688,7.274 -4.688,10.469c0,1.528 0.348,2.882 1.042,4.062c1.042,1.528 2.431,2.691 4.167,3.49c1.736,0.798 3.576,1.094 5.521,0.885c3.68,-0.069 7.361,-0.694 11.041,-1.875c1.042,-0.278 1.91,-0.85 2.604,-1.718c0.695,-0.869 1.042,-1.858 1.042,-2.969c0,-1.389 -0.469,-2.552 -1.406,-3.49c-0.938,-0.937 -2.101,-1.406 -3.49,-1.406c-0.278,-0 -0.764,0.069 -1.458,0.208c-2.778,0.903 -5.729,1.424 -8.854,1.563c1.389,-2.639 4.913,-6.389 10.573,-11.25c5.659,-4.861 13.003,-9.896 22.031,-15.104c9.028,-5.209 17.066,-9.063 24.114,-11.563c7.049,-2.5 12.032,-3.68 14.948,-3.542c-0.833,1.528 -2.448,3.542 -4.843,6.042c-2.396,2.5 -5.747,5.382 -10.052,8.646c-0.209,-0.139 -1.077,-0.695 -2.605,-1.667c-0.625,-0.555 -1.493,-0.833 -2.604,-0.833c-1.319,-0 -2.465,0.469 -3.437,1.406c-0.972,0.938 -1.459,2.101 -1.459,3.49c0,0.764 0.191,1.51 0.573,2.239c0.382,0.73 0.92,1.337 1.615,1.823c6.528,4.306 11.684,8.247 15.469,11.823c3.784,3.577 6.232,6.406 7.343,8.49c-2.361,-0 -6.024,-0.747 -10.989,-2.24c-4.965,-1.493 -10.92,-3.941 -17.865,-7.344c-0.694,-0.347 -1.389,-0.52 -2.083,-0.52c-1.32,-0 -2.465,0.468 -3.438,1.406c-0.972,0.937 -1.458,2.101 -1.458,3.489c0,0.903 0.243,1.754 0.729,2.553c0.486,0.798 1.146,1.406 1.979,1.822l2.5,1.25c-0.625,5.417 -1.423,9.809 -2.395,13.178c-0.973,3.368 -1.91,5.746 -2.813,7.135c-1.18,-1.945 -2.361,-5.347 -3.542,-10.208c-1.18,-4.862 -2.013,-11.042 -2.5,-18.542c-0.069,-1.32 -0.573,-2.413 -1.51,-3.281c-0.938,-0.868 -2.066,-1.302 -3.385,-1.302c-1.32,-0 -2.466,0.468 -3.438,1.406c-0.972,0.937 -1.458,2.066 -1.458,3.385l-0,0.521c0.764,10.07 2.326,19.028 4.687,26.875c2.361,7.847 6.077,11.771 11.146,11.771c7.083,-0 11.945,-8.958 14.583,-26.875c6.598,2.917 13.542,4.653 20.834,5.208c1.875,0.209 3.68,-0.087 5.416,-0.885c1.737,-0.799 3.16,-1.962 4.271,-3.49c0.695,-1.18 1.042,-2.5 1.042,-3.958Z" style="fill-rule:nonzero;"/></g><g id="kiko-apartment"><path d="M902.847,1079.93c0.973,-0.938 1.459,-2.101 1.459,-3.49l-0,-6.562c-0,-1.389 -0.469,-2.552 -1.406,-3.49c-0.938,-0.937 -2.101,-1.406 -3.49,-1.406c-1.32,-0 -2.465,0.469 -3.438,1.406c-0.972,0.938 -1.458,2.101 -1.458,3.49l0,6.562c0,1.32 0.469,2.448 1.406,3.386c0.938,0.937 2.101,1.406 3.49,1.406c1.319,0.069 2.465,-0.365 3.437,-1.302Zm32.553,-0.104c-0.938,0.937 -2.101,1.406 -3.49,1.406c-1.32,0.069 -2.448,-0.365 -3.385,-1.302c-0.938,-0.938 -1.407,-2.101 -1.407,-3.49l0,-6.562c-0.069,-1.32 0.365,-2.465 1.302,-3.438c0.938,-0.972 2.101,-1.458 3.49,-1.458c1.389,-0 2.552,0.469 3.49,1.406c0.937,0.938 1.406,2.101 1.406,3.49l-0,6.562c-0,1.32 -0.469,2.448 -1.406,3.386Zm-48.75,-0c-0.938,0.937 -2.101,1.406 -3.49,1.406c-1.32,0.069 -2.465,-0.365 -3.438,-1.302c-0.972,-0.938 -1.458,-2.101 -1.458,-3.49l0,-6.562c0,-1.389 0.486,-2.552 1.458,-3.49c0.973,-0.937 2.118,-1.406 3.438,-1.406c1.389,-0 2.552,0.469 3.49,1.406c0.937,0.938 1.406,2.101 1.406,3.49l-0.104,6.562c0.069,1.32 -0.365,2.448 -1.302,3.386Zm16.25,-22.761c-0.938,0.973 -2.101,1.459 -3.49,1.459c-1.32,-0 -2.465,-0.486 -3.438,-1.459c-0.972,-0.972 -1.458,-2.118 -1.458,-3.437l0,-6.563c0,-1.319 0.469,-2.448 1.406,-3.385c0.938,-0.938 2.101,-1.441 3.49,-1.511c1.389,0 2.552,0.469 3.49,1.407c0.937,0.937 1.406,2.1 1.406,3.489l-0,6.563c-0,1.319 -0.469,2.465 -1.406,3.437Zm-16.25,0c-0.938,0.973 -2.101,1.459 -3.49,1.459c-1.32,-0 -2.465,-0.486 -3.438,-1.459c-0.972,-0.972 -1.458,-2.118 -1.458,-3.437l0,-6.563c0,-1.319 0.469,-2.448 1.406,-3.385c0.938,-0.938 2.101,-1.441 3.49,-1.511c1.389,0 2.552,0.469 3.49,1.407c0.937,0.937 1.406,2.1 1.406,3.489l-0.104,6.563c0.069,1.319 -0.365,2.465 -1.302,3.437Zm71.562,48.386c-0.937,-0.938 -2.101,-1.407 -3.49,-1.407l-1.562,0l-0,-45.833c1.111,-0.417 1.944,-1.128 2.5,-2.135c0.555,-1.007 0.764,-2.101 0.625,-3.282c-0.208,-1.18 -0.781,-2.152 -1.719,-2.916c-0.937,-0.764 -1.962,-1.146 -3.073,-1.146l-30.937,-0l-0,-13.333c0.972,-0.278 1.753,-0.851 2.344,-1.719c0.59,-0.868 0.885,-1.823 0.885,-2.865c-0,-1.041 -0.295,-1.979 -0.885,-2.812c-0.591,-0.834 -1.372,-1.424 -2.344,-1.771l-0,-7.083c1.111,-0.417 1.962,-1.146 2.552,-2.188c0.59,-1.042 0.781,-2.118 0.573,-3.229c-0.209,-1.181 -0.764,-2.153 -1.667,-2.917c-0.903,-0.764 -1.944,-1.146 -3.125,-1.146l-55.312,0c-1.112,0 -2.136,0.382 -3.073,1.146c-0.938,0.764 -1.511,1.736 -1.719,2.917c-0.139,1.181 0.087,2.274 0.677,3.281c0.59,1.007 1.441,1.719 2.552,2.136l0,7.083c-0.972,0.347 -1.771,0.937 -2.396,1.771c-0.625,0.833 -0.937,1.771 -0.937,2.812c-0,1.042 0.312,1.997 0.937,2.865c0.625,0.868 1.424,1.441 2.396,1.719l0,68.645l-1.667,0c-1.319,0 -2.465,0.469 -3.437,1.407c-0.972,0.937 -1.458,2.1 -1.458,3.489c-0,1.32 0.486,2.466 1.458,3.438c0.972,0.972 2.118,1.458 3.437,1.458l94.375,0c1.389,0 2.553,-0.486 3.49,-1.458c0.938,-0.972 1.406,-2.118 1.406,-3.438c0,-1.389 -0.468,-2.552 -1.406,-3.489Zm-53.906,-12.761c-0,-1.389 -0.469,-2.552 -1.406,-3.489c-0.938,-0.938 -2.101,-1.407 -3.49,-1.407c-1.32,0 -2.465,0.469 -3.438,1.407c-0.972,0.937 -1.458,2.1 -1.458,3.489l0,11.354l-6.458,0l-0.104,-11.354c0.069,-1.319 -0.365,-2.465 -1.302,-3.437c-0.938,-0.972 -2.101,-1.459 -3.49,-1.459c-1.32,0 -2.465,0.469 -3.438,1.407c-0.972,0.937 -1.458,2.1 -1.458,3.489l0,11.354l-6.562,0l-0,-68.333l39.062,0l0,68.333l-6.458,0l-0,-11.354Zm-32.604,-66.354l-0,-7.187l39.062,-0l0,7.187l-39.062,0Zm65.104,66.354c-0,-1.389 -0.469,-2.552 -1.406,-3.489c-0.938,-0.938 -2.101,-1.407 -3.49,-1.407c-1.32,0 -2.448,0.469 -3.385,1.407c-0.938,0.937 -1.407,2.1 -1.407,3.489l0,11.354l-6.562,0l-0,-45.52l22.812,-0l0,45.52l-6.562,0l-0,-11.354Z" style="fill-rule:nonzero;"/></g><g id="kiko-villa"><path d="M958.941,1425.79c0.59,1.042 0.781,2.118 0.573,3.229c-0.208,1.181 -0.764,2.153 -1.667,2.917c-0.902,0.764 -1.944,1.146 -3.125,1.146l-94.375,-0c-1.18,-0 -2.222,-0.382 -3.125,-1.146c-0.902,-0.764 -1.458,-1.736 -1.666,-2.917l-0.104,-0.833c-0,-0.972 0.295,-1.892 0.885,-2.76c0.59,-0.868 1.372,-1.476 2.344,-1.823l-0,-20.104c-1.111,-0.417 -1.962,-1.146 -2.552,-2.188c-0.591,-1.042 -0.782,-2.118 -0.573,-3.229c0.208,-1.181 0.764,-2.153 1.666,-2.917c0.903,-0.764 1.945,-1.146 3.125,-1.146l17.917,0l0,-6.77c-0.972,-0.348 -1.771,-0.955 -2.396,-1.823c-0.625,-0.868 -0.937,-1.789 -0.937,-2.761c-0,-1.041 0.312,-1.996 0.937,-2.864c0.625,-0.868 1.424,-1.441 2.396,-1.719l0,-24.167l-1.146,0.521c-0.833,0.347 -1.562,0.521 -2.187,0.521c-0.903,-0 -1.736,-0.243 -2.5,-0.729c-0.764,-0.486 -1.354,-1.146 -1.771,-1.979c-0.347,-0.625 -0.521,-1.355 -0.521,-2.188c0,-0.903 0.243,-1.753 0.729,-2.552c0.486,-0.799 1.146,-1.406 1.979,-1.823l32.5,-16.25c0.625,-0.347 1.355,-0.521 2.188,-0.521c0.972,0 1.701,0.174 2.187,0.521l32.5,16.25c0.834,0.417 1.493,1.024 1.98,1.823c0.486,0.799 0.729,1.649 0.729,2.552c-0,0.833 -0.174,1.563 -0.521,2.188c-0.417,0.833 -1.007,1.493 -1.771,1.979c-0.764,0.486 -1.597,0.729 -2.5,0.729c-0.625,-0 -1.354,-0.174 -2.187,-0.521l-1.146,-0.521l-0,24.167c0.972,0.278 1.771,0.851 2.396,1.719c0.625,0.868 0.937,1.823 0.937,2.864c0,0.972 -0.312,1.893 -0.937,2.761c-0.625,0.868 -1.424,1.475 -2.396,1.823l-0,6.77l17.916,0c1.181,0 2.223,0.382 3.125,1.146c0.903,0.764 1.459,1.736 1.667,2.917l0.104,0.833c0,0.972 -0.295,1.893 -0.885,2.761c-0.59,0.868 -1.372,1.475 -2.344,1.823l0,20.104c1.111,0.416 1.962,1.146 2.552,2.187Zm-22.135,-2.5l9.791,0l0,-19.479l-9.791,0l-0,19.479Zm-17.656,-24.635c0.937,0.937 1.406,2.1 1.406,3.489l-0,21.146l6.562,0l0,-35.833l-39.062,-0l-0,35.833l22.708,0l0,-21.146c0,-1.389 0.434,-2.552 1.302,-3.489c0.868,-0.938 2.066,-1.406 3.594,-1.406c1.389,-0 2.552,0.468 3.49,1.406Zm-31.094,-20.886l39.062,0l0,-28.75l-19.583,-9.791l-19.479,9.791l-0,28.75Zm-19.584,26.042l0,19.479l9.792,0l0,-19.479l-9.792,0Zm34.428,-5.156c0.937,0.937 1.406,2.1 1.406,3.489l-0,9.792c-0,1.319 -0.469,2.465 -1.406,3.438c-0.938,0.972 -2.101,1.458 -3.49,1.458c-1.32,-0 -2.465,-0.486 -3.438,-1.458c-0.972,-0.973 -1.458,-2.119 -1.458,-3.438l0,-9.792c0,-1.389 0.486,-2.552 1.458,-3.489c0.973,-0.938 2.118,-1.406 3.438,-1.406c1.389,-0 2.552,0.468 3.49,1.406Zm-6.928,-28.906c-0.972,-0.973 -1.458,-2.119 -1.458,-3.438l0,-9.687c0,-1.389 0.486,-2.553 1.458,-3.49c0.973,-0.938 2.118,-1.406 3.438,-1.406c1.389,-0 2.552,0.468 3.49,1.406c0.937,0.937 1.406,2.101 1.406,3.49l-0,9.687c-0,1.319 -0.469,2.465 -1.406,3.438c-0.938,0.972 -2.101,1.458 -3.49,1.458c-1.32,-0 -2.465,-0.486 -3.438,-1.458Zm16.25,-0c-0.972,-0.973 -1.458,-2.119 -1.458,-3.438l0,-9.687c0,-1.389 0.486,-2.553 1.458,-3.49c0.973,-0.938 2.118,-1.406 3.438,-1.406c1.389,-0 2.552,0.468 3.49,1.406c0.937,0.937 1.406,2.101 1.406,3.49l-0,9.687c-0,1.319 -0.469,2.465 -1.406,3.438c-0.938,0.972 -2.101,1.458 -3.49,1.458c-1.32,-0 -2.465,-0.486 -3.438,-1.458Z" style="fill-rule:nonzero;"/></g><g id="kiko-lightning"><path d="M1322.67,1553.44l42.291,-58.646c0.625,-0.833 0.938,-1.805 0.938,-2.916c-0,-0.625 -0.174,-1.354 -0.521,-2.188c-0.417,-0.764 -1.024,-1.389 -1.823,-1.875c-0.799,-0.486 -1.649,-0.729 -2.552,-0.729l-18.542,0l13.125,-28.958c0.278,-0.556 0.417,-1.216 0.417,-1.979c-0,-1.042 -0.243,-1.945 -0.729,-2.709c-0.486,-0.694 -1.094,-1.232 -1.823,-1.614c-0.729,-0.382 -1.511,-0.573 -2.344,-0.573l-34.479,-0c-1.042,-0 -1.979,0.278 -2.813,0.833c-0.833,0.556 -1.423,1.32 -1.77,2.292l-19.584,52.083c-0.208,0.486 -0.312,1.042 -0.312,1.667c-0,1.111 0.312,2.083 0.937,2.916c0.417,0.625 0.99,1.129 1.719,1.511c0.729,0.382 1.476,0.573 2.24,0.573l25.312,-0l-8.437,36.354c-0.07,0.208 -0.105,0.555 -0.105,1.042c0,1.25 0.348,2.257 1.042,3.02c1.042,1.25 2.326,1.875 3.854,1.875c1.667,0 2.986,-0.659 3.959,-1.979Zm7.708,-63.541c-0.278,0.833 -0.417,1.493 -0.417,1.979c0,0.903 0.278,1.805 0.834,2.708c0.416,0.695 0.989,1.25 1.718,1.667c0.729,0.416 1.511,0.59 2.344,0.521l16.563,-0l-22.5,31.354l4.27,-18.854c0.139,-0.556 0.209,-0.938 0.209,-1.146c-0,-1.042 -0.382,-2.014 -1.146,-2.917c-1.042,-1.25 -2.292,-1.875 -3.75,-1.875l-24.375,0l15.833,-42.292l23.646,0l-13.229,28.855Z" style="fill-rule:nonzero;"/></g><g id="kiko-question1" serif:id="kiko-question"><path d="M1336.35,999.742c2.257,1.319 4.045,3.09 5.364,5.312c1.32,2.223 1.98,4.653 1.98,7.292c-0,2.639 -0.66,5.087 -1.98,7.344c-1.319,2.257 -3.107,4.045 -5.364,5.364c-2.257,1.32 -4.705,1.98 -7.344,1.98c-2.639,-0 -5.087,-0.66 -7.344,-1.98c-2.257,-1.319 -4.045,-3.107 -5.364,-5.364c-1.32,-2.257 -1.979,-4.705 -1.979,-7.344c-0,-2.639 0.659,-5.069 1.979,-7.292c1.319,-2.222 3.107,-3.993 5.364,-5.312c2.257,-1.32 4.705,-1.979 7.344,-1.979c2.639,-0 5.087,0.659 7.344,1.979Zm-3.854,16.042c0.937,-0.973 1.406,-2.118 1.406,-3.438c-0,-1.389 -0.469,-2.552 -1.406,-3.49c-0.938,-0.937 -2.101,-1.406 -3.49,-1.406c-1.319,0 -2.465,0.469 -3.437,1.406c-0.973,0.938 -1.459,2.101 -1.459,3.49c0,1.32 0.486,2.465 1.459,3.438c0.972,0.972 2.118,1.458 3.437,1.458c1.389,-0 2.552,-0.486 3.49,-1.458Zm13.854,-88.073c4.965,3.02 8.941,6.996 11.927,11.927c2.986,4.93 4.618,10.347 4.896,16.25c0.208,6.458 -1.285,12.5 -4.479,18.125c-3.195,5.625 -7.639,9.965 -13.334,13.021c-1.111,0.555 -1.666,1.388 -1.666,2.5c-0,1.319 -0.469,2.465 -1.407,3.437c-0.937,0.972 -2.1,1.458 -3.489,1.458l-19.584,0c-1.388,0 -2.552,-0.468 -3.489,-1.406c-0.938,-0.937 -1.406,-2.066 -1.406,-3.385l-0,-5.938c-0,-4.791 1.736,-9.184 5.208,-13.177c3.472,-3.993 7.639,-7.239 12.5,-9.739c1.042,-0.625 1.632,-1.528 1.771,-2.709c0.069,-0.208 0.104,-0.555 0.104,-1.041c-0,-1.528 -0.625,-2.813 -1.875,-3.855c-0.764,-0.694 -1.736,-1.041 -2.917,-1.041c-0.625,-0 -1.354,0.173 -2.187,0.521c-0.903,0.416 -1.597,1.007 -2.084,1.77c-0.486,0.764 -0.729,1.632 -0.729,2.605c0,1.319 -0.468,2.465 -1.406,3.437c-0.937,0.972 -2.101,1.458 -3.49,1.458l-19.479,0c-1.319,0 -2.465,-0.486 -3.437,-1.458c-0.972,-0.972 -1.459,-2.118 -1.459,-3.437c0,-4.653 0.903,-9.08 2.709,-13.282c1.805,-4.201 4.375,-7.934 7.708,-11.198c3.264,-3.194 7.049,-5.642 11.354,-7.343c4.306,-1.702 8.785,-2.483 13.438,-2.344c5.903,0.208 11.337,1.823 16.302,4.844Zm3.906,41.458c2.292,-3.993 3.333,-8.316 3.125,-12.969c-0.139,-4.236 -1.285,-8.107 -3.437,-11.614c-2.153,-3.507 -5,-6.337 -8.542,-8.49c-3.542,-2.153 -7.431,-3.299 -11.667,-3.437c-3.889,-0.07 -7.587,0.711 -11.093,2.343c-3.507,1.632 -6.459,3.941 -8.855,6.927c-2.395,2.987 -3.975,6.389 -4.739,10.209l10.104,-0c1.111,-2.986 2.917,-5.365 5.417,-7.136c2.5,-1.771 5.277,-2.656 8.333,-2.656c1.528,0 2.847,0.174 3.958,0.521c3.264,0.903 5.886,2.656 7.865,5.26c1.979,2.604 2.969,5.539 2.969,8.802c-0,0.973 -0.105,1.98 -0.313,3.021c-0.347,2.014 -1.128,3.872 -2.344,5.573c-1.215,1.702 -2.725,3.038 -4.531,4.011c-2.986,1.527 -5.799,3.576 -8.437,6.145c-2.639,2.57 -3.959,5.243 -3.959,8.021l0,1.042l10.834,-0c1.18,-2.778 3.09,-4.861 5.729,-6.25c4.097,-2.222 7.291,-5.33 9.583,-9.323Z" style="fill-rule:nonzero;"/></g><g id="kiko-wrench"><path d="M1301.42,1281.29c2.187,-0.903 4.114,-2.188 5.781,-3.854l27.187,-27.188c1.32,-1.389 2.9,-2.448 4.74,-3.177c1.84,-0.729 3.767,-1.024 5.781,-0.885l2.188,0.104c5.208,-0 10.138,-1.129 14.791,-3.385c4.653,-2.257 8.611,-5.435 11.875,-9.532c2.361,-2.986 4.167,-6.302 5.417,-9.948c1.25,-3.645 1.875,-7.378 1.875,-11.198c-0,-3.263 -0.486,-6.562 -1.458,-9.895c-0.278,-0.764 -0.73,-1.459 -1.355,-2.084c-0.625,-0.625 -1.354,-1.041 -2.187,-1.25c-0.278,-0.069 -0.66,-0.104 -1.146,-0.104c-1.458,0 -2.604,0.486 -3.437,1.458l-15.938,15.938l-9.792,-2.604l-2.604,-9.792l15.834,-15.833c0.972,-0.972 1.458,-2.084 1.458,-3.334c-0,-0.347 -0.07,-0.798 -0.208,-1.354c-0.417,-1.736 -1.528,-2.882 -3.334,-3.437c-2.986,-0.972 -6.319,-1.459 -10,-1.459c-3.75,0 -7.43,0.625 -11.041,1.875c-3.612,1.25 -6.875,3.056 -9.792,5.417c-4.375,3.403 -7.691,7.639 -9.948,12.708c-2.257,5.07 -3.212,10.382 -2.865,15.938c0.07,2.153 -0.295,4.201 -1.093,6.146c-0.799,1.944 -1.962,3.611 -3.49,5l-26.25,26.354c-1.805,1.736 -3.16,3.733 -4.062,5.99c-0.903,2.256 -1.355,4.6 -1.355,7.031c0,4.236 1.285,7.986 3.855,11.25c1.666,1.944 3.611,3.489 5.833,4.635c2.222,1.146 4.583,1.754 7.083,1.823l0.834,0c2.361,0 4.635,-0.451 6.823,-1.354Zm31.406,-78.75c-0,0.486 0.034,0.868 0.104,1.146l4.062,15.312c0.556,1.736 1.737,2.882 3.542,3.438l15.208,4.062c0.278,0.07 0.695,0.104 1.25,0.104c1.389,0 2.535,-0.451 3.438,-1.354l10.729,-10.833c-0.347,4.305 -1.719,8.194 -4.114,11.667c-2.396,3.472 -5.504,6.128 -9.323,7.968c-3.82,1.841 -7.882,2.622 -12.188,2.344c-3.403,-0.139 -6.667,0.382 -9.792,1.563c-3.125,1.18 -5.868,2.951 -8.229,5.312l-27.291,27.292c-1.667,1.666 -3.681,2.43 -6.042,2.291c-2.361,-0.138 -4.306,-1.111 -5.833,-2.916c-1.112,-1.528 -1.667,-3.229 -1.667,-5.104c-0,-2.362 0.868,-4.375 2.604,-6.042l26.25,-26.25c2.57,-2.431 4.497,-5.278 5.781,-8.542c1.285,-3.264 1.858,-6.666 1.719,-10.208c-0.278,-4.236 0.486,-8.247 2.292,-12.031c1.805,-3.785 4.427,-6.875 7.864,-9.271c3.438,-2.396 7.309,-3.768 11.615,-4.115l-10.625,10.625c-0.903,1.042 -1.354,2.222 -1.354,3.542Z" style="fill-rule:nonzero;"/></g><g id="kiko-globe-east"><path d="M1782.83,884.191c7.222,4.237 12.952,9.966 17.188,17.188c4.236,7.222 6.354,15.104 6.354,23.646c-0,8.541 -2.101,16.423 -6.302,23.646c-4.202,7.222 -9.913,12.951 -17.136,17.187c-7.222,4.236 -15.139,6.354 -23.75,6.354c-8.541,0 -16.423,-2.1 -23.645,-6.302c-7.223,-4.201 -12.952,-9.93 -17.188,-17.187c-4.236,-7.257 -6.354,-15.157 -6.354,-23.698c-0,-8.542 2.118,-16.424 6.354,-23.646c4.236,-7.222 9.965,-12.951 17.188,-17.188c7.222,-4.236 15.104,-6.354 23.645,-6.354c8.542,0 16.424,2.118 23.646,6.354Zm-7.604,10.313c0,-1.181 -0.278,-2.396 -0.833,-3.646c-2.431,-1.042 -4.757,-1.805 -6.979,-2.292l-0,0.105c-0.417,-0 -0.66,0.069 -0.73,0.208c-0.069,0.139 -0.086,0.312 -0.052,0.521c0.035,0.208 0.052,0.382 0.052,0.521l0,0.104c0,0.347 -0.139,0.694 -0.416,1.041c-0.278,0.348 -0.452,0.556 -0.521,0.625c-0.278,0.625 -0.382,1.25 -0.313,1.875c0,0.278 0.139,0.556 0.417,0.834l0.625,0.208c0.486,0.139 1.146,0.504 1.979,1.094c0.834,0.59 1.459,0.955 1.875,1.094c0.695,0.069 1.424,0.069 2.188,-0l1.875,-0.105l0.416,-0.208c0.348,-0.208 0.452,-0.486 0.313,-0.833l0.104,-1.146Zm-47.083,9.687l0.937,0.469c18.334,20.938 18.768,21.077 1.302,0.417c-17.465,-20.66 -17.1,-20.712 1.094,-0.156c0.278,-0.07 0.503,-0.174 0.677,-0.313c0.174,-0.139 0.33,-0.243 0.469,-0.312c0.139,-0.07 0.347,-0.105 0.625,-0.105c0.486,0 1.285,0.313 2.396,0.938c1.25,0.417 2.396,0.59 3.437,0.521c0.278,-0 0.521,-0.104 0.729,-0.313c0.139,-0.139 0.243,-0.347 0.313,-0.625c0.069,-0.277 0.104,-0.451 0.104,-0.521c0.069,-0.555 0.347,-1.128 0.833,-1.718c0.486,-0.591 0.834,-1.025 1.042,-1.302c0.417,-0.764 0.729,-1.528 0.938,-2.292c0.069,-0.139 0.312,-0.677 0.729,-1.615c0.416,-0.937 0.625,-1.788 0.625,-2.552c-0,-0.764 -0.348,-1.146 -1.042,-1.146c-0.903,0 -1.667,0.139 -2.292,0.417c-0.139,0.139 -0.59,0.347 -1.354,0.625c-0.486,0 -0.972,-0.173 -1.458,-0.521c-4.028,2.709 -7.396,6.077 -10.104,10.104Zm66.51,33.178c1.354,-3.924 2.031,-7.969 2.031,-12.136c0,-1.736 -0.173,-3.75 -0.52,-6.042l-1.355,-0.104c-0.833,0 -1.666,0.104 -2.5,0.313c-0.347,0.069 -0.694,0.156 -1.041,0.26c-0.348,0.104 -0.695,0.191 -1.042,0.261c-2.292,0.208 -4.792,-0.105 -7.5,-0.938c-0.417,-0.139 -0.764,-0.364 -1.042,-0.677c-0.277,-0.312 -0.573,-0.729 -0.885,-1.25c-0.313,-0.521 -0.642,-0.92 -0.99,-1.198c-0.277,-0.139 -0.486,-0.208 -0.625,-0.208c-0.347,-0 -1.007,0.312 -1.979,0.937c-0.486,0.348 -1.007,0.521 -1.562,0.521c-0.556,0 -1.042,-0.104 -1.459,-0.312c-0.208,-0.139 -0.538,-0.434 -0.989,-0.886c-0.452,-0.451 -0.851,-0.746 -1.198,-0.885c-0.139,-0 -0.347,-0.035 -0.625,-0.104c-0.278,-0.07 -0.486,-0.139 -0.625,-0.209c-0.208,-0.139 -0.382,-0.382 -0.521,-0.729c-0.556,-1.111 -1.25,-2.222 -2.083,-3.333c-0.348,-0.625 -0.729,-1.077 -1.146,-1.354c-0.556,-0.486 -1.146,-0.591 -1.771,-0.313c-0.486,0.347 -0.764,0.521 -0.833,0.521c-0.139,0.069 -0.348,0.104 -0.625,0.104l-0.625,0c-0.695,0 -0.903,0.07 -0.625,0.208l-0.209,0.417c0,0.208 0.035,0.382 0.105,0.521l0.208,0.417c0.486,1.458 1.111,2.743 1.875,3.854c0.764,0.764 1.319,1.458 1.667,2.083c0.208,0.625 0.312,1.285 0.312,1.979c0.139,0.764 0.486,1.25 1.042,1.459c0.208,0.069 0.451,0.121 0.729,0.156c0.278,0.035 0.521,0.156 0.729,0.364c0.139,0.278 0.208,0.521 0.208,0.73c0.348,0.833 1.007,1.319 1.98,1.458l0.833,0.104c0.972,0 1.805,-0.208 2.5,-0.625c0.694,-0.417 1.337,-0.903 1.927,-1.458c0.59,-0.556 0.99,-0.903 1.198,-1.042c0.208,-0.208 0.417,-0.312 0.625,-0.312c0.208,-0 0.382,0.243 0.521,0.729c0.139,0.486 0.208,0.764 0.208,0.833c0.069,0.417 0.243,0.799 0.521,1.146c0.833,0.833 1.875,1.354 3.125,1.562c0.625,0.209 1.18,0.521 1.667,0.938c0.486,0.417 0.729,0.903 0.729,1.458c-0.209,0.834 -0.66,1.493 -1.354,1.979c-0.625,0.625 -1.355,1.632 -2.188,3.021c-0.833,1.181 -1.51,2.084 -2.031,2.709c-0.521,0.625 -1.233,1.18 -2.136,1.666c-2.361,0.973 -4.27,1.875 -5.729,2.709c-0.347,0.208 -0.66,0.451 -0.937,0.729c-0.278,0.278 -0.591,0.521 -0.938,0.729c-0.555,0.417 -1.458,0.903 -2.708,1.458c-3.542,1.598 -7.604,2.813 -12.188,3.646c-0.347,0.139 -0.659,0.139 -0.937,0c-0.972,-0.208 -1.563,-1.493 -1.771,-3.854l-0.417,-2.813c0,-0.763 -0.034,-1.354 -0.104,-1.77c-0.139,-0.417 -0.521,-0.99 -1.146,-1.719c-0.625,-0.729 -1.041,-1.337 -1.25,-1.823c-0.069,-0.833 -0.277,-1.667 -0.625,-2.5c-0.208,-0.347 -0.607,-0.764 -1.198,-1.25c-0.59,-0.486 -0.989,-0.868 -1.197,-1.146c-0.625,-1.18 -0.903,-2.361 -0.834,-3.542c0,-1.319 -0.382,-2.465 -1.146,-3.437l-1.25,-1.042c-0.486,-1.111 -0.729,-2.118 -0.729,-3.021c-0.069,-0.486 -0.312,-1.215 -0.729,-2.187c-0.694,-1.389 -0.972,-2.431 -0.833,-3.125l0.729,-2.083c0.208,-0.417 0.208,-0.799 -0,-1.146c-0.347,-0.486 -0.799,-0.625 -1.354,-0.417c-0.556,0.417 -0.903,0.764 -1.042,1.042c-0.278,0.416 -0.521,0.694 -0.729,0.833c-0.208,0.347 -0.521,0.382 -0.938,0.104c-0.069,0 -0.173,-0.173 -0.312,-0.521c-0.278,-0.694 -0.538,-1.25 -0.781,-1.666c-0.243,-0.417 -0.573,-0.556 -0.99,-0.417c-0.139,0.07 -0.26,0.174 -0.365,0.313c-0.104,0.139 -0.225,0.243 -0.364,0.312c0.417,1.945 1.076,3.75 1.979,5.417c0.694,1.736 1.215,3.576 1.563,5.521c-0,0.208 0.017,0.503 0.052,0.885c0.034,0.382 0.121,0.816 0.26,1.302l1.979,3.958c0.417,1.112 0.625,2.292 0.625,3.542l0,0.625c0,0.833 0.174,1.667 0.521,2.5c0.278,0.486 0.66,0.903 1.146,1.25c0.625,0.764 1.076,1.493 1.354,2.188c0.139,0.347 0.295,1.007 0.469,1.979c0.173,0.972 0.469,1.701 0.885,2.187c0.695,0.695 1.459,1.25 2.292,1.667c0.972,0.833 1.667,1.597 2.083,2.292c1.181,1.527 1.945,3.02 2.292,4.479l-0,0.104c0.417,1.597 1.146,2.465 2.187,2.604l0.209,0c0.347,0 0.764,-0.087 1.25,-0.26c0.486,-0.174 0.868,-0.295 1.146,-0.365l0.416,0c0.278,0 0.608,0.035 0.99,0.104c0.382,0.07 0.712,0.07 0.989,0c0.278,-0.069 0.868,-0.243 1.771,-0.521c0.347,-0.138 0.903,-0.208 1.667,-0.208l0.937,0c0.764,0 1.32,-0.104 1.667,-0.312c0.486,-0.278 1.215,-0.625 2.188,-1.042c0.347,-0 0.625,0.069 0.833,0.208c0.139,0.278 0.208,0.521 0.208,0.729c0.07,1.598 -0.347,3.16 -1.25,4.688l-2.708,4.167c-0.695,1.18 -1.354,2.604 -1.979,4.27c5.208,-0.416 10.086,-1.857 14.635,-4.322c4.549,-2.466 8.42,-5.747 11.615,-9.844c2.569,-3.264 4.531,-6.858 5.885,-10.781Z" style="fill-rule:nonzero;"/></g><g id="kiko-home"><path d="M570.547,1224.24c-0,1.042 -0.313,1.979 -0.938,2.813c-0.972,1.388 -2.291,2.083 -3.958,2.083c-1.042,-0 -1.979,-0.313 -2.812,-0.938l-5.313,-3.75l0,48.646c0,1.32 -0.469,2.448 -1.406,3.386c-0.938,0.937 -2.101,1.406 -3.49,1.406l-65.104,-0c-1.389,-0 -2.552,-0.469 -3.49,-1.406c-0.937,-0.938 -1.406,-2.066 -1.406,-3.386l0,-48.646l-5.312,3.75c-0.834,0.625 -1.771,0.938 -2.813,0.938c-1.666,-0 -2.986,-0.695 -3.958,-2.083c-0.625,-0.834 -0.938,-1.771 -0.938,-2.813c0,-1.667 0.695,-2.986 2.084,-3.958l45.521,-32.604c0.763,-0.556 1.701,-0.834 2.812,-0.834c1.181,0 2.153,0.278 2.917,0.834l45.521,32.604c1.388,0.972 2.083,2.291 2.083,3.958Zm-50.521,-26.562l-27.604,19.791l-0,50.729l55.312,0l0,-50.729l-27.708,-19.791Z" style="fill-rule:nonzero;"/></g><g id="kiko-book-open"><path d="M1811.52,1207.99c0.938,0.937 1.406,2.101 1.406,3.489l0,74.792c0,1.32 -0.468,2.465 -1.406,3.438c-0.937,0.972 -2.101,1.458 -3.489,1.458l-91.146,-0c-1.32,-0 -2.466,-0.486 -3.438,-1.458c-0.972,-0.973 -1.458,-2.118 -1.458,-3.438l-0,-74.792c-0,-1.388 0.486,-2.552 1.458,-3.489c0.972,-0.938 2.118,-1.406 3.438,-1.406l26.041,-0c3.82,-0 7.448,0.868 10.886,2.604c3.437,1.736 6.302,4.132 8.594,7.187c2.291,-3.055 5.173,-5.451 8.645,-7.187c3.473,-1.736 7.118,-2.604 10.938,-2.604l26.042,-0c1.388,-0 2.552,0.468 3.489,1.406Zm-36.875,10.26c-2.257,1.32 -4.045,3.108 -5.364,5.365c-1.32,2.257 -1.98,4.705 -1.98,7.344l0,35.833c4.445,-3.264 9.341,-4.896 14.688,-4.896l21.146,0l-0,-45.625l-21.146,0c-2.639,0 -5.087,0.66 -7.344,1.979Zm-31.719,43.646c5.348,0 10.243,1.632 14.688,4.896l-0,-35.833c-0,-2.639 -0.66,-5.087 -1.979,-7.344c-1.32,-2.257 -3.108,-4.045 -5.365,-5.365c-2.257,-1.319 -4.705,-1.979 -7.344,-1.979l-21.145,0l-0,45.625l21.145,0Zm8.49,12.448c-2.535,-1.771 -5.365,-2.656 -8.49,-2.656l-21.145,-0l-0,9.687l34.895,0c-0.972,-2.916 -2.725,-5.26 -5.26,-7.031Zm22.083,0c-2.534,1.771 -4.323,4.115 -5.364,7.031l35,0l-0,-9.687l-21.146,-0c-3.125,-0 -5.955,0.885 -8.49,2.656Z" style="fill-rule:nonzero;"/></g><g transform="matrix(41.6667,0,0,41.6667,237.775,250.505)"></g><text x="135.941px" y="250.505px" style="font-family:'HelveticaNeue', 'Helvetica Neue';font-size:41.667px;fill:#231f20;">Sales</text><g transform="matrix(41.6667,0,0,41.6667,274.441,482.178)"></g><text x="99.275px" y="482.178px" style="font-family:'HelveticaNeue', 'Helvetica Neue';font-size:41.667px;fill:#231f20;">Resear<tspan x="228.9px 251.275px " y="482.178px 482.178px ">ch</tspan></text><g transform="matrix(41.6667,0,0,41.6667,265.191,717.052)"></g><text x="108.525px" y="717.052px" style="font-family:'HelveticaNeue', 'Helvetica Neue';font-size:41.667px;fill:#231f20;">T<tspan x="128.608px 142.483px " y="717.052px 717.052px ">ra</tspan>cking</text><g transform="matrix(41.6667,0,0,41.6667,292.587,1357.2)"></g><text x="81.129px" y="1357.2px" style="font-family:'HelveticaNeue', 'Helvetica Neue';font-size:41.667px;fill:#231f20;">Experiment</text><g transform="matrix(41.6667,0,0,41.6667,1056.47,1172.33)"></g><text x="760.969px" y="1172.33px" style="font-family:'HelveticaNeue', 'Helvetica Neue';font-size:41.667px;fill:#231f20;">National Facility</text><g transform="matrix(41.6667,0,0,41.6667,1462.98,1087.62)"></g><text x="1208.36px" y="1087.62px" style="font-family:'HelveticaNeue', 'Helvetica Neue';font-size:41.667px;fill:#231f20;">Cor<tspan x="1275.48px 1297.86px " y="1087.62px 1087.62px ">e </tspan>Analysis</text><g transform="matrix(1,0,0,1,846.812,752.184)"><text x="378.018px" y="591.885px" style="font-family:'HelveticaNeue', 'Helvetica Neue';font-size:41.667px;fill:#231f20;">Additional</text><g transform="matrix(41.6667,0,0,41.6667,548.164,634.718)"></g><text x="394.623px" y="634.718px" style="font-family:'HelveticaNeue', 'Helvetica Neue';font-size:41.667px;fill:#231f20;">Analysis</text></g><g transform="matrix(1,0,0,1,840.162,1022.74)"><text x="351.108px" y="591.885px" style="font-family:'HelveticaNeue', 'Helvetica Neue';font-size:41.667px;fill:#231f20;">Time-Sensitive</text><g transform="matrix(41.6667,0,0,41.6667,551.754,634.718)"></g><text x="425.962px" y="634.718px" style="font-family:'HelveticaNeue', 'Helvetica Neue';font-size:41.667px;fill:#231f20;">Events</text></g><g transform="matrix(41.6667,0,0,41.6667,1882.6,1037.63)"></g><text x="1635.68px" y="1037.63px" style="font-family:'HelveticaNeue', 'Helvetica Neue';font-size:41.667px;fill:#231f20;">Data Release</text><g transform="matrix(41.6667,0,0,41.6667,1862.93,1359.78)"></g><text x="1655.35px" y="1359.78px" style="font-family:'HelveticaNeue', 'Helvetica Neue';font-size:41.667px;fill:#231f20;">Publication</text><g transform="matrix(41.6667,0,0,41.6667,1886.04,1646.12)"></g><text x="1632.25px" y="1646.12px" style="font-family:'HelveticaNeue', 'Helvetica Neue';font-size:41.667px;fill:#231f20;">W<tspan x="1668.45px 1690.83px " y="1646.12px 1646.12px ">eb</tspan> Services</text><g transform="matrix(41.6667,0,0,41.6667,1041.82,1498.23)"></g><text x="775.614px" y="1498.23px" style="font-family:'HelveticaNeue', 'Helvetica Neue';font-size:41.667px;fill:#231f20;">Local Clusters</text><g transform="matrix(1,0,0,1,69.0225,758.75)"><text x="382.743px" y="591.885px" style="font-family:'HelveticaNeue', 'Helvetica Neue';font-size:41.667px;fill:#231f20;">On-site</text><text x="323.681px" y="634.718px" style="font-family:'HelveticaNeue', 'Helvetica Neue';font-size:41.667px;fill:#231f20;">Compute and</text><g transform="matrix(41.6667,0,0,41.6667,524.347,677.552)"></g><text x="377.764px" y="677.552px" style="font-family:'HelveticaNeue', 'Helvetica Neue';font-size:41.667px;fill:#231f20;">Storage</text></g><g transform="matrix(1,0,0,1,243.347,-119.707)"><text x="387.63px" y="591.885px" style="font-family:'HelveticaNeue', 'Helvetica Neue';font-size:41.667px;fill:#231f20;">Data</text><g transform="matrix(41.6667,0,0,41.6667,535.421,634.718)"></g><text x="327.046px" y="634.718px" style="font-family:'HelveticaNeue', 'Helvetica Neue';font-size:41.667px;fill:#231f20;">W<tspan x="364.088px 386.463px 399.588px 421.963px " y="634.718px 634.718px 634.718px 634.718px ">areh</tspan>ouse</text></g><g transform="matrix(41.6667,0,0,41.6667,1225.5,346.442)"></g><text x="1071.96px" y="346.442px" style="font-family:'HelveticaNeue', 'Helvetica Neue';font-size:41.667px;fill:#231f20;">Analysis</text><g transform="matrix(41.6667,0,0,41.6667,1886.6,259.584)"></g><text x="1632.81px" y="259.584px" style="font-family:'HelveticaNeue', 'Helvetica Neue';font-size:41.667px;fill:#231f20;">W<tspan x="1669.02px 1691.4px " y="259.584px 259.584px ">eb</tspan> Services</text><g transform="matrix(41.6667,0,0,41.6667,1861.41,501.768)"></g><text x="1656.87px" y="501.768px" style="font-family:'HelveticaNeue', 'Helvetica Neue';font-size:41.667px;fill:#231f20;">Dashboar<tspan x="1836.7px " y="501.768px ">d</tspan></text><g transform="matrix(41.6667,0,0,41.6667,1832.83,720.839)"></g><text x="1685.45px" y="720.839px" style="font-family:'HelveticaNeue', 'Helvetica Neue';font-size:41.667px;fill:#231f20;">Reports</text><g transform="matrix(41.6667,0,0,41.6667,1212,651.492)"></g><text x="1085.46px" y="651.492px" style="font-family:'HelveticaNeue', 'Helvetica Neue';font-size:41.667px;fill:#231f20;">Egr<tspan x="1147.96px 1170.34px " y="651.492px 651.492px ">es</tspan>s</text><path d="M500.172,323.034l1.653,9.805l-9.806,1.653" style="fill:none;stroke:#231f20;stroke-width:3.13px;"/><path d="M290.387,182.405c0,0 190.816,135.763 211.438,150.434" style="fill:none;stroke:#231f20;stroke-width:3.13px;stroke-linejoin:round;stroke-miterlimit:1.5;"/><path d="M492.019,459.519l9.806,1.653l-1.653,9.806" style="fill:none;stroke:#231f20;stroke-width:3.13px;"/><path d="M290.387,611.606c0,0 190.816,-135.762 211.438,-150.434" style="fill:none;stroke:#231f20;stroke-width:3.13px;stroke-linejoin:round;stroke-miterlimit:1.5;"/><path d="M494.384,389.081l7.031,7.031l-7.031,7.031" style="fill:none;stroke:#231f20;stroke-width:3.13px;"/><path d="M290.387,396.112l211.028,-0" style="fill:none;stroke:#231f20;stroke-width:3.13px;stroke-linejoin:round;stroke-miterlimit:1.5;"/><path d="M422.999,1231.89l7.031,7.032l-7.031,7.031" style="fill:none;stroke:#231f20;stroke-width:3.13px;"/><path d="M290.387,1238.93l139.643,-0" style="fill:none;stroke:#231f20;stroke-width:3.13px;stroke-linejoin:round;stroke-miterlimit:1.5;"/><path d="M1038.05,255.862l9.364,3.346l-3.347,9.364" style="fill:none;stroke:#231f20;stroke-width:3.13px;"/><path d="M793.877,379.228c0,0 229.674,-108.723 253.537,-120.02" style="fill:none;stroke:#231f20;stroke-width:3.13px;stroke-linejoin:round;stroke-miterlimit:1.5;"/><path d="M693.657,255.516l-7.096,6.966l-6.966,-7.096" style="fill:none;stroke:#231f20;stroke-width:3.13px;"/><path d="M1049.41,213.838c-120.022,-70.402 -360.308,-88.84 -362.85,48.644" style="fill:none;stroke:#231f20;stroke-width:3.13px;stroke-linejoin:round;stroke-miterlimit:1.5;"/><path d="M1044.18,541.486l3.242,9.4l-9.401,3.242" style="fill:none;stroke:#231f20;stroke-width:3.13px;"/><path d="M793.921,427.387c0,-0 229.701,111.903 253.504,123.499" style="fill:none;stroke:#231f20;stroke-width:3.13px;stroke-linejoin:round;stroke-miterlimit:1.5;"/><path d="M1636.79,172.147l9.883,1.093l-1.092,9.883" style="fill:none;stroke:#231f20;stroke-width:3.13px;"/><path d="M1237,501.371c0,0 380.84,-305.032 409.679,-328.131" style="fill:none;stroke:#231f20;stroke-width:3.13px;stroke-linejoin:round;stroke-miterlimit:1.5;"/><path d="M1637.35,399.838l8.963,4.305l-4.305,8.963" style="fill:none;stroke:#231f20;stroke-width:3.13px;"/><path d="M1237,547.854c0,-0 377.821,-132.652 409.319,-143.711" style="fill:none;stroke:#231f20;stroke-width:3.13px;stroke-linejoin:round;stroke-miterlimit:1.5;"/><path d="M1640.09,629.976l6.117,7.84l-7.839,6.117" style="fill:none;stroke:#231f20;stroke-width:3.13px;"/><path d="M1237,587.318c0,-0 376.967,46.519 409.211,50.498" style="fill:none;stroke:#231f20;stroke-width:3.13px;stroke-linejoin:round;stroke-miterlimit:1.5;"/><g transform="matrix(41.6667,0,0,41.6667,1048.16,97.5423)"></g><g transform="matrix(41.6667,0,0,41.6667,1060.51,97.5423)"></g><g transform="matrix(41.6667,0,0,41.6667,1391.66,97.5423)"></g><text x="525.741px" y="97.542px" style="font-family:'HelveticaNeue-Italic', 'Helvetica Neue';font-style:italic;font-size:41.667px;fill:#828282;">Performed on owned or congurable har<tspan x="1278.2px 1302.91px " y="97.542px 97.542px ">dw</tspan>ar<tspan x="1369.28px " y="97.542px ">e</tspan></text><g transform="matrix(1,0,0,1,-765.749,-7.56324)"><text x="834.231px" y="1042.67px" style="font-family:'HelveticaNeue-Italic', 'Helvetica Neue';font-style:italic;font-size:41.667px;fill:#828282;">Performed on owned or</text><g transform="matrix(41.6667,0,0,41.6667,903.689,1085.5)"></g><g transform="matrix(41.6667,0,0,41.6667,916.046,1085.5)"></g><g transform="matrix(41.6667,0,0,41.6667,1247.19,1085.5)"></g><text x="834.231px" y="1085.5px" style="font-family:'HelveticaNeue-Italic', 'Helvetica Neue';font-style:italic;font-size:41.667px;fill:#828282;">congurable har<tspan x="1133.73px 1158.44px " y="1085.5px 1085.5px ">dw</tspan>ar<tspan x="1224.81px " y="1085.5px ">e</tspan></text></g><path d="M784.657,1070.02l9.827,1.521l-1.522,9.827" style="fill:none;stroke:#231f20;stroke-width:3.13px;"/><path d="M615.298,1202.68c-0,0 160.428,-117.412 179.186,-131.14" style="fill:none;stroke:#231f20;stroke-width:3.13px;stroke-linejoin:round;stroke-miterlimit:1.5;"/><path d="M792.962,1360.24l1.522,9.827l-9.827,1.521" style="fill:none;stroke:#231f20;stroke-width:3.13px;"/><path d="M615.298,1238.93c-0,-0 160.428,117.412 179.186,131.14" style="fill:none;stroke:#231f20;stroke-width:3.13px;stroke-linejoin:round;stroke-miterlimit:1.5;"/><path d="M1223.99,971.349l8.963,4.304l-4.304,8.964" style="fill:none;stroke:#231f20;stroke-width:3.13px;"/><path d="M1048.82,1040.31c-0,-0 163.703,-57.482 184.133,-64.656" style="fill:none;stroke:#231f20;stroke-width:3.13px;stroke-linejoin:round;stroke-miterlimit:1.5;"/><path d="M1232.73,1222.41l0.643,9.922l-9.923,0.643" style="fill:none;stroke:#231f20;stroke-width:3.13px;"/><path d="M1048.82,1070.23c-0,-0 166.103,145.891 184.558,162.1" style="fill:none;stroke:#231f20;stroke-width:3.13px;stroke-linejoin:round;stroke-miterlimit:1.5;"/><path d="M1223.74,1268.59l9.27,3.598l-3.597,9.27" style="fill:none;stroke:#231f20;stroke-width:3.13px;"/><path d="M1008.01,1371.37c-0,-0 202.513,-89.273 225.001,-99.187" style="fill:none;stroke:#231f20;stroke-width:3.13px;stroke-linejoin:round;stroke-miterlimit:1.5;"/><path d="M1619.54,931.238l8.309,5.462l-5.461,8.309" style="fill:none;stroke:#231f20;stroke-width:3.12px;"/><path d="M1443.03,974.921c-0,0 164,-33.916 184.817,-38.221" style="fill:none;stroke:#231f20;stroke-width:3.12px;stroke-linejoin:round;stroke-miterlimit:1.5;"/><path d="M1618.68,977.471l9.907,-0.858l0.858,9.906" style="fill:none;stroke:#231f20;stroke-width:3.13px;"/><path d="M1443.03,1197.39c-0,-0 168.315,-200.257 185.56,-220.774" style="fill:none;stroke:#231f20;stroke-width:3.13px;stroke-linejoin:round;stroke-miterlimit:1.5;"/><path d="M1656.02,1222.25l-0.269,9.94l-9.94,-0.269" style="fill:none;stroke:#231f20;stroke-width:3.13px;"/><path d="M1443.03,1007.62c-0,0 193.579,204.364 212.723,224.573" style="fill:none;stroke:#231f20;stroke-width:3.13px;stroke-linejoin:round;stroke-miterlimit:1.5;"/><path d="M1648.79,1263.36l6.283,7.708l-7.707,6.282" style="fill:none;stroke:#231f20;stroke-width:3.13px;"/><path d="M1443.03,1249.48c-0,-0 189.432,19.291 212.044,21.594" style="fill:none;stroke:#231f20;stroke-width:3.13px;stroke-linejoin:round;stroke-miterlimit:1.5;"/><path d="M1648.88,1531.39l6.194,7.78l-7.78,6.193" style="fill:none;stroke:#231f20;stroke-width:3.13px;"/><path d="M1443.03,1515.1c-0,-0 189.447,21.502 212.047,24.067" style="fill:none;stroke:#231f20;stroke-width:3.13px;stroke-linejoin:round;stroke-miterlimit:1.5;"/><path d="M1655.37,1483.54l0.289,9.94l-9.939,0.289" style="fill:none;stroke:#231f20;stroke-width:3.13px;"/><path d="M1443.03,1292.87c-0,0 192.997,182.08 212.635,200.608" style="fill:none;stroke:#231f20;stroke-width:3.13px;stroke-linejoin:round;stroke-miterlimit:1.5;"/><path d="M1200.85,1532.38l7.031,7.031l-7.031,7.031" style="fill:none;stroke:#231f20;stroke-width:3.13px;"/><path d="M523.773,1463.88l-0,75.533l684.109,-0" style="fill:none;stroke:#231f20;stroke-width:3.13px;stroke-linejoin:round;stroke-miterlimit:1.5;"/><path d="M-2,832.287l1950,0" style="fill:none;stroke:#231f20;stroke-width:3.13px;stroke-linecap:butt;stroke-linejoin:round;stroke-miterlimit:1.5;stroke-dasharray:6.25,6.25,0,0,0,0;"/></svg>