<?xml version="1.0" encoding="UTF-8" standalone="no"?>
<!DOCTYPE svg PUBLIC "-//W3C//DTD SVG 1.1//EN" "http://www.w3.org/Graphics/SVG/1.1/DTD/svg11.dtd">
<svg width="100%" height="100%" viewBox="0 0 1953 744" version="1.1" xmlns="http://www.w3.org/2000/svg" xmlns:xlink="http://www.w3.org/1999/xlink" xml:space="preserve" xmlns:serif="http://www.serif.com/" style="fill-rule:evenodd;clip-rule:evenodd;stroke-miterlimit:10;">
    <g transform="matrix(1,0,0,1,-300,-298)">
        <g transform="matrix(0.921464,0,0,0.978254,76.7912,-85.5094)">
            <path d="M1300.33,434.021L1300.33,1129.82C1300.33,1138.29 1293.04,1145.16 1284.05,1145.16L600.186,1145.16C591.202,1145.16 583.908,1138.29 583.908,1129.82L583.908,434.021C583.908,425.558 591.202,418.687 600.186,418.687L1284.05,418.687C1293.04,418.687 1300.33,425.558 1300.33,434.021Z" style="fill:rgb(233,233,233);"/>
        </g>
        <g id="kiko-shopping-basket" transform="matrix(0.104167,0,0,0.104167,739.974,790.122)">
            <path d="M1041.5,266.5C1059.83,284.833 1069,307 1069,333L1069,473C1069,485.667 1064.5,496.667 1055.5,506C1046.5,515.333 1035.33,520 1022,520L1000,520L954,816C949.333,848 934.833,874.5 910.5,895.5C886.167,916.5 858,926.667 826,926L344,926C311.333,926.667 282.833,916.5 258.5,895.5C234.167,874.5 219.667,848 215,816L169,520L147,520C134.333,520 123.333,515.333 114,506C104.667,496.667 100,485.667 100,473L100,333C100,307 109.167,284.833 127.5,266.5C145.833,248.167 168,239 194,239L315,239L458,96C467.333,86.667 478.333,82 491,82C503.667,82 514.667,86.667 524,96C533.333,105.333 538,116.333 538,129C538,141 533.333,152.333 524,163L448,239L721,239L645,163C636.333,153.667 632,142.333 632,129C632,115.667 636.333,104.667 645,96C655.667,86.667 667,82 679,82C691.667,82 702.667,86.667 712,96L854,239L975,239C1001,239 1023.17,248.167 1041.5,266.5ZM975,426L975,333L194,333L194,426L975,426ZM308,802C308.667,810.667 312.5,818 319.5,824C326.5,830 334.667,833 344,833L826,833C834.667,833 842.5,830.167 849.5,824.5C856.5,818.833 860.667,811.333 862,802L905,520L264,520L308,802ZM645,756C654.333,765.333 665.333,770 678,770C691.333,770 702.5,765.333 711.5,756C720.5,746.667 725,735.667 725,723L725,630C725,616.667 720.5,605.5 711.5,596.5C702.5,587.5 691.333,583 678,583C665.333,583 654.333,587.5 645,596.5C635.667,605.5 631,616.667 631,630L631,723C631,735.667 635.667,746.667 645,756ZM427,756C436.333,765.333 447.333,770 460,770C472.667,770 483.5,765.333 492.5,756C501.5,746.667 506,735.667 506,723L506,630C506,617.333 501.5,606.333 492.5,597C483.5,587.667 472.667,583 460,583C447.333,583 436.333,587.5 427,596.5C417.667,605.5 413,616.667 413,630L413,723C413,735.667 417.667,746.667 427,756Z" style="fill-rule:nonzero;"/>
        </g>
        <g transform="matrix(0.58406,0,0,0.0662742,394.666,272.252)">
            <path d="M1300.33,645.02L1300.33,918.824C1300.33,1043.74 1288.82,1145.16 1274.65,1145.16L609.59,1145.16C595.416,1145.16 583.908,1043.74 583.908,918.824L583.908,645.02C583.908,520.103 595.416,418.687 609.59,418.687L1274.65,418.687C1288.82,418.687 1300.33,520.103 1300.33,645.02Z" style="fill:white;"/>
        </g>
        <g transform="matrix(0.921464,0,0,0.978254,1051.79,-85.5094)">
            <path d="M1300.33,434.021L1300.33,1129.82C1300.33,1138.29 1293.04,1145.16 1284.05,1145.16L600.186,1145.16C591.202,1145.16 583.908,1138.29 583.908,1129.82L583.908,434.021C583.908,425.558 591.202,418.687 600.186,418.687L1284.05,418.687C1293.04,418.687 1300.33,425.558 1300.33,434.021Z" style="fill:rgb(233,233,233);"/>
        </g>
        <g transform="matrix(0.638574,0,0,0.0662742,1318.31,272.252)">
            <path d="M1300.33,645.02L1300.33,918.824C1300.33,1043.74 1289.81,1145.16 1276.84,1145.16L607.398,1145.16C594.433,1145.16 583.908,1043.74 583.908,918.824L583.908,645.02C583.908,520.103 594.433,418.687 607.398,418.687L1276.84,418.687C1289.81,418.687 1300.33,520.103 1300.33,645.02Z" style="fill:white;"/>
        </g>
        <g transform="matrix(1,0,0,1,-22.8219,-1806.28)">
            <g transform="matrix(1,-0,-0,1,322.822,2104.28)">
                <path d="M1431.45,469.084L1430.72,478.336L1421.47,477.608" style="fill:none;stroke:rgb(255,111,0);stroke-width:2.92px;"/>
                <path d="M907.642,282.913C1114.85,253.021 1290.45,314.582 1430.72,478.336" style="fill:none;stroke:rgb(255,111,0);stroke-width:2.92px;stroke-linejoin:round;stroke-miterlimit:1.5;stroke-dasharray:5.83,5.83,0,0,0,0;"/>
            </g>
        </g>
        <g id="kiko-literature" transform="matrix(0.104167,0,0,0.104167,894.715,370.865)">
            <path d="M899.5,779.5C891.167,788.5 880.667,793.333 868,794C854,813.333 848,834.333 850,857C848,879 854,899.667 868,919C880.667,920.333 891,925.667 899,935C907,944.333 910.667,955.333 910,968C909.333,980 904.833,990.333 896.5,999C888.167,1007.67 877.667,1012.33 865,1013L256,1013C219.333,1013 186.667,1001.5 158,978.5C129.333,955.5 111,926.333 103,891C101,885 100,878.667 100,872L100,201C100,172.333 107,146 121,122C135,98 154,79 178,65C202,51 228,44 256,44L290,44C293.333,34.667 299,27.167 307,21.5C315,15.833 324,13 334,13L522,13C531.333,13 540.167,15.833 548.5,21.5C556.833,27.167 562.667,34.667 566,44L865,44C878.333,44 889.5,48.5 898.5,57.5C907.5,66.5 912,77.667 912,91L912,747C912,759.667 907.833,770.5 899.5,779.5ZM428,482C434.667,482 439.667,482.667 443,484L475,495L475,107L381,107L381,495L413,484C416.333,482.667 421.333,482 428,482ZM756,856C756,836 758.667,815.333 764,794L256,794C238.667,794 224,800.167 212,812.5C200,824.833 194,839.667 194,857C193.333,873.667 199.167,888.167 211.5,900.5C223.833,912.833 238.667,919 256,919L764,919C758.667,896.333 756,875.333 756,856ZM568,560C569.333,575.333 563,588 549,598C541,604 532,607 522,607C516.667,607 511.667,606 507,604L428,578L349,604C344.333,606 339.333,607 334,607C324,607 315,604 307,598C293.667,588.667 287,576 287,560L287,138L256,138C238.667,138 224,144 212,156C200,168 194,182.667 194,200L194,714C214,704.667 234.667,700 256,700L819,700L819,138L569,138L568,560Z" style="fill-rule:nonzero;"/>
        </g>
        <g id="kiko-literature1" serif:id="kiko-literature" transform="matrix(0.104167,0,0,0.104167,1868.05,365.691)">
            <path d="M899.5,779.5C891.167,788.5 880.667,793.333 868,794C854,813.333 848,834.333 850,857C848,879 854,899.667 868,919C880.667,920.333 891,925.667 899,935C907,944.333 910.667,955.333 910,968C909.333,980 904.833,990.333 896.5,999C888.167,1007.67 877.667,1012.33 865,1013L256,1013C219.333,1013 186.667,1001.5 158,978.5C129.333,955.5 111,926.333 103,891C101,885 100,878.667 100,872L100,201C100,172.333 107,146 121,122C135,98 154,79 178,65C202,51 228,44 256,44L290,44C293.333,34.667 299,27.167 307,21.5C315,15.833 324,13 334,13L522,13C531.333,13 540.167,15.833 548.5,21.5C556.833,27.167 562.667,34.667 566,44L865,44C878.333,44 889.5,48.5 898.5,57.5C907.5,66.5 912,77.667 912,91L912,747C912,759.667 907.833,770.5 899.5,779.5ZM428,482C434.667,482 439.667,482.667 443,484L475,495L475,107L381,107L381,495L413,484C416.333,482.667 421.333,482 428,482ZM756,856C756,836 758.667,815.333 764,794L256,794C238.667,794 224,800.167 212,812.5C200,824.833 194,839.667 194,857C193.333,873.667 199.167,888.167 211.5,900.5C223.833,912.833 238.667,919 256,919L764,919C758.667,896.333 756,875.333 756,856ZM568,560C569.333,575.333 563,588 549,598C541,604 532,607 522,607C516.667,607 511.667,606 507,604L428,578L349,604C344.333,606 339.333,607 334,607C324,607 315,604 307,598C293.667,588.667 287,576 287,560L287,138L256,138C238.667,138 224,144 212,156C200,168 194,182.667 194,200L194,714C214,704.667 234.667,700 256,700L819,700L819,138L569,138L568,560Z" style="fill-rule:nonzero;"/>
        </g>
        <g id="kiko-layers" transform="matrix(0.104167,0,0,0.104167,1059.59,540.104)">
            <path d="M1092.5,538C1087.5,546 1081,551.667 1073,555L905,634L1073,712C1081,716 1087.5,721.833 1092.5,729.5C1097.5,737.167 1100,745.667 1100,755C1100,763.667 1097.5,771.833 1092.5,779.5C1087.5,787.167 1081,793 1073,797L620,1009C612,1011.67 605.333,1013 600,1013C596,1013 589.333,1011.67 580,1009L127,797C119,793 112.5,787.167 107.5,779.5C102.5,771.833 100,763.667 100,755C100,745.667 102.5,737.167 107.5,729.5C112.5,721.833 119,716 127,712L295,634L127,555C119,551.667 112.5,546 107.5,538C102.5,530 100,521.667 100,513C100,504.333 102.5,496 107.5,488C112.5,480 119,474.333 127,471L295,392L127,314C119,310 112.5,304.167 107.5,296.5C102.5,288.833 100,280.333 100,271C100,262.333 102.5,254.167 107.5,246.5C112.5,238.833 119,233 127,229L580,17C586,14.333 592.667,13 600,13C608,13 614.667,14.333 620,17L1073,229C1081,233 1087.5,238.833 1092.5,246.5C1097.5,254.167 1100,262.333 1100,271C1100,280.333 1097.5,288.833 1092.5,296.5C1087.5,304.167 1081,310 1073,314L905,392L1073,471C1081,474.333 1087.5,480 1092.5,488C1097.5,496 1100,504.333 1100,513C1100,521.667 1097.5,530 1092.5,538ZM600,431L942,271L600,112L258,271L600,431ZM600,771C592.667,771 586,769.667 580,767L406,686L258,755L600,914L942,755L794,686L620,767C614.667,769.667 608,771 600,771ZM620,525C614.667,527.667 608,529 600,529C592.667,529 586,527.667 580,525L406,444L258,513L600,673L942,513L794,444L620,525Z" style="fill-rule:nonzero;"/>
        </g>
        <g id="kiko-physics" transform="matrix(0.104167,0,0,0.104167,396.345,638.954)">
            <path d="M986,725C986,669 931.667,598.333 823,513C931.667,426.333 986,355.667 986,301C986,287 982.667,274.333 976,263C959.333,235 928.333,221 883,221C829.667,221 766.167,236.167 692.5,266.5C618.833,296.833 550.333,329.667 487,365C492.333,303 500.333,250.167 511,206.5C521.667,162.833 532.333,132.333 543,115C556.333,140.333 566,165.333 572,190C574.667,200.667 580.167,209.167 588.5,215.5C596.833,221.833 606.333,225 617,225C629.667,225 640.667,220.333 650,211C659.333,201.667 664,190.667 664,178C664,175.333 663.333,171.333 662,166C651.333,127.333 637.333,92.167 620,60.5C602.667,28.833 577,13 543,13C490.333,13 452.667,56.167 430,142.5C407.333,228.833 393.667,322.667 389,424C383,428 367.333,438.333 342,455C286,417.667 238.333,371 199,315C224.333,315 251,319.333 279,328C281.667,328.667 286,329 292,329C304.667,329 315.667,324.333 325,315C334.333,305.667 339,294.667 339,282C339,271.333 335.667,262 329,254C322.333,246 314,240.333 304,237C284.667,232.333 267.5,228.5 252.5,225.5C237.5,222.5 221.333,221 204,221C158,221 127,235 111,263C103.667,275.667 100,288.667 100,302C100,357.333 154.333,427.667 263,513C215,550.333 176,587.167 146,623.5C116,659.833 101,693.333 101,724C101,738.667 104.333,751.667 111,763C121,777.667 134.333,788.833 151,796.5C167.667,804.167 185.333,807 204,805C239.333,804.333 274.667,798.333 310,787C320,784.333 328.333,778.833 335,770.5C341.667,762.167 345,752.667 345,742C345,728.667 340.5,717.5 331.5,708.5C322.5,699.5 311.333,695 298,695C295.333,695 290.667,695.667 284,697C257.333,705.667 229,710.667 199,712C212.333,686.667 246.167,650.667 300.5,604C354.833,557.333 425.333,509 512,459C598.667,409 675.833,372 743.5,348C811.167,324 859,312.667 887,314C879,328.667 863.5,348 840.5,372C817.5,396 785.333,423.667 744,455C742,453.667 733.667,448.333 719,439C713,433.667 704.667,431 694,431C681.333,431 670.333,435.5 661,444.5C651.667,453.5 647,464.667 647,478C647,485.333 648.833,492.5 652.5,499.5C656.167,506.5 661.333,512.333 668,517C730.667,558.333 780.167,596.167 816.5,630.5C852.833,664.833 876.333,692 887,712C864.333,712 829.167,704.833 781.5,690.5C733.833,676.167 676.667,652.667 610,620C603.333,616.667 596.667,615 590,615C577.333,615 566.333,619.5 557,628.5C547.667,637.5 543,648.667 543,662C543,670.667 545.333,678.833 550,686.5C554.667,694.167 561,700 569,704L593,716C587,768 579.333,810.167 570,842.5C560.667,874.833 551.667,897.667 543,911C531.667,892.333 520.333,859.667 509,813C497.667,766.333 489.667,707 485,635C484.333,622.333 479.5,611.833 470.5,603.5C461.5,595.167 450.667,591 438,591C425.333,591 414.333,595.5 405,604.5C395.667,613.5 391,624.333 391,637L391,642C398.333,738.667 413.333,824.667 436,900C458.667,975.333 494.333,1013 543,1013C611,1013 657.667,927 683,755C746.333,783 813,799.667 883,805C901,807 918.333,804.167 935,796.5C951.667,788.833 965.333,777.667 976,763C982.667,751.667 986,739 986,725Z" style="fill-rule:nonzero;"/>
        </g>
        <g transform="matrix(1,0,0,1,-124.648,-682.296)">
            <text x="471.826px" y="1478.71px" style="font-family:'HelveticaNeue', 'Helvetica Neue';font-size:41.667px;fill:rgb(35,31,32);">Experiment</text>
            <g transform="matrix(41.6667,0,0,41.6667,621.16,1521.54)">
            </g>
            <text x="533.951px" y="1521.54px" style="font-family:'HelveticaNeue', 'Helvetica Neue';font-size:41.667px;fill:rgb(35,31,32);">Data</text>
        </g>
        <g transform="matrix(1,0,0,1,544.537,-779.551)">
            <g transform="matrix(41.6667,0,0,41.6667,678.66,1478.71)">
            </g>
            <text x="476.451px" y="1478.71px" style="font-family:'HelveticaNeue', 'Helvetica Neue';font-size:41.667px;fill:rgb(35,31,32);">Main Stor<tspan x="656.285px " y="1478.71px ">e</tspan></text>
        </g>
        <g transform="matrix(1,0,0,1,544.537,-525.164)">
            <g transform="matrix(41.6667,0,0,41.6667,677.139,1478.71)">
            </g>
            <text x="477.972px" y="1478.71px" style="font-family:'HelveticaNeue', 'Helvetica Neue';font-size:41.667px;fill:rgb(35,31,32);">Checksum</text>
        </g>
        <g id="kiko-question" transform="matrix(0.104167,0,0,0.104167,1077.5,798.766)">
            <path d="M498.5,751C520.167,763.667 537.333,780.667 550,802C562.667,823.333 569,846.667 569,872C569,897.333 562.667,920.833 550,942.5C537.333,964.167 520.167,981.333 498.5,994C476.833,1006.67 453.333,1013 428,1013C402.667,1013 379.167,1006.67 357.5,994C335.833,981.333 318.667,964.167 306,942.5C293.333,920.833 287,897.333 287,872C287,846.667 293.333,823.333 306,802C318.667,780.667 335.833,763.667 357.5,751C379.167,738.333 402.667,732 428,732C453.333,732 476.833,738.333 498.5,751ZM461.5,905C470.5,895.667 475,884.667 475,872C475,858.667 470.5,847.5 461.5,838.5C452.5,829.5 441.333,825 428,825C415.333,825 404.333,829.5 395,838.5C385.667,847.5 381,858.667 381,872C381,884.667 385.667,895.667 395,905C404.333,914.333 415.333,919 428,919C441.333,919 452.5,914.333 461.5,905ZM594.5,59.5C642.167,88.5 680.333,126.667 709,174C737.667,221.333 753.333,273.333 756,330C758,392 743.667,450 713,504C682.333,558 639.667,599.667 585,629C574.333,634.333 569,642.333 569,653C569,665.667 564.5,676.667 555.5,686C546.5,695.333 535.333,700 522,700L334,700C320.667,700 309.5,695.5 300.5,686.5C291.5,677.5 287,666.667 287,654L287,597C287,551 303.667,508.833 337,470.5C370.333,432.167 410.333,401 457,377C467,371 472.667,362.333 474,351C474.667,349 475,345.667 475,341C475,326.333 469,314 457,304C449.667,297.333 440.333,294 429,294C423,294 416,295.667 408,299C399.333,303 392.667,308.667 388,316C383.333,323.333 381,331.667 381,341C381,353.667 376.5,364.667 367.5,374C358.5,383.333 347.333,388 334,388L147,388C134.333,388 123.333,383.333 114,374C104.667,364.667 100,353.667 100,341C100,296.333 108.667,253.833 126,213.5C143.333,173.167 168,137.333 200,106C231.333,75.333 267.667,51.833 309,35.5C350.333,19.167 393.333,11.667 438,13C494.667,15 546.833,30.5 594.5,59.5ZM632,457.5C654,419.167 664,377.667 662,333C660.667,292.333 649.667,255.167 629,221.5C608.333,187.833 581,160.667 547,140C513,119.333 475.667,108.333 435,107C397.667,106.333 362.167,113.833 328.5,129.5C294.833,145.167 266.5,167.333 243.5,196C220.5,224.667 205.333,257.333 198,294L295,294C305.667,265.333 323,242.5 347,225.5C371,208.5 397.667,200 427,200C441.667,200 454.333,201.667 465,205C496.333,213.667 521.5,230.5 540.5,255.5C559.5,280.5 569,308.667 569,340C569,349.333 568,359 566,369C562.667,388.333 555.167,406.167 543.5,422.5C531.833,438.833 517.333,451.667 500,461C471.333,475.667 444.333,495.333 419,520C393.667,544.667 381,570.333 381,597L381,607L485,607C496.333,580.333 514.667,560.333 540,547C579.333,525.667 610,495.833 632,457.5Z" style="fill-rule:nonzero;"/>
        </g>
        <g transform="matrix(1,0,0,1,214.458,-527.633)">
            <g transform="matrix(41.6667,0,0,41.6667,697.16,1478.71)">
            </g>
            <text x="457.951px" y="1478.71px" style="font-family:'HelveticaNeue', 'Helvetica Neue';font-size:41.667px;fill:rgb(35,31,32);">Staging Ar<tspan x="652.41px 674.785px " y="1478.71px 1478.71px ">ea</tspan></text>
        </g>
        <g transform="matrix(1,0,0,1,311.055,-1141.89)">
            <g transform="matrix(41.6667,0,0,41.6667,800.723,1478.71)">
            </g>
            <text x="472.015px" y="1478.71px" style="font-family:'HelveticaNeue-Bold', 'Helvetica Neue';font-weight:700;font-size:41.667px;fill:rgb(35,31,32);">Sour<tspan x="564.681px 588.598px " y="1478.71px 1478.71px ">ce</tspan> Librarian</text>
        </g>
        <g transform="matrix(1,0,0,1,1283.55,-1141.89)">
            <g transform="matrix(41.6667,0,0,41.6667,843.869,1478.71)">
            </g>
            <text x="428.869px" y="1478.71px" style="font-family:'HelveticaNeue-Bold', 'Helvetica Neue';font-weight:700;font-size:41.667px;fill:rgb(35,31,32);">Destination Librarian</text>
        </g>
        <g transform="matrix(1.30443,0.208596,-0.208596,-1.14293,2.8005,1495.62)">
            <g transform="matrix(0.789667,0.144122,-0.144122,-0.901246,407.292,1122.18)">
                <path d="M427.263,523.519L428.967,532.642L419.844,534.346" style="fill:none;stroke:rgb(0,146,128);stroke-width:2.92px;stroke-linecap:round;"/>
                <path d="M235.82,400.295C235.82,400.295 409.837,519.534 428.967,532.642" style="fill:none;stroke:rgb(0,146,128);stroke-width:2.92px;stroke-linecap:round;stroke-linejoin:round;stroke-miterlimit:1.5;"/>
            </g>
        </g>
        <g transform="matrix(1,0,0,1,0,-1793.66)">
            <g transform="matrix(1,-0,-0,1,300,2091.66)">
                <path d="M555.751,107.504L564.858,109.294L563.068,118.4" style="fill:none;stroke:rgb(0,146,128);stroke-width:2.92px;stroke-linecap:round;"/>
                <path d="M235.82,330.26C235.82,330.26 539.285,126.467 564.858,109.294" style="fill:none;stroke:rgb(0,146,128);stroke-width:2.92px;stroke-linecap:round;stroke-linejoin:round;stroke-miterlimit:1.5;"/>
            </g>
        </g>
        <g transform="matrix(0.474735,-0.313395,0.47564,0.720507,-654.026,-1028.8)">
            <rect x="374.998" y="2326.37" width="198.927" height="51.914" style="fill:rgb(235,233,232);"/>
        </g>
        <g transform="matrix(1,0,0,1,0,-1723.62)">
            <g transform="matrix(1,-0,-0,1,300,2021.62)">
                <path d="M555.751,177.54L564.858,179.329L563.068,188.436" style="fill:none;stroke:rgb(0,146,128);stroke-width:2.92px;stroke-linecap:round;"/>
                <path d="M235.82,400.295C235.82,400.295 539.285,196.503 564.858,179.329" style="fill:none;stroke:rgb(0,146,128);stroke-width:2.92px;stroke-linecap:round;stroke-linejoin:round;stroke-miterlimit:1.5;"/>
            </g>
        </g>
        <g transform="matrix(1,0,0,1,0,-1793.66)">
            <g transform="matrix(1,-0,-0,1,300,2091.66)">
                <path d="M246.638,364.702L237.532,362.909L239.326,353.803" style="fill:none;stroke:rgb(0,146,128);stroke-width:2.92px;stroke-linecap:round;"/>
                <path d="M566.57,142.161C566.57,142.161 263.109,345.749 237.532,362.909" style="fill:none;stroke:rgb(0,146,128);stroke-width:2.92px;stroke-linecap:round;stroke-linejoin:round;stroke-miterlimit:1.5;"/>
            </g>
        </g>
        <g transform="matrix(0.834553,-0.550927,0.550927,0.834553,-1004.73,-1180.06)">
            <g transform="matrix(33.3333,0,0,33.3333,527.26,2359.02)">
            </g>
            <text x="427.162px" y="2359.02px" style="font-family:'Helvetica-Oblique', 'Helvetica';font-style:italic;font-size:33.333px;fill:rgb(35,31,32);">upload</text>
        </g>
        <g transform="matrix(0.478451,-0.307693,0.466986,0.726146,-564.007,-1052.67)">
            <rect x="374.998" y="2326.37" width="198.927" height="51.914" style="fill:rgb(235,233,232);"/>
        </g>
        <g transform="matrix(0.841085,-0.540903,0.540903,0.841085,-912.872,-1208.12)">
            <g transform="matrix(33.3333,0,0,33.3333,517.982,2359.02)">
            </g>
            <text x="436.439px" y="2359.02px" style="font-family:'Helvetica-Oblique', 'Helvetica';font-style:italic;font-size:33.333px;fill:rgb(35,31,32);">stage</text>
        </g>
        <g transform="matrix(0.667377,-0.448617,0.481644,0.716508,-739.074,-887.993)">
            <rect x="374.998" y="2326.37" width="198.927" height="51.914" style="fill:rgb(235,233,232);"/>
        </g>
        <g transform="matrix(0.829921,-0.557881,0.557881,0.829921,-998.374,-1098.6)">
            <g transform="matrix(33.3333,0,0,33.3333,544.838,2359.02)">
            </g>
            <text x="409.584px" y="2359.02px" style="font-family:'Helvetica-Oblique', 'Helvetica';font-style:italic;font-size:33.333px;fill:rgb(35,31,32);">complete</text>
        </g>
        <g transform="matrix(1,0,0,1,-20,-1793.66)">
            <g transform="matrix(1,-0,-0,1,320,2091.66)">
                <path d="M514.93,471.86L506.261,475.172L502.949,466.502" style="fill:none;stroke:rgb(0,146,128);stroke-width:2.92px;stroke-linecap:round;"/>
                <path d="M624.921,209.843C624.921,209.843 516.906,451.368 506.261,475.172" style="fill:none;stroke:rgb(0,146,128);stroke-width:2.92px;stroke-linecap:round;stroke-linejoin:round;stroke-miterlimit:1.5;"/>
            </g>
        </g>
        <g transform="matrix(1,0,0,1,942.868,-1793.66)">
            <g transform="matrix(1,-0,-0,1,-642.868,2091.66)">
                <path d="M1477.8,471.86L1469.13,475.172L1465.82,466.502" style="fill:none;stroke:rgb(255,111,0);stroke-width:2.92px;stroke-linecap:round;"/>
                <path d="M1587.79,209.843C1587.79,209.843 1479.77,451.368 1469.13,475.172" style="fill:none;stroke:rgb(255,111,0);stroke-width:2.92px;stroke-linecap:round;stroke-linejoin:round;stroke-miterlimit:1.5;"/>
            </g>
        </g>
        <g transform="matrix(1.40152,0,0,1,-376.088,-1793.66)">
            <g transform="matrix(0.713509,-0,-0,1,482.395,2091.66)">
                <path d="M756.904,547.633L763.467,554.196L756.904,560.758" style="fill:none;stroke:rgb(0,146,128);stroke-width:2.92px;stroke-linecap:round;"/>
                <path d="M582.222,554.196L763.467,554.196" style="fill:none;stroke:rgb(0,146,128);stroke-width:2.92px;stroke-linecap:round;stroke-linejoin:round;stroke-miterlimit:1.5;"/>
            </g>
        </g>
        <g transform="matrix(1,0,0,1,0,-1787.66)">
            <g transform="matrix(1,-0,-0,1,300,2085.66)">
                <path d="M818.054,438.459L824.617,431.896L831.179,438.459" style="fill:none;stroke:rgb(0,146,128);stroke-width:2.92px;stroke-linecap:round;"/>
                <path d="M824.617,477.168L824.617,431.896" style="fill:none;stroke:rgb(0,146,128);stroke-width:2.92px;stroke-linecap:round;stroke-linejoin:round;stroke-miterlimit:1.5;"/>
            </g>
        </g>
        <g id="kiko-shopping-basket1" serif:id="kiko-shopping-basket" transform="matrix(0.104167,0,0,0.104167,1702.84,790.122)">
            <path d="M1041.5,266.5C1059.83,284.833 1069,307 1069,333L1069,473C1069,485.667 1064.5,496.667 1055.5,506C1046.5,515.333 1035.33,520 1022,520L1000,520L954,816C949.333,848 934.833,874.5 910.5,895.5C886.167,916.5 858,926.667 826,926L344,926C311.333,926.667 282.833,916.5 258.5,895.5C234.167,874.5 219.667,848 215,816L169,520L147,520C134.333,520 123.333,515.333 114,506C104.667,496.667 100,485.667 100,473L100,333C100,307 109.167,284.833 127.5,266.5C145.833,248.167 168,239 194,239L315,239L458,96C467.333,86.667 478.333,82 491,82C503.667,82 514.667,86.667 524,96C533.333,105.333 538,116.333 538,129C538,141 533.333,152.333 524,163L448,239L721,239L645,163C636.333,153.667 632,142.333 632,129C632,115.667 636.333,104.667 645,96C655.667,86.667 667,82 679,82C691.667,82 702.667,86.667 712,96L854,239L975,239C1001,239 1023.17,248.167 1041.5,266.5ZM975,426L975,333L194,333L194,426L975,426ZM308,802C308.667,810.667 312.5,818 319.5,824C326.5,830 334.667,833 344,833L826,833C834.667,833 842.5,830.167 849.5,824.5C856.5,818.833 860.667,811.333 862,802L905,520L264,520L308,802ZM645,756C654.333,765.333 665.333,770 678,770C691.333,770 702.5,765.333 711.5,756C720.5,746.667 725,735.667 725,723L725,630C725,616.667 720.5,605.5 711.5,596.5C702.5,587.5 691.333,583 678,583C665.333,583 654.333,587.5 645,596.5C635.667,605.5 631,616.667 631,630L631,723C631,735.667 635.667,746.667 645,756ZM427,756C436.333,765.333 447.333,770 460,770C472.667,770 483.5,765.333 492.5,756C501.5,746.667 506,735.667 506,723L506,630C506,617.333 501.5,606.333 492.5,597C483.5,587.667 472.667,583 460,583C447.333,583 436.333,587.5 427,596.5C417.667,605.5 413,616.667 413,630L413,723C413,735.667 417.667,746.667 427,756Z" style="fill-rule:nonzero;"/>
        </g>
        <g id="kiko-layers1" serif:id="kiko-layers" transform="matrix(0.104167,0,0,0.104167,2022.46,540.104)">
            <path d="M1092.5,538C1087.5,546 1081,551.667 1073,555L905,634L1073,712C1081,716 1087.5,721.833 1092.5,729.5C1097.5,737.167 1100,745.667 1100,755C1100,763.667 1097.5,771.833 1092.5,779.5C1087.5,787.167 1081,793 1073,797L620,1009C612,1011.67 605.333,1013 600,1013C596,1013 589.333,1011.67 580,1009L127,797C119,793 112.5,787.167 107.5,779.5C102.5,771.833 100,763.667 100,755C100,745.667 102.5,737.167 107.5,729.5C112.5,721.833 119,716 127,712L295,634L127,555C119,551.667 112.5,546 107.5,538C102.5,530 100,521.667 100,513C100,504.333 102.5,496 107.5,488C112.5,480 119,474.333 127,471L295,392L127,314C119,310 112.5,304.167 107.5,296.5C102.5,288.833 100,280.333 100,271C100,262.333 102.5,254.167 107.5,246.5C112.5,238.833 119,233 127,229L580,17C586,14.333 592.667,13 600,13C608,13 614.667,14.333 620,17L1073,229C1081,233 1087.5,238.833 1092.5,246.5C1097.5,254.167 1100,262.333 1100,271C1100,280.333 1097.5,288.833 1092.5,296.5C1087.5,304.167 1081,310 1073,314L905,392L1073,471C1081,474.333 1087.5,480 1092.5,488C1097.5,496 1100,504.333 1100,513C1100,521.667 1097.5,530 1092.5,538ZM600,431L942,271L600,112L258,271L600,431ZM600,771C592.667,771 586,769.667 580,767L406,686L258,755L600,914L942,755L794,686L620,767C614.667,769.667 608,771 600,771ZM620,525C614.667,527.667 608,529 600,529C592.667,529 586,527.667 580,525L406,444L258,513L600,673L942,513L794,444L620,525Z" style="fill-rule:nonzero;"/>
        </g>
        <g transform="matrix(1,0,0,1,1507.4,-779.551)">
            <g transform="matrix(41.6667,0,0,41.6667,678.66,1478.71)">
            </g>
            <text x="476.451px" y="1478.71px" style="font-family:'HelveticaNeue', 'Helvetica Neue';font-size:41.667px;fill:rgb(35,31,32);">Main Stor<tspan x="656.285px " y="1478.71px ">e</tspan></text>
        </g>
        <g transform="matrix(1,0,0,1,1507.4,-525.164)">
            <g transform="matrix(41.6667,0,0,41.6667,677.139,1478.71)">
            </g>
            <text x="477.972px" y="1478.71px" style="font-family:'HelveticaNeue', 'Helvetica Neue';font-size:41.667px;fill:rgb(35,31,32);">Checksum</text>
        </g>
        <g id="kiko-question1" serif:id="kiko-question" transform="matrix(0.104167,0,0,0.104167,2040.37,798.766)">
            <path d="M498.5,751C520.167,763.667 537.333,780.667 550,802C562.667,823.333 569,846.667 569,872C569,897.333 562.667,920.833 550,942.5C537.333,964.167 520.167,981.333 498.5,994C476.833,1006.67 453.333,1013 428,1013C402.667,1013 379.167,1006.67 357.5,994C335.833,981.333 318.667,964.167 306,942.5C293.333,920.833 287,897.333 287,872C287,846.667 293.333,823.333 306,802C318.667,780.667 335.833,763.667 357.5,751C379.167,738.333 402.667,732 428,732C453.333,732 476.833,738.333 498.5,751ZM461.5,905C470.5,895.667 475,884.667 475,872C475,858.667 470.5,847.5 461.5,838.5C452.5,829.5 441.333,825 428,825C415.333,825 404.333,829.5 395,838.5C385.667,847.5 381,858.667 381,872C381,884.667 385.667,895.667 395,905C404.333,914.333 415.333,919 428,919C441.333,919 452.5,914.333 461.5,905ZM594.5,59.5C642.167,88.5 680.333,126.667 709,174C737.667,221.333 753.333,273.333 756,330C758,392 743.667,450 713,504C682.333,558 639.667,599.667 585,629C574.333,634.333 569,642.333 569,653C569,665.667 564.5,676.667 555.5,686C546.5,695.333 535.333,700 522,700L334,700C320.667,700 309.5,695.5 300.5,686.5C291.5,677.5 287,666.667 287,654L287,597C287,551 303.667,508.833 337,470.5C370.333,432.167 410.333,401 457,377C467,371 472.667,362.333 474,351C474.667,349 475,345.667 475,341C475,326.333 469,314 457,304C449.667,297.333 440.333,294 429,294C423,294 416,295.667 408,299C399.333,303 392.667,308.667 388,316C383.333,323.333 381,331.667 381,341C381,353.667 376.5,364.667 367.5,374C358.5,383.333 347.333,388 334,388L147,388C134.333,388 123.333,383.333 114,374C104.667,364.667 100,353.667 100,341C100,296.333 108.667,253.833 126,213.5C143.333,173.167 168,137.333 200,106C231.333,75.333 267.667,51.833 309,35.5C350.333,19.167 393.333,11.667 438,13C494.667,15 546.833,30.5 594.5,59.5ZM632,457.5C654,419.167 664,377.667 662,333C660.667,292.333 649.667,255.167 629,221.5C608.333,187.833 581,160.667 547,140C513,119.333 475.667,108.333 435,107C397.667,106.333 362.167,113.833 328.5,129.5C294.833,145.167 266.5,167.333 243.5,196C220.5,224.667 205.333,257.333 198,294L295,294C305.667,265.333 323,242.5 347,225.5C371,208.5 397.667,200 427,200C441.667,200 454.333,201.667 465,205C496.333,213.667 521.5,230.5 540.5,255.5C559.5,280.5 569,308.667 569,340C569,349.333 568,359 566,369C562.667,388.333 555.167,406.167 543.5,422.5C531.833,438.833 517.333,451.667 500,461C471.333,475.667 444.333,495.333 419,520C393.667,544.667 381,570.333 381,597L381,607L485,607C496.333,580.333 514.667,560.333 540,547C579.333,525.667 610,495.833 632,457.5Z" style="fill-rule:nonzero;"/>
        </g>
        <g transform="matrix(1,0,0,1,1177.33,-527.633)">
            <g transform="matrix(41.6667,0,0,41.6667,697.16,1478.71)">
            </g>
            <text x="457.951px" y="1478.71px" style="font-family:'HelveticaNeue', 'Helvetica Neue';font-size:41.667px;fill:rgb(35,31,32);">Staging Ar<tspan x="652.41px 674.785px " y="1478.71px 1478.71px ">ea</tspan></text>
        </g>
        <g transform="matrix(1.40148,0,0,1,586.817,-1793.66)">
            <g transform="matrix(0.71353,-0,-0,1,-204.653,2091.66)">
                <path d="M1719.77,547.633L1726.33,554.196L1719.77,560.758" style="fill:none;stroke:rgb(255,111,0);stroke-width:2.92px;stroke-linecap:round;"/>
                <path d="M1545.09,554.196L1726.33,554.196" style="fill:none;stroke:rgb(255,111,0);stroke-width:2.92px;stroke-linecap:round;stroke-linejoin:round;stroke-miterlimit:1.5;"/>
            </g>
        </g>
        <g transform="matrix(1,0,0,1,962.868,-1788.66)">
            <g transform="matrix(1,-0,-0,1,-662.868,2086.66)">
                <path d="M1780.92,437.459L1787.48,430.896L1794.05,437.459" style="fill:none;stroke:rgb(255,111,0);stroke-width:2.92px;stroke-linecap:round;"/>
                <path d="M1787.48,476.168L1787.48,430.896" style="fill:none;stroke:rgb(255,111,0);stroke-width:2.92px;stroke-linecap:round;stroke-linejoin:round;stroke-miterlimit:1.5;"/>
            </g>
        </g>
        <g transform="matrix(1,0,0,1,0,-1793.66)">
            <g transform="matrix(1,-0,-0,1,300,2091.66)">
                <path d="M1544.99,80.325L1551.56,86.888L1544.99,93.45" style="fill:none;stroke:rgb(255,111,0);stroke-width:2.92px;stroke-linecap:round;"/>
                <path d="M712.136,86.888L1551.56,86.888" style="fill:none;stroke:rgb(255,111,0);stroke-width:2.92px;stroke-linecap:round;stroke-linejoin:round;stroke-miterlimit:1.5;"/>
            </g>
        </g>
        <g transform="matrix(1.00623,0,0,1,-6.30829,-1783.66)">
            <g transform="matrix(0.993806,-0,-0,1,304.411,2081.66)">
                <path d="M1543.29,128.351L1549.85,121.789L1543.29,115.226" style="fill:none;stroke:rgb(255,111,0);stroke-width:2.92px;stroke-linecap:round;"/>
                <path d="M720.761,128.351L714.198,121.789L720.761,115.226" style="fill:none;stroke:rgb(255,111,0);stroke-width:2.92px;stroke-linecap:round;"/>
                <path d="M1549.85,121.789L714.198,121.789" style="fill:none;stroke:rgb(255,111,0);stroke-width:2.92px;stroke-linecap:round;stroke-linejoin:round;stroke-miterlimit:1.5;"/>
            </g>
        </g>
        <g transform="matrix(1,0,0,1,0,-1793.66)">
            <rect x="1315.02" y="2155.48" width="127.904" height="44.798" style="fill:white;"/>
        </g>
        <g transform="matrix(1.03101,0,0,1,74.0508,-1758.09)">
            <rect x="1315.02" y="2155.48" width="127.904" height="44.798" style="fill:white;"/>
        </g>
        <g transform="matrix(1,0,0,1,0,-1773.66)">
            <g transform="matrix(1,-0,-0,1,300,2071.66)">
                <path d="M720.761,165.935L714.198,159.372L720.761,152.81" style="fill:none;stroke:rgb(255,111,0);stroke-width:2.92px;stroke-linecap:round;"/>
                <path d="M1546.71,159.372L714.198,159.372" style="fill:none;stroke:rgb(255,111,0);stroke-width:2.92px;stroke-linecap:round;stroke-linejoin:round;stroke-miterlimit:1.5;"/>
            </g>
        </g>
        <g transform="matrix(1,0,0,1,-104.901,-1774.41)">
            <g transform="matrix(33.3333,0,0,33.3333,1527.14,2169.07)">
            </g>
            <text x="1447.45px" y="2169.07px" style="font-family:'Helvetica-Oblique', 'Helvetica';font-style:italic;font-size:33.333px;fill:rgb(35,31,32);">clone</text>
        </g>
        <g transform="matrix(1.42146,0,0,1,-575.273,-1720.5)">
            <rect x="1315.02" y="2155.48" width="127.904" height="44.798" style="fill:white;"/>
        </g>
        <g transform="matrix(1,0,0,1,6.84116,-1740.5)">
            <g transform="matrix(33.3333,0,0,33.3333,1528.07,2169.07)">
            </g>
            <text x="1446.52px" y="2169.07px" style="font-family:'Helvetica-Oblique', 'Helvetica';font-style:italic;font-size:33.333px;fill:rgb(35,31,32);">stage</text>
        </g>
        <g transform="matrix(1,0,0,1,-104.901,-1706.59)">
            <g transform="matrix(33.3333,0,0,33.3333,1554.92,2169.07)">
            </g>
            <text x="1419.67px" y="2169.07px" style="font-family:'Helvetica-Oblique', 'Helvetica';font-style:italic;font-size:33.333px;fill:rgb(35,31,32);">complete</text>
        </g>
        <g transform="matrix(1,0,0,1,-67.4762,-1846.46)">
            <text x="1428.13px" y="2517.12px" style="font-family:'Helvetica-Oblique', 'Helvetica';font-style:italic;font-size:41.667px;fill:rgb(143,143,143);">Globus</text>
            <text x="1385.26px" y="2558.79px" style="font-family:'Helvetica-Oblique', 'Helvetica';font-style:italic;font-size:41.667px;fill:rgb(143,143,143);">background</text>
            <g transform="matrix(41.6667,0,0,41.6667,1564.76,2600.46)">
            </g>
            <text x="1423.51px" y="2600.45px" style="font-family:'Helvetica-Oblique', 'Helvetica';font-style:italic;font-size:41.667px;fill:rgb(143,143,143);">transfer</text>
        </g>
        <g transform="matrix(0.887858,0,0,0.887858,299.975,-232.24)">
            <circle cx="948.1" cy="693.867" r="33.87" style="fill:white;"/>
        </g>
        <g id="kiko-clock" transform="matrix(0.04721,0,0,0.04721,1115.14,360.352)">
            <path d="M780.5,105C850.167,145.667 905.333,200.667 946,270C986.667,339.333 1007,415 1007,497C1007,579 986.667,654.667 946,724C905.333,793.333 850.333,848.333 781,889C711.667,929.667 635.667,950 553,950C471,950 395.333,929.667 326,889C256.667,848.333 201.667,793.333 161,724C120.333,654.667 100,579 100,497C100,415 120.333,339.333 161,270C201.667,200.667 256.667,145.667 326,105C395.333,64.333 471,44 553,44C635,44 710.833,64.333 780.5,105ZM746.5,800C790.833,771.333 827.333,734.833 856,690.5C884.667,646.167 902.333,597.333 909,544L897,544C884.333,544 873.333,539.333 864,530C854.667,520.667 850,509.667 850,497C850,483.667 854.667,472.5 864,463.5C873.333,454.5 884.333,450 897,450L909,450C901.667,391.333 881.167,338.333 847.5,291C813.833,243.667 771.167,206.333 719.5,179C667.833,151.667 612.333,138 553,138C493.667,138 438.333,151.667 387,179C335.667,206.333 293.167,243.667 259.5,291C225.833,338.333 205,391.333 197,450L210,450C223.333,450 234.5,454.5 243.5,463.5C252.5,472.5 257,483.667 257,497C257,509.667 252.5,520.667 243.5,530C234.5,539.333 223.333,544 210,544L197,544C204.333,597.333 222.333,646.167 251,690.5C279.667,734.833 316.167,771.333 360.5,800C404.833,828.667 453.667,846.333 507,853L507,841C507,827.667 511.5,816.5 520.5,807.5C529.5,798.5 540.333,794 553,794C566.333,794 577.5,798.5 586.5,807.5C595.5,816.5 600,827.667 600,841L600,853C653.333,846.333 702.167,828.667 746.5,800ZM774.5,463.5C783.5,472.5 788,483.667 788,497C788,509.667 783.5,520.667 774.5,530C765.5,539.333 754.333,544 741,544L600,544L600,560C600,572.667 595.5,583.667 586.5,593C577.5,602.333 566.333,607 553,607C540.333,607 529.5,602.5 520.5,593.5C511.5,584.5 507,573.333 507,560L507,544L491,544C478.333,544 467.333,539.333 458,530C448.667,520.667 444,509.667 444,497C444,483.667 448.667,472.5 458,463.5C467.333,454.5 478.333,450 491,450L507,450L507,247C507,233.667 511.5,222.5 520.5,213.5C529.5,204.5 540.333,200 553,200C566.333,200 577.5,204.5 586.5,213.5C595.5,222.5 600,233.667 600,247L600,450L741,450C754.333,450 765.5,454.5 774.5,463.5Z" style="fill:rgb(149,149,149);fill-rule:nonzero;"/>
        </g>
        <g transform="matrix(0.887858,0,0,0.887858,986.259,25.3932)">
            <circle cx="948.1" cy="693.867" r="33.87" style="fill:white;"/>
        </g>
        <g id="kiko-clock1" serif:id="kiko-clock" transform="matrix(0.04721,0,0,0.04721,1801.42,617.985)">
            <path d="M780.5,105C850.167,145.667 905.333,200.667 946,270C986.667,339.333 1007,415 1007,497C1007,579 986.667,654.667 946,724C905.333,793.333 850.333,848.333 781,889C711.667,929.667 635.667,950 553,950C471,950 395.333,929.667 326,889C256.667,848.333 201.667,793.333 161,724C120.333,654.667 100,579 100,497C100,415 120.333,339.333 161,270C201.667,200.667 256.667,145.667 326,105C395.333,64.333 471,44 553,44C635,44 710.833,64.333 780.5,105ZM746.5,800C790.833,771.333 827.333,734.833 856,690.5C884.667,646.167 902.333,597.333 909,544L897,544C884.333,544 873.333,539.333 864,530C854.667,520.667 850,509.667 850,497C850,483.667 854.667,472.5 864,463.5C873.333,454.5 884.333,450 897,450L909,450C901.667,391.333 881.167,338.333 847.5,291C813.833,243.667 771.167,206.333 719.5,179C667.833,151.667 612.333,138 553,138C493.667,138 438.333,151.667 387,179C335.667,206.333 293.167,243.667 259.5,291C225.833,338.333 205,391.333 197,450L210,450C223.333,450 234.5,454.5 243.5,463.5C252.5,472.5 257,483.667 257,497C257,509.667 252.5,520.667 243.5,530C234.5,539.333 223.333,544 210,544L197,544C204.333,597.333 222.333,646.167 251,690.5C279.667,734.833 316.167,771.333 360.5,800C404.833,828.667 453.667,846.333 507,853L507,841C507,827.667 511.5,816.5 520.5,807.5C529.5,798.5 540.333,794 553,794C566.333,794 577.5,798.5 586.5,807.5C595.5,816.5 600,827.667 600,841L600,853C653.333,846.333 702.167,828.667 746.5,800ZM774.5,463.5C783.5,472.5 788,483.667 788,497C788,509.667 783.5,520.667 774.5,530C765.5,539.333 754.333,544 741,544L600,544L600,560C600,572.667 595.5,583.667 586.5,593C577.5,602.333 566.333,607 553,607C540.333,607 529.5,602.5 520.5,593.5C511.5,584.5 507,573.333 507,560L507,544L491,544C478.333,544 467.333,539.333 458,530C448.667,520.667 444,509.667 444,497C444,483.667 448.667,472.5 458,463.5C467.333,454.5 478.333,450 491,450L507,450L507,247C507,233.667 511.5,222.5 520.5,213.5C529.5,204.5 540.333,200 553,200C566.333,200 577.5,204.5 586.5,213.5C595.5,222.5 600,233.667 600,247L600,450L741,450C754.333,450 765.5,454.5 774.5,463.5Z" style="fill:rgb(149,149,149);fill-rule:nonzero;"/>
        </g>
    </g>
</svg>
