<?xml version="1.0" encoding="UTF-8" standalone="no"?>
<!DOCTYPE svg PUBLIC "-//W3C//DTD SVG 1.1//EN" "http://www.w3.org/Graphics/SVG/1.1/DTD/svg11.dtd">
<svg width="100%" height="100%" viewBox="0 0 1954 798" version="1.1" xmlns="http://www.w3.org/2000/svg" xmlns:xlink="http://www.w3.org/1999/xlink" xml:space="preserve" xmlns:serif="http://www.serif.com/" style="fill-rule:evenodd;clip-rule:evenodd;stroke-linecap:round;stroke-miterlimit:10;">
    <g transform="matrix(1,0,0,1,-301,-299)">
        <g transform="matrix(0.921464,0,0,0.978254,76.7912,-37.452)">
            <path d="M1300.33,434.021L1300.33,1129.82C1300.33,1138.29 1293.04,1145.16 1284.05,1145.16L600.186,1145.16C591.202,1145.16 583.908,1138.29 583.908,1129.82L583.908,434.021C583.908,425.558 591.202,418.687 600.186,418.687L1284.05,418.687C1293.04,418.687 1300.33,425.558 1300.33,434.021Z" style="fill:rgb(233,233,233);"/>
        </g>
        <g transform="matrix(0.58406,0,0,0.0662742,394.666,320.309)">
            <path d="M1300.33,645.02L1300.33,918.824C1300.33,1043.74 1288.82,1145.16 1274.65,1145.16L609.59,1145.16C595.416,1145.16 583.908,1043.74 583.908,918.824L583.908,645.02C583.908,520.103 595.416,418.687 609.59,418.687L1274.65,418.687C1288.82,418.687 1300.33,520.103 1300.33,645.02Z" style="fill:white;"/>
        </g>
        <g transform="matrix(0.921464,0,0,0.978254,1051.79,-37.452)">
            <path d="M1300.33,434.021L1300.33,1129.82C1300.33,1138.29 1293.04,1145.16 1284.05,1145.16L600.186,1145.16C591.202,1145.16 583.908,1138.29 583.908,1129.82L583.908,434.021C583.908,425.558 591.202,418.687 600.186,418.687L1284.05,418.687C1293.04,418.687 1300.33,425.558 1300.33,434.021Z" style="fill:rgb(233,233,233);"/>
        </g>
        <g transform="matrix(0.638574,0,0,0.0662742,1318.31,320.309)">
            <path d="M1300.33,645.02L1300.33,918.824C1300.33,1043.74 1289.81,1145.16 1276.84,1145.16L607.398,1145.16C594.433,1145.16 583.908,1043.74 583.908,918.824L583.908,645.02C583.908,520.103 594.433,418.687 607.398,418.687L1276.84,418.687C1289.81,418.687 1300.33,520.103 1300.33,645.02Z" style="fill:white;"/>
        </g>
        <g transform="matrix(1,0,0,1,0,-32.1673)">
            <g transform="matrix(1,-0,-0,1,301,331.167)">
                <path d="M724.964,153.197L717.079,148.302L721.973,140.417" style="fill:none;stroke:black;stroke-width:2.92px;"/>
                <path d="M1548.81,148.772C1271.21,84.642 993.961,83.656 717.079,148.302" style="fill:none;stroke:black;stroke-width:2.92px;stroke-linejoin:round;stroke-miterlimit:1.5;"/>
            </g>
        </g>
        <g transform="matrix(1,0,0,1,0,-52.1673)">
            <g transform="matrix(1,-0,-0,1,301,351.167)">
                <path d="M1342.4,333.127L1349.93,338.546L1344.51,346.081" style="fill:none;stroke:black;stroke-width:2.92px;stroke-linecap:butt;"/>
                <path d="M885.29,591.681C1009.05,439.28 1169.98,368.118 1349.93,338.546" style="fill:none;stroke:black;stroke-width:2.92px;stroke-linecap:butt;stroke-linejoin:round;stroke-miterlimit:1.5;stroke-dasharray:5.83,5.83,0,0,0,0;"/>
            </g>
        </g>
        <g transform="matrix(1,0,0,1,34,-67.1673)">
            <circle cx="1401.31" cy="771.847" r="70.383" style="fill:white;"/>
        </g>
        <g transform="matrix(0.791953,0,0,0.791953,323.172,-230.577)">
            <circle cx="1401.31" cy="771.847" r="70.383" style="fill:white;"/>
        </g>
        <g transform="matrix(1,0,0,0.950094,0,-25.99)">
            <g transform="matrix(1,-0,-0,1.05253,301,342.061)">
                <path d="M792.57,499.481L786.008,506.044L779.445,499.481" style="fill:none;stroke:black;stroke-width:2.92px;"/>
                <path d="M706.129,173.36L786.008,173.36L786.008,506.044" style="fill:none;stroke:black;stroke-width:2.92px;stroke-linejoin:round;stroke-miterlimit:1.5;"/>
            </g>
        </g>
        <g transform="matrix(1,0,0,1,0,196.815)">
            <g transform="matrix(1,-0,-0,1,301,102.185)">
                <path d="M722.875,585.119L729.438,591.681L722.875,598.244" style="fill:none;stroke:rgb(35,31,32);stroke-width:2.92px;"/>
                <path d="M546.542,591.681L729.438,591.681" style="fill:none;stroke:rgb(35,31,32);stroke-width:2.92px;stroke-linejoin:round;stroke-miterlimit:1.5;"/>
            </g>
        </g>
        <g id="kiko-literature" transform="matrix(0.104167,0,0,0.104167,894.715,418.922)">
            <path d="M899.5,779.5C891.167,788.5 880.667,793.333 868,794C854,813.333 848,834.333 850,857C848,879 854,899.667 868,919C880.667,920.333 891,925.667 899,935C907,944.333 910.667,955.333 910,968C909.333,980 904.833,990.333 896.5,999C888.167,1007.67 877.667,1012.33 865,1013L256,1013C219.333,1013 186.667,1001.5 158,978.5C129.333,955.5 111,926.333 103,891C101,885 100,878.667 100,872L100,201C100,172.333 107,146 121,122C135,98 154,79 178,65C202,51 228,44 256,44L290,44C293.333,34.667 299,27.167 307,21.5C315,15.833 324,13 334,13L522,13C531.333,13 540.167,15.833 548.5,21.5C556.833,27.167 562.667,34.667 566,44L865,44C878.333,44 889.5,48.5 898.5,57.5C907.5,66.5 912,77.667 912,91L912,747C912,759.667 907.833,770.5 899.5,779.5ZM428,482C434.667,482 439.667,482.667 443,484L475,495L475,107L381,107L381,495L413,484C416.333,482.667 421.333,482 428,482ZM756,856C756,836 758.667,815.333 764,794L256,794C238.667,794 224,800.167 212,812.5C200,824.833 194,839.667 194,857C193.333,873.667 199.167,888.167 211.5,900.5C223.833,912.833 238.667,919 256,919L764,919C758.667,896.333 756,875.333 756,856ZM568,560C569.333,575.333 563,588 549,598C541,604 532,607 522,607C516.667,607 511.667,606 507,604L428,578L349,604C344.333,606 339.333,607 334,607C324,607 315,604 307,598C293.667,588.667 287,576 287,560L287,138L256,138C238.667,138 224,144 212,156C200,168 194,182.667 194,200L194,714C214,704.667 234.667,700 256,700L819,700L819,138L569,138L568,560Z" style="fill-rule:nonzero;"/>
        </g>
        <g id="kiko-literature1" serif:id="kiko-literature" transform="matrix(0.104167,0,0,0.104167,1868.05,413.749)">
            <path d="M899.5,779.5C891.167,788.5 880.667,793.333 868,794C854,813.333 848,834.333 850,857C848,879 854,899.667 868,919C880.667,920.333 891,925.667 899,935C907,944.333 910.667,955.333 910,968C909.333,980 904.833,990.333 896.5,999C888.167,1007.67 877.667,1012.33 865,1013L256,1013C219.333,1013 186.667,1001.5 158,978.5C129.333,955.5 111,926.333 103,891C101,885 100,878.667 100,872L100,201C100,172.333 107,146 121,122C135,98 154,79 178,65C202,51 228,44 256,44L290,44C293.333,34.667 299,27.167 307,21.5C315,15.833 324,13 334,13L522,13C531.333,13 540.167,15.833 548.5,21.5C556.833,27.167 562.667,34.667 566,44L865,44C878.333,44 889.5,48.5 898.5,57.5C907.5,66.5 912,77.667 912,91L912,747C912,759.667 907.833,770.5 899.5,779.5ZM428,482C434.667,482 439.667,482.667 443,484L475,495L475,107L381,107L381,495L413,484C416.333,482.667 421.333,482 428,482ZM756,856C756,836 758.667,815.333 764,794L256,794C238.667,794 224,800.167 212,812.5C200,824.833 194,839.667 194,857C193.333,873.667 199.167,888.167 211.5,900.5C223.833,912.833 238.667,919 256,919L764,919C758.667,896.333 756,875.333 756,856ZM568,560C569.333,575.333 563,588 549,598C541,604 532,607 522,607C516.667,607 511.667,606 507,604L428,578L349,604C344.333,606 339.333,607 334,607C324,607 315,604 307,598C293.667,588.667 287,576 287,560L287,138L256,138C238.667,138 224,144 212,156C200,168 194,182.667 194,200L194,714C214,704.667 234.667,700 256,700L819,700L819,138L569,138L568,560Z" style="fill-rule:nonzero;"/>
        </g>
        <g id="kiko-layers" transform="matrix(0.104167,0,0,0.104167,700.532,837.244)">
            <path d="M1092.5,538C1087.5,546 1081,551.667 1073,555L905,634L1073,712C1081,716 1087.5,721.833 1092.5,729.5C1097.5,737.167 1100,745.667 1100,755C1100,763.667 1097.5,771.833 1092.5,779.5C1087.5,787.167 1081,793 1073,797L620,1009C612,1011.67 605.333,1013 600,1013C596,1013 589.333,1011.67 580,1009L127,797C119,793 112.5,787.167 107.5,779.5C102.5,771.833 100,763.667 100,755C100,745.667 102.5,737.167 107.5,729.5C112.5,721.833 119,716 127,712L295,634L127,555C119,551.667 112.5,546 107.5,538C102.5,530 100,521.667 100,513C100,504.333 102.5,496 107.5,488C112.5,480 119,474.333 127,471L295,392L127,314C119,310 112.5,304.167 107.5,296.5C102.5,288.833 100,280.333 100,271C100,262.333 102.5,254.167 107.5,246.5C112.5,238.833 119,233 127,229L580,17C586,14.333 592.667,13 600,13C608,13 614.667,14.333 620,17L1073,229C1081,233 1087.5,238.833 1092.5,246.5C1097.5,254.167 1100,262.333 1100,271C1100,280.333 1097.5,288.833 1092.5,296.5C1087.5,304.167 1081,310 1073,314L905,392L1073,471C1081,474.333 1087.5,480 1092.5,488C1097.5,496 1100,504.333 1100,513C1100,521.667 1097.5,530 1092.5,538ZM600,431L942,271L600,112L258,271L600,431ZM600,771C592.667,771 586,769.667 580,767L406,686L258,755L600,914L942,755L794,686L620,767C614.667,769.667 608,771 600,771ZM620,525C614.667,527.667 608,529 600,529C592.667,529 586,527.667 580,525L406,444L258,513L600,673L942,513L794,444L620,525Z" style="fill-rule:nonzero;"/>
        </g>
        <g id="kiko-layers1" serif:id="kiko-layers" transform="matrix(0.104167,0,0,0.104167,2034.59,839.565)">
            <path d="M1092.5,538C1087.5,546 1081,551.667 1073,555L905,634L1073,712C1081,716 1087.5,721.833 1092.5,729.5C1097.5,737.167 1100,745.667 1100,755C1100,763.667 1097.5,771.833 1092.5,779.5C1087.5,787.167 1081,793 1073,797L620,1009C612,1011.67 605.333,1013 600,1013C596,1013 589.333,1011.67 580,1009L127,797C119,793 112.5,787.167 107.5,779.5C102.5,771.833 100,763.667 100,755C100,745.667 102.5,737.167 107.5,729.5C112.5,721.833 119,716 127,712L295,634L127,555C119,551.667 112.5,546 107.5,538C102.5,530 100,521.667 100,513C100,504.333 102.5,496 107.5,488C112.5,480 119,474.333 127,471L295,392L127,314C119,310 112.5,304.167 107.5,296.5C102.5,288.833 100,280.333 100,271C100,262.333 102.5,254.167 107.5,246.5C112.5,238.833 119,233 127,229L580,17C586,14.333 592.667,13 600,13C608,13 614.667,14.333 620,17L1073,229C1081,233 1087.5,238.833 1092.5,246.5C1097.5,254.167 1100,262.333 1100,271C1100,280.333 1097.5,288.833 1092.5,296.5C1087.5,304.167 1081,310 1073,314L905,392L1073,471C1081,474.333 1087.5,480 1092.5,488C1097.5,496 1100,504.333 1100,513C1100,521.667 1097.5,530 1092.5,538ZM600,431L942,271L600,112L258,271L600,431ZM600,771C592.667,771 586,769.667 580,767L406,686L258,755L600,914L942,755L794,686L620,767C614.667,769.667 608,771 600,771ZM620,525C614.667,527.667 608,529 600,529C592.667,529 586,527.667 580,525L406,444L258,513L600,673L942,513L794,444L620,525Z" style="fill-rule:nonzero;"/>
        </g>
        <g id="kiko-airplane" transform="matrix(0.0949885,-0.0427537,0.0427537,0.0949885,1362.01,674.804)">
            <path d="M944,533.5C970,527.167 989,520 1001,512C989,504 970,496.833 944,490.5C918,484.167 892.333,481 867,481L507,481C472.333,481 432,484.667 386,492L359,496L234,340L225,340L274,512L225,684L234,684L359,528L386,532C432,539.333 472.333,543 507,543L867,543C892.333,543 918,539.833 944,533.5ZM562,637L497,919L525,919L671,637L562,637ZM562,387L671,387L525,105L497,105L562,387ZM966.5,399.5C1002.83,407.833 1034.33,421.333 1061,440C1087.67,458.667 1101,482.667 1101,512C1101,541.333 1087.67,565.333 1061,584C1034.33,602.667 1002.83,616.167 966.5,624.5C930.167,632.833 897,637 867,637L777,637L728,731L741,731C745,731 748.5,732.5 751.5,735.5C754.5,738.5 756,742.333 756,747L756,810C756,814 754.5,817.5 751.5,820.5C748.5,823.5 745,825 741,825L679,825L613,954C603.667,972 590.167,986.333 572.5,997C554.833,1007.67 535.667,1013 515,1013L443,1013C429,1013 417,1007.83 407,997.5C397,987.167 392,975 392,961C392,956.333 392.333,952.667 393,950L466,636C453.333,635.333 430.667,633 398,629L312,737C301.333,749.667 288.5,759.667 273.5,767C258.5,774.333 242.667,778 226,778L168,778C154,778 142,773 132,763C122,753 117,741 117,727C117,724.333 117.667,719.667 119,713L161,564C157.667,562 154.167,560.167 150.5,558.5C146.833,556.833 143.333,555 140,553L116,540C105.333,534 100,524.667 100,512C100,499.333 105.333,490 116,484L140,471C143.333,469 146.833,467.167 150.5,465.5C154.167,463.833 157.667,462 161,460L119,311C117.667,304.333 117,299.667 117,297C117,283 122,271 132,261C142,251 154,246 168,246L226,246C242.667,246 258.5,249.667 273.5,257C288.5,264.333 301.333,274.333 312,287L398,395C430.667,391 453.333,388.667 466,388L393,74C392.333,71.333 392,67.667 392,63C392,49 397,36.833 407,26.5C417,16.167 429,11 443,11L515,11C535.667,11 554.833,16.333 572.5,27C590.167,37.667 603.667,52 613,70L679,199L741,199C745,199 748.5,200.5 751.5,203.5C754.5,206.5 756,210 756,214L756,277C756,281.667 754.5,285.5 751.5,288.5C748.5,291.5 745,293 741,293L728,293L777,387L867,387C897,387 930.167,391.167 966.5,399.5Z" style="fill-rule:nonzero;"/>
        </g>
        <g id="kiko-recipe" transform="matrix(0.104167,0,0,0.104167,708.018,584.891)">
            <path d="M545.303,276.5C536.303,267.5 525.47,263 512.803,263L465.803,263L465.803,216C465.803,203.333 461.137,192.333 451.803,183C442.47,173.667 431.137,169 417.803,169C405.137,169 394.303,173.667 385.303,183C376.303,192.333 371.803,203.333 371.803,216L371.803,263L324.803,263C312.137,263 301.137,267.5 291.803,276.5C282.47,285.5 277.803,296.333 277.803,309C277.803,322.333 282.303,333.5 291.303,342.5C300.303,351.5 311.47,356 324.803,356L371.803,356L371.803,404C371.803,416.667 376.303,427.667 385.303,437C394.303,446.333 405.137,451 417.803,451C431.137,451 442.47,446.333 451.803,437C461.137,427.667 465.803,416.667 465.803,404L465.803,356L512.803,356C525.47,356 536.303,351.5 545.303,342.5C554.303,333.5 558.803,322.333 558.803,309C558.803,296.333 554.303,285.5 545.303,276.5ZM934.303,304C933.97,302.667 933.803,301.333 933.803,300L931.803,294C931.803,292.667 931.47,291.667 930.803,291L927.803,285L926.803,284L920.803,277L670.803,26L663.803,20L655.803,16C654.47,16 653.47,15.667 652.803,15L646.803,14C644.803,13.333 641.803,13 637.803,13L168.803,13C156.137,13 145.137,17.5 135.803,26.5C126.47,35.5 121.803,46.667 121.803,60L121.803,966C121.803,978.667 126.47,989.667 135.803,999C145.137,1008.33 156.137,1013 168.803,1013L886.803,1013C900.137,1013 911.303,1008.5 920.303,999.5C929.303,990.5 933.803,979.333 933.803,966L933.803,309C934.47,307 934.637,305.333 934.303,304ZM774.803,263L683.803,263L683.803,172L774.803,263ZM214.803,106L590.803,106L590.803,309C590.803,322.333 595.303,333.5 604.303,342.5C613.303,351.5 624.47,356 637.803,356L840.803,356L840.803,920L214.803,920L214.803,106ZM291.803,557.5C301.137,548.5 312.137,544 324.803,544L730.803,544C744.137,544 755.47,548.667 764.803,558C774.137,567.333 778.803,578.333 778.803,591C778.803,603.667 774.137,614.667 764.803,624C755.47,633.333 744.137,638 730.803,638L324.803,638C312.137,638 301.137,633.333 291.803,624C282.47,614.667 277.803,603.667 277.803,591C277.803,577.667 282.47,566.5 291.803,557.5ZM638.803,714C648.137,723.333 652.803,734.333 652.803,747C652.803,759.667 648.303,770.667 639.303,780C630.303,789.333 619.137,794 605.803,794L324.803,794C312.137,794 301.137,789.333 291.803,780C282.47,770.667 277.803,759.667 277.803,747C277.803,734.333 282.47,723.333 291.803,714C301.137,704.667 312.137,700 324.803,700L605.803,700C618.47,700 629.47,704.667 638.803,714Z" style="fill-rule:nonzero;"/>
        </g>
        <g id="kiko-recipe1" serif:id="kiko-recipe" transform="matrix(0.104167,0,0,0.104167,1677.56,837.244)">
            <path d="M545.303,276.5C536.303,267.5 525.47,263 512.803,263L465.803,263L465.803,216C465.803,203.333 461.137,192.333 451.803,183C442.47,173.667 431.137,169 417.803,169C405.137,169 394.303,173.667 385.303,183C376.303,192.333 371.803,203.333 371.803,216L371.803,263L324.803,263C312.137,263 301.137,267.5 291.803,276.5C282.47,285.5 277.803,296.333 277.803,309C277.803,322.333 282.303,333.5 291.303,342.5C300.303,351.5 311.47,356 324.803,356L371.803,356L371.803,404C371.803,416.667 376.303,427.667 385.303,437C394.303,446.333 405.137,451 417.803,451C431.137,451 442.47,446.333 451.803,437C461.137,427.667 465.803,416.667 465.803,404L465.803,356L512.803,356C525.47,356 536.303,351.5 545.303,342.5C554.303,333.5 558.803,322.333 558.803,309C558.803,296.333 554.303,285.5 545.303,276.5ZM934.303,304C933.97,302.667 933.803,301.333 933.803,300L931.803,294C931.803,292.667 931.47,291.667 930.803,291L927.803,285L926.803,284L920.803,277L670.803,26L663.803,20L655.803,16C654.47,16 653.47,15.667 652.803,15L646.803,14C644.803,13.333 641.803,13 637.803,13L168.803,13C156.137,13 145.137,17.5 135.803,26.5C126.47,35.5 121.803,46.667 121.803,60L121.803,966C121.803,978.667 126.47,989.667 135.803,999C145.137,1008.33 156.137,1013 168.803,1013L886.803,1013C900.137,1013 911.303,1008.5 920.303,999.5C929.303,990.5 933.803,979.333 933.803,966L933.803,309C934.47,307 934.637,305.333 934.303,304ZM774.803,263L683.803,263L683.803,172L774.803,263ZM214.803,106L590.803,106L590.803,309C590.803,322.333 595.303,333.5 604.303,342.5C613.303,351.5 624.47,356 637.803,356L840.803,356L840.803,920L214.803,920L214.803,106ZM291.803,557.5C301.137,548.5 312.137,544 324.803,544L730.803,544C744.137,544 755.47,548.667 764.803,558C774.137,567.333 778.803,578.333 778.803,591C778.803,603.667 774.137,614.667 764.803,624C755.47,633.333 744.137,638 730.803,638L324.803,638C312.137,638 301.137,633.333 291.803,624C282.47,614.667 277.803,603.667 277.803,591C277.803,577.667 282.47,566.5 291.803,557.5ZM638.803,714C648.137,723.333 652.803,734.333 652.803,747C652.803,759.667 648.303,770.667 639.303,780C630.303,789.333 619.137,794 605.803,794L324.803,794C312.137,794 301.137,789.333 291.803,780C282.47,770.667 277.803,759.667 277.803,747C277.803,734.333 282.47,723.333 291.803,714C301.137,704.667 312.137,700 324.803,700L605.803,700C618.47,700 629.47,704.667 638.803,714Z" style="fill-rule:nonzero;"/>
        </g>
        <g id="kiko-question" transform="matrix(0.104167,0,0,0.104167,2052.5,595.866)">
            <path d="M498.5,751C520.167,763.667 537.333,780.667 550,802C562.667,823.333 569,846.667 569,872C569,897.333 562.667,920.833 550,942.5C537.333,964.167 520.167,981.333 498.5,994C476.833,1006.67 453.333,1013 428,1013C402.667,1013 379.167,1006.67 357.5,994C335.833,981.333 318.667,964.167 306,942.5C293.333,920.833 287,897.333 287,872C287,846.667 293.333,823.333 306,802C318.667,780.667 335.833,763.667 357.5,751C379.167,738.333 402.667,732 428,732C453.333,732 476.833,738.333 498.5,751ZM461.5,905C470.5,895.667 475,884.667 475,872C475,858.667 470.5,847.5 461.5,838.5C452.5,829.5 441.333,825 428,825C415.333,825 404.333,829.5 395,838.5C385.667,847.5 381,858.667 381,872C381,884.667 385.667,895.667 395,905C404.333,914.333 415.333,919 428,919C441.333,919 452.5,914.333 461.5,905ZM594.5,59.5C642.167,88.5 680.333,126.667 709,174C737.667,221.333 753.333,273.333 756,330C758,392 743.667,450 713,504C682.333,558 639.667,599.667 585,629C574.333,634.333 569,642.333 569,653C569,665.667 564.5,676.667 555.5,686C546.5,695.333 535.333,700 522,700L334,700C320.667,700 309.5,695.5 300.5,686.5C291.5,677.5 287,666.667 287,654L287,597C287,551 303.667,508.833 337,470.5C370.333,432.167 410.333,401 457,377C467,371 472.667,362.333 474,351C474.667,349 475,345.667 475,341C475,326.333 469,314 457,304C449.667,297.333 440.333,294 429,294C423,294 416,295.667 408,299C399.333,303 392.667,308.667 388,316C383.333,323.333 381,331.667 381,341C381,353.667 376.5,364.667 367.5,374C358.5,383.333 347.333,388 334,388L147,388C134.333,388 123.333,383.333 114,374C104.667,364.667 100,353.667 100,341C100,296.333 108.667,253.833 126,213.5C143.333,173.167 168,137.333 200,106C231.333,75.333 267.667,51.833 309,35.5C350.333,19.167 393.333,11.667 438,13C494.667,15 546.833,30.5 594.5,59.5ZM632,457.5C654,419.167 664,377.667 662,333C660.667,292.333 649.667,255.167 629,221.5C608.333,187.833 581,160.667 547,140C513,119.333 475.667,108.333 435,107C397.667,106.333 362.167,113.833 328.5,129.5C294.833,145.167 266.5,167.333 243.5,196C220.5,224.667 205.333,257.333 198,294L295,294C305.667,265.333 323,242.5 347,225.5C371,208.5 397.667,200 427,200C441.667,200 454.333,201.667 465,205C496.333,213.667 521.5,230.5 540.5,255.5C559.5,280.5 569,308.667 569,340C569,349.333 568,359 566,369C562.667,388.333 555.167,406.167 543.5,422.5C531.833,438.833 517.333,451.667 500,461C471.333,475.667 444.333,495.333 419,520C393.667,544.667 381,570.333 381,597L381,607L485,607C496.333,580.333 514.667,560.333 540,547C579.333,525.667 610,495.833 632,457.5Z" style="fill-rule:nonzero;"/>
        </g>
        <g id="kiko-external-drive" transform="matrix(0.104167,0,0,0.104167,1052.76,837.244)">
            <path d="M1024.5,151.5C1033.5,160.5 1038,171.667 1038,185L1038,341C1038,353.667 1033.5,364.667 1024.5,374C1015.5,383.333 1004.33,388 991,388L975,388L975,888C975,922.667 962.833,952.167 938.5,976.5C914.167,1000.83 884.667,1013 850,1013L538,1013C503.333,1013 473.833,1000.83 449.5,976.5C425.167,952.167 413,922.667 413,888L397,888C384.333,888 373.333,883.333 364,874C354.667,864.667 350,853.667 350,841L350,794L241,794C215.667,794 192.167,787.667 170.5,775C148.833,762.333 131.667,745.333 119,724C106.333,702.667 100,679.333 100,654L100,154C100,128.667 106.333,105.167 119,83.5C131.667,61.833 148.833,44.667 170.5,32C192.167,19.333 215.667,13 241,13L585,13C610.333,13 633.667,19.333 655,32C676.333,44.667 693.333,61.833 706,83.5C718.667,105.167 725,128.667 725,154L725,654C725,679.333 718.667,702.667 706,724C693.333,745.333 676.333,762.333 655,775C633.667,787.667 610.333,794 585,794L569,794L569,841C569,853.667 564.5,864.667 555.5,874C546.5,883.333 535.333,888 522,888L507,888C506.333,896.667 509.167,904 515.5,910C521.833,916 529.333,919 538,919L850,919C858.667,919 866.167,916 872.5,910C878.833,904 882,896.667 882,888L882,388L866,388C853.333,388 842.333,383.333 833,374C823.667,364.667 819,353.667 819,341L819,185C819,171.667 823.667,160.5 833,151.5C842.333,142.5 853.333,138 866,138L882,138L882,91C881.333,78.333 885.5,67.333 894.5,58C903.5,48.667 914.667,44 928,44C941.333,44 952.5,48.5 961.5,57.5C970.5,66.5 975,77.667 975,91L975,138L991,138C1004.33,138 1015.5,142.5 1024.5,151.5ZM475,732L444,732L444,794L475,794L475,732ZM208,499C217.333,508.333 228.333,513 241,513L585,513C598.333,513 609.5,508.333 618.5,499C627.5,489.667 632,478.667 632,466L632,154C632,140.667 627.5,129.5 618.5,120.5C609.5,111.5 598.333,107 585,107L241,107C228.333,107 217.333,111.5 208,120.5C198.667,129.5 194,140.667 194,154L194,466C194,478.667 198.667,489.667 208,499ZM555.5,651.5C564.5,660.5 569,671.667 569,685L569,700L585,700C597.667,700.667 608.667,696.5 618,687.5C627.333,678.5 632,667.333 632,654L631,598C616.333,604 601,607 585,607L241,607C225,607 209.333,604 194,598L194,654C194,666.667 198.5,677.5 207.5,686.5C216.5,695.5 227.667,700 241,700L350,700L350,685C350,671.667 354.667,660.5 364,651.5C373.333,642.5 384.333,638 397,638L522,638C535.333,638 546.5,642.5 555.5,651.5ZM944,232L913,232L913,294L944,294L944,232Z" style="fill-rule:nonzero;"/>
        </g>
        <g id="kiko-physics" transform="matrix(0.104167,0,0,0.104167,396.345,687.011)">
            <path d="M986,725C986,669 931.667,598.333 823,513C931.667,426.333 986,355.667 986,301C986,287 982.667,274.333 976,263C959.333,235 928.333,221 883,221C829.667,221 766.167,236.167 692.5,266.5C618.833,296.833 550.333,329.667 487,365C492.333,303 500.333,250.167 511,206.5C521.667,162.833 532.333,132.333 543,115C556.333,140.333 566,165.333 572,190C574.667,200.667 580.167,209.167 588.5,215.5C596.833,221.833 606.333,225 617,225C629.667,225 640.667,220.333 650,211C659.333,201.667 664,190.667 664,178C664,175.333 663.333,171.333 662,166C651.333,127.333 637.333,92.167 620,60.5C602.667,28.833 577,13 543,13C490.333,13 452.667,56.167 430,142.5C407.333,228.833 393.667,322.667 389,424C383,428 367.333,438.333 342,455C286,417.667 238.333,371 199,315C224.333,315 251,319.333 279,328C281.667,328.667 286,329 292,329C304.667,329 315.667,324.333 325,315C334.333,305.667 339,294.667 339,282C339,271.333 335.667,262 329,254C322.333,246 314,240.333 304,237C284.667,232.333 267.5,228.5 252.5,225.5C237.5,222.5 221.333,221 204,221C158,221 127,235 111,263C103.667,275.667 100,288.667 100,302C100,357.333 154.333,427.667 263,513C215,550.333 176,587.167 146,623.5C116,659.833 101,693.333 101,724C101,738.667 104.333,751.667 111,763C121,777.667 134.333,788.833 151,796.5C167.667,804.167 185.333,807 204,805C239.333,804.333 274.667,798.333 310,787C320,784.333 328.333,778.833 335,770.5C341.667,762.167 345,752.667 345,742C345,728.667 340.5,717.5 331.5,708.5C322.5,699.5 311.333,695 298,695C295.333,695 290.667,695.667 284,697C257.333,705.667 229,710.667 199,712C212.333,686.667 246.167,650.667 300.5,604C354.833,557.333 425.333,509 512,459C598.667,409 675.833,372 743.5,348C811.167,324 859,312.667 887,314C879,328.667 863.5,348 840.5,372C817.5,396 785.333,423.667 744,455C742,453.667 733.667,448.333 719,439C713,433.667 704.667,431 694,431C681.333,431 670.333,435.5 661,444.5C651.667,453.5 647,464.667 647,478C647,485.333 648.833,492.5 652.5,499.5C656.167,506.5 661.333,512.333 668,517C730.667,558.333 780.167,596.167 816.5,630.5C852.833,664.833 876.333,692 887,712C864.333,712 829.167,704.833 781.5,690.5C733.833,676.167 676.667,652.667 610,620C603.333,616.667 596.667,615 590,615C577.333,615 566.333,619.5 557,628.5C547.667,637.5 543,648.667 543,662C543,670.667 545.333,678.833 550,686.5C554.667,694.167 561,700 569,704L593,716C587,768 579.333,810.167 570,842.5C560.667,874.833 551.667,897.667 543,911C531.667,892.333 520.333,859.667 509,813C497.667,766.333 489.667,707 485,635C484.333,622.333 479.5,611.833 470.5,603.5C461.5,595.167 450.667,591 438,591C425.333,591 414.333,595.5 405,604.5C395.667,613.5 391,624.333 391,637L391,642C398.333,738.667 413.333,824.667 436,900C458.667,975.333 494.333,1013 543,1013C611,1013 657.667,927 683,755C746.333,783 813,799.667 883,805C901,807 918.333,804.167 935,796.5C951.667,788.833 965.333,777.667 976,763C982.667,751.667 986,739 986,725Z" style="fill-rule:nonzero;"/>
        </g>
        <g transform="matrix(0.887858,0,0,0.887858,95.3216,274.626)">
            <circle cx="948.1" cy="693.867" r="33.87" style="fill:white;"/>
        </g>
        <g transform="matrix(0.887858,0,0,0.887858,245.229,23.6776)">
            <circle cx="948.1" cy="693.867" r="33.87" style="fill:white;"/>
        </g>
        <g id="kiko-clock" transform="matrix(0.04721,0,0,0.04721,910.482,867.218)">
            <path d="M780.5,105C850.167,145.667 905.333,200.667 946,270C986.667,339.333 1007,415 1007,497C1007,579 986.667,654.667 946,724C905.333,793.333 850.333,848.333 781,889C711.667,929.667 635.667,950 553,950C471,950 395.333,929.667 326,889C256.667,848.333 201.667,793.333 161,724C120.333,654.667 100,579 100,497C100,415 120.333,339.333 161,270C201.667,200.667 256.667,145.667 326,105C395.333,64.333 471,44 553,44C635,44 710.833,64.333 780.5,105ZM746.5,800C790.833,771.333 827.333,734.833 856,690.5C884.667,646.167 902.333,597.333 909,544L897,544C884.333,544 873.333,539.333 864,530C854.667,520.667 850,509.667 850,497C850,483.667 854.667,472.5 864,463.5C873.333,454.5 884.333,450 897,450L909,450C901.667,391.333 881.167,338.333 847.5,291C813.833,243.667 771.167,206.333 719.5,179C667.833,151.667 612.333,138 553,138C493.667,138 438.333,151.667 387,179C335.667,206.333 293.167,243.667 259.5,291C225.833,338.333 205,391.333 197,450L210,450C223.333,450 234.5,454.5 243.5,463.5C252.5,472.5 257,483.667 257,497C257,509.667 252.5,520.667 243.5,530C234.5,539.333 223.333,544 210,544L197,544C204.333,597.333 222.333,646.167 251,690.5C279.667,734.833 316.167,771.333 360.5,800C404.833,828.667 453.667,846.333 507,853L507,841C507,827.667 511.5,816.5 520.5,807.5C529.5,798.5 540.333,794 553,794C566.333,794 577.5,798.5 586.5,807.5C595.5,816.5 600,827.667 600,841L600,853C653.333,846.333 702.167,828.667 746.5,800ZM774.5,463.5C783.5,472.5 788,483.667 788,497C788,509.667 783.5,520.667 774.5,530C765.5,539.333 754.333,544 741,544L600,544L600,560C600,572.667 595.5,583.667 586.5,593C577.5,602.333 566.333,607 553,607C540.333,607 529.5,602.5 520.5,593.5C511.5,584.5 507,573.333 507,560L507,544L491,544C478.333,544 467.333,539.333 458,530C448.667,520.667 444,509.667 444,497C444,483.667 448.667,472.5 458,463.5C467.333,454.5 478.333,450 491,450L507,450L507,247C507,233.667 511.5,222.5 520.5,213.5C529.5,204.5 540.333,200 553,200C566.333,200 577.5,204.5 586.5,213.5C595.5,222.5 600,233.667 600,247L600,450L741,450C754.333,450 765.5,454.5 774.5,463.5Z" style="fill:rgb(149,149,149);fill-rule:nonzero;"/>
        </g>
        <g id="kiko-globe" transform="matrix(0.104167,0,0,0.104167,1375.44,347.252)">
            <path d="M942.5,739C901.5,808.333 846.5,863.333 777.5,904C708.5,944.667 633.333,965 552,965C471.333,965 396.333,944.667 327,904C257.667,863.333 202.5,808.333 161.5,739C120.5,669.667 100,594.333 100,513C100,432.333 120.5,357.333 161.5,288C202.5,218.667 257.667,163.5 327,122.5C396.333,81.5 471.333,61 552,61C633.333,61 708.667,81.5 778,122.5C847.333,163.5 902.333,218.667 943,288C983.667,357.333 1004,432.333 1004,513C1004,594.333 983.5,669.667 942.5,739ZM237,684L307,684C297.667,646 291.333,605 288,561L197,561C201.667,603.667 215,644.667 237,684ZM197,467L288,467C291.333,422.333 297.667,380.667 307,342L237,342C215,382.667 201.667,424.333 197,467ZM867,342L798,342C808,388.667 814,430.333 816,467L908,467C902,423.667 888.333,382 867,342ZM599,171L599,248L664,248C648.667,216.667 627,191 599,171ZM439,248L505,248L505,171C476.333,191.667 454.333,217.333 439,248ZM382,467L505,467L505,342L403,342C392.333,382.667 385.333,424.333 382,467ZM403,684L505,684L505,561L382,561C385.333,604.333 392.333,645.333 403,684ZM505,857L505,778L439,778C455,808.667 477,835 505,857ZM664,778L599,778L599,857C627,835.667 648.667,809.333 664,778ZM722,561L599,561L599,684L702,684C712,648.667 718.667,607.667 722,561ZM702,342L599,342L599,467L722,467C718.667,421 712,379.333 702,342ZM754,217L768,248L792,248C779.333,236.667 766.667,226.333 754,217ZM342.5,234.5C344.833,229.5 347.667,223.667 351,217C336.333,227 323,237.333 311,248L336,248C338,244 340.167,239.5 342.5,234.5ZM351,809C348.333,804.333 345.5,798.667 342.5,792C339.5,785.333 337.333,780.667 336,778L311,778C326.333,792 339.667,802.333 351,809ZM762,792C760,797.333 757.333,803 754,809C764.667,803 777.333,792.667 792,778L768,778C766,782 764,786.667 762,792ZM908,561L816,561C814,597.667 808,638.667 798,684L867,684C888.333,645.333 902,604.333 908,561Z" style="fill:rgb(149,149,149);fill-rule:nonzero;"/>
        </g>
        <g transform="matrix(1,0,0,1,-124.648,-634.238)">
            <text x="471.826px" y="1478.71px" style="font-family:'HelveticaNeue', 'Helvetica Neue';font-size:41.667px;fill:rgb(35,31,32);">Experiment</text>
            <g transform="matrix(41.6667,0,0,41.6667,621.16,1521.54)">
            </g>
            <text x="533.951px" y="1521.54px" style="font-family:'HelveticaNeue', 'Helvetica Neue';font-size:41.667px;fill:rgb(35,31,32);">Data</text>
        </g>
        <g transform="matrix(1,0,0,1,185.477,-479.575)">
            <g transform="matrix(41.6667,0,0,41.6667,678.66,1478.71)">
            </g>
            <text x="476.451px" y="1478.71px" style="font-family:'HelveticaNeue', 'Helvetica Neue';font-size:41.667px;fill:rgb(35,31,32);">Main Stor<tspan x="656.285px " y="1478.71px ">e</tspan></text>
        </g>
        <g transform="matrix(1,0,0,1,1519.54,-480.354)">
            <g transform="matrix(41.6667,0,0,41.6667,678.66,1478.71)">
            </g>
            <text x="476.451px" y="1478.71px" style="font-family:'HelveticaNeue', 'Helvetica Neue';font-size:41.667px;fill:rgb(35,31,32);">Main Stor<tspan x="656.285px " y="1478.71px ">e</tspan></text>
        </g>
        <g transform="matrix(1,0,0,1,594.776,-479.575)">
            <text x="440.859px" y="1478.71px" style="font-family:'HelveticaNeue', 'Helvetica Neue';font-size:41.667px;fill:rgb(35,31,32);">Sneaker</text>
            <g transform="matrix(41.6667,0,0,41.6667,565.089,1521.54)">
            </g>
            <text x="469.422px" y="1521.54px" style="font-family:'HelveticaNeue', 'Helvetica Neue';font-size:41.667px;fill:rgb(35,31,32);">Drive</text>
        </g>
        <g transform="matrix(1,0,0,1,917.372,-656.329)">
            <text x="440.88px" y="1478.71px" style="font-family:'HelveticaNeue-Italic', 'Helvetica Neue';font-style:italic;font-size:41.667px;fill:rgb(126,126,126);">Physical</text>
            <text x="433.526px" y="1521.54px" style="font-family:'HelveticaNeue-Italic', 'Helvetica Neue';font-style:italic;font-size:41.667px;fill:rgb(126,126,126);">transport</text>
            <g transform="matrix(41.6667,0,0,41.6667,588.214,1564.38)">
            </g>
            <text x="446.297px" y="1564.38px" style="font-family:'HelveticaNeue-Italic', 'Helvetica Neue';font-style:italic;font-size:41.667px;fill:rgb(126,126,126);">of disks</text>
        </g>
        <g transform="matrix(1,0,0,1,830.114,-992.53)">
            <g transform="matrix(41.6667,0,0,41.6667,744.555,1478.71)">
            </g>
            <text x="469.096px" y="1478.71px" style="font-family:'HelveticaNeue-Italic', 'Helvetica Neue';font-style:italic;font-size:41.667px;fill:rgb(126,126,126);">HTTP Callback</text>
        </g>
        <g id="kiko-external-drive1" serif:id="kiko-external-drive" transform="matrix(0.104167,0,0,0.104167,1673.31,583.776)">
            <path d="M1024.5,151.5C1033.5,160.5 1038,171.667 1038,185L1038,341C1038,353.667 1033.5,364.667 1024.5,374C1015.5,383.333 1004.33,388 991,388L975,388L975,888C975,922.667 962.833,952.167 938.5,976.5C914.167,1000.83 884.667,1013 850,1013L538,1013C503.333,1013 473.833,1000.83 449.5,976.5C425.167,952.167 413,922.667 413,888L397,888C384.333,888 373.333,883.333 364,874C354.667,864.667 350,853.667 350,841L350,794L241,794C215.667,794 192.167,787.667 170.5,775C148.833,762.333 131.667,745.333 119,724C106.333,702.667 100,679.333 100,654L100,154C100,128.667 106.333,105.167 119,83.5C131.667,61.833 148.833,44.667 170.5,32C192.167,19.333 215.667,13 241,13L585,13C610.333,13 633.667,19.333 655,32C676.333,44.667 693.333,61.833 706,83.5C718.667,105.167 725,128.667 725,154L725,654C725,679.333 718.667,702.667 706,724C693.333,745.333 676.333,762.333 655,775C633.667,787.667 610.333,794 585,794L569,794L569,841C569,853.667 564.5,864.667 555.5,874C546.5,883.333 535.333,888 522,888L507,888C506.333,896.667 509.167,904 515.5,910C521.833,916 529.333,919 538,919L850,919C858.667,919 866.167,916 872.5,910C878.833,904 882,896.667 882,888L882,388L866,388C853.333,388 842.333,383.333 833,374C823.667,364.667 819,353.667 819,341L819,185C819,171.667 823.667,160.5 833,151.5C842.333,142.5 853.333,138 866,138L882,138L882,91C881.333,78.333 885.5,67.333 894.5,58C903.5,48.667 914.667,44 928,44C941.333,44 952.5,48.5 961.5,57.5C970.5,66.5 975,77.667 975,91L975,138L991,138C1004.33,138 1015.5,142.5 1024.5,151.5ZM475,732L444,732L444,794L475,794L475,732ZM208,499C217.333,508.333 228.333,513 241,513L585,513C598.333,513 609.5,508.333 618.5,499C627.5,489.667 632,478.667 632,466L632,154C632,140.667 627.5,129.5 618.5,120.5C609.5,111.5 598.333,107 585,107L241,107C228.333,107 217.333,111.5 208,120.5C198.667,129.5 194,140.667 194,154L194,466C194,478.667 198.667,489.667 208,499ZM555.5,651.5C564.5,660.5 569,671.667 569,685L569,700L585,700C597.667,700.667 608.667,696.5 618,687.5C627.333,678.5 632,667.333 632,654L631,598C616.333,604 601,607 585,607L241,607C225,607 209.333,604 194,598L194,654C194,666.667 198.5,677.5 207.5,686.5C216.5,695.5 227.667,700 241,700L350,700L350,685C350,671.667 354.667,660.5 364,651.5C373.333,642.5 384.333,638 397,638L522,638C535.333,638 546.5,642.5 555.5,651.5ZM944,232L913,232L913,294L944,294L944,232Z" style="fill-rule:nonzero;"/>
        </g>
        <g transform="matrix(1,0,0,1,1215.32,-733.043)">
            <text x="440.859px" y="1478.71px" style="font-family:'HelveticaNeue', 'Helvetica Neue';font-size:41.667px;fill:rgb(35,31,32);">Sneaker</text>
            <g transform="matrix(41.6667,0,0,41.6667,565.089,1521.54)">
            </g>
            <text x="469.422px" y="1521.54px" style="font-family:'HelveticaNeue', 'Helvetica Neue';font-size:41.667px;fill:rgb(35,31,32);">Drive</text>
        </g>
        <g transform="matrix(1,0,0,1,1565.1,-733.043)">
            <g transform="matrix(41.6667,0,0,41.6667,631.58,1478.71)">
            </g>
            <text x="432.413px" y="1478.71px" style="font-family:'HelveticaNeue', 'Helvetica Neue';font-size:41.667px;fill:rgb(35,31,32);">Checksum</text>
        </g>
        <g transform="matrix(1,0,0,1,185.477,-733.54)">
            <g transform="matrix(41.6667,0,0,41.6667,657.431,1478.71)">
            </g>
            <text x="497.681px" y="1478.71px" style="font-family:'HelveticaNeue', 'Helvetica Neue';font-size:41.667px;fill:rgb(35,31,32);">Manifest</text>
        </g>
        <g transform="matrix(1,0,0,1,1155.02,-479.044)">
            <g transform="matrix(41.6667,0,0,41.6667,657.431,1478.71)">
            </g>
            <text x="497.681px" y="1478.71px" style="font-family:'HelveticaNeue', 'Helvetica Neue';font-size:41.667px;fill:rgb(35,31,32);">Manifest</text>
        </g>
        <g transform="matrix(1,0,0,1,311.055,-1093.84)">
            <g transform="matrix(41.6667,0,0,41.6667,800.723,1478.71)">
            </g>
            <text x="472.015px" y="1478.71px" style="font-family:'HelveticaNeue-Bold', 'Helvetica Neue';font-weight:700;font-size:41.667px;fill:rgb(35,31,32);">Sour<tspan x="564.681px 588.598px " y="1478.71px 1478.71px ">ce</tspan> Librarian</text>
        </g>
        <g transform="matrix(1,0,0,1,1283.55,-1093.84)">
            <g transform="matrix(41.6667,0,0,41.6667,843.869,1478.71)">
            </g>
            <text x="428.869px" y="1478.71px" style="font-family:'HelveticaNeue-Bold', 'Helvetica Neue';font-weight:700;font-size:41.667px;fill:rgb(35,31,32);">Destination Librarian</text>
        </g>
        <g id="kiko-exclamation-circle" transform="matrix(0.0522137,0,0,0.0522137,1058.13,613.783)">
            <path d="M780,889C849.333,848.333 904.333,793.333 945,724C985.667,654.667 1006,579 1006,497C1006,415 985.833,339.333 945.5,270C905.167,200.667 850.167,145.667 780.5,105C710.833,64.333 635,44 553,44C471,44 395.333,64.333 326,105C256.667,145.667 201.667,200.667 161,270C120.333,339.333 100,415 100,497C100,579 120.333,654.667 161,724C201.667,793.333 256.667,848.333 326,889C395.333,929.667 471,950 553,950C635,950 710.667,929.667 780,889ZM733.5,186.5C788.5,218.833 832.167,262.5 864.5,317.5C896.833,372.5 913,432.333 913,497C913,562.333 896.833,622.5 864.5,677.5C832.167,732.5 788.5,776.167 733.5,808.5C678.5,840.833 618.333,857 553,857C488.333,857 428.5,840.833 373.5,808.5C318.5,776.167 274.833,732.5 242.5,677.5C210.167,622.5 194,562.333 194,497C194,432.333 210.167,372.5 242.5,317.5C274.833,262.5 318.5,218.833 373.5,186.5C428.5,154.167 488.333,138 553,138C618.333,138 678.5,154.167 733.5,186.5ZM586.5,561.5C577.5,570.5 566.333,575 553,575C540.333,575.667 529.5,571.5 520.5,562.5C511.5,553.5 507,542.333 507,529L507,310C506.333,297.333 510.5,286.333 519.5,277C528.5,267.667 539.667,263 553,263C566.333,263 577.5,267.5 586.5,276.5C595.5,285.5 600,296.667 600,310L600,529C600,541.667 595.5,552.5 586.5,561.5ZM586.5,651.5C595.5,660.5 600,671.667 600,685C600,697.667 595.5,708.667 586.5,718C577.5,727.333 566.333,732 553,732C540.333,732 529.5,727.5 520.5,718.5C511.5,709.5 507,698.333 507,685C506.333,672.333 510.5,661.333 519.5,652C528.5,642.667 539.667,638 553,638C566.333,638 577.5,642.5 586.5,651.5Z" style="fill:rgb(149,149,149);fill-rule:nonzero;"/>
        </g>
        <g transform="matrix(1,0,0,1,500.536,-1015.28)">
            <text x="632.835px" y="1642.25px" style="font-family:'HelveticaNeue', 'Helvetica Neue';font-size:41.667px;fill:rgb(35,31,32);">Drive</text>
            <g transform="matrix(41.6667,0,0,41.6667,723.481,1685.08)">
            </g>
            <text x="637.856px" y="1685.08px" style="font-family:'HelveticaNeue', 'Helvetica Neue';font-size:41.667px;fill:rgb(35,31,32);">Alert</text>
        </g>
        <g transform="matrix(1,0,0,1,1293.49,-1165.82)">
            <g transform="matrix(41.6667,0,0,41.6667,822.344,1642.25)">
            </g>
            <text x="702.803px" y="1642.25px" style="font-family:'HelveticaNeue-Italic', 'Helvetica Neue';font-style:italic;font-size:41.667px;">Server</text>
        </g>
        <g transform="matrix(1,0,0,-1,0,1541.76)">
            <g transform="matrix(1,0,0,-1,301,1242.76)">
                <path d="M366.038,529.309L367.742,538.432L358.619,540.136" style="fill:none;stroke:rgb(35,31,32);stroke-width:2.92px;"/>
                <path d="M234.82,447.353C234.82,447.353 352.161,527.756 367.742,538.432" style="fill:none;stroke:rgb(35,31,32);stroke-width:2.92px;stroke-linejoin:round;stroke-miterlimit:1.5;"/>
            </g>
        </g>
        <g transform="matrix(1,0,0,1,0,-52.1673)">
            <g transform="matrix(1,-0,-0,1,301,351.167)">
                <path d="M552.964,347.295L546.401,340.733L552.964,334.17" style="fill:none;stroke:black;stroke-width:2.92px;"/>
                <path d="M746.069,340.733L546.401,340.733" style="fill:none;stroke:black;stroke-width:2.92px;stroke-linejoin:round;stroke-miterlimit:1.5;"/>
            </g>
        </g>
        <g transform="matrix(1,0,0,1,0,-52.1673)">
            <g transform="matrix(1,-0,-0,1,301,351.167)">
                <path d="M777.383,440.79L783.945,447.353L777.383,453.915" style="fill:none;stroke:black;stroke-width:2.92px;"/>
                <path d="M645.204,340.733L645.204,447.353L783.945,447.353" style="fill:none;stroke:black;stroke-width:2.92px;stroke-linejoin:round;stroke-miterlimit:1.5;"/>
            </g>
        </g>
        <g transform="matrix(1,0,0,1,0,-52.1673)">
            <g transform="matrix(1,-0,-0,1,301,351.167)">
                <path d="M476.726,257.546L470.163,264.108L463.601,257.546" style="fill:none;stroke:black;stroke-width:2.92px;"/>
                <path d="M586.163,174.368L470.163,174.368L470.163,264.108" style="fill:none;stroke:black;stroke-width:2.92px;stroke-linejoin:round;stroke-miterlimit:1.5;"/>
            </g>
        </g>
        <g transform="matrix(1,0,0,1,95.6625,-52.1673)">
            <g transform="matrix(1,-0,-0,1,205.338,351.167)">
                <path d="M1715.17,330.017L1721.74,336.58L1715.17,343.142" style="fill:none;stroke:black;stroke-width:2.92px;"/>
                <path d="M1513.3,336.58L1721.74,336.58" style="fill:none;stroke:black;stroke-width:2.92px;stroke-linejoin:round;stroke-miterlimit:1.5;"/>
            </g>
        </g>
        <g transform="matrix(1,0,0,1,95.6625,-52.1673)">
            <g transform="matrix(1,-0,-0,1,205.338,351.167)">
                <path d="M1802.65,510.019L1796.09,516.582L1789.53,510.019" style="fill:none;stroke:black;stroke-width:2.92px;"/>
                <path d="M1796.09,467.78L1796.09,516.582" style="fill:none;stroke:black;stroke-width:2.92px;stroke-linejoin:round;stroke-miterlimit:1.5;"/>
            </g>
        </g>
        <g transform="matrix(1,0,0,1,95.6625,-52.1673)">
            <g transform="matrix(1,-0,-0,1,205.338,351.167)">
                <path d="M1611.99,245.071L1618.55,238.509L1625.11,245.071" style="fill:none;stroke:black;stroke-width:2.92px;"/>
                <path d="M1513.3,593.33L1618.55,593.33L1618.55,238.509" style="fill:none;stroke:black;stroke-width:2.92px;stroke-linejoin:round;stroke-miterlimit:1.5;"/>
            </g>
        </g>
        <g transform="matrix(1,0,0,1,95.6625,-52.1673)">
            <g transform="matrix(1,-0,-0,1,205.338,351.167)">
                <path d="M1446.05,259.5L1439.49,266.062L1432.92,259.5" style="fill:none;stroke:black;stroke-width:2.92px;"/>
                <path d="M1565.92,171.898L1439.49,171.898L1439.49,266.062" style="fill:none;stroke:black;stroke-width:2.92px;stroke-linejoin:round;stroke-miterlimit:1.5;"/>
            </g>
        </g>
    </g>
</svg>
