<?xml version="1.0" encoding="UTF-8" standalone="no"?>
<!-- Created with Inkscape (http://www.inkscape.org/) -->

<svg
   xmlns:dc="http://purl.org/dc/elements/1.1/"
   xmlns:cc="http://creativecommons.org/ns#"
   xmlns:rdf="http://www.w3.org/1999/02/22-rdf-syntax-ns#"
   xmlns:svg="http://www.w3.org/2000/svg"
   xmlns="http://www.w3.org/2000/svg"
   xmlns:sodipodi="http://sodipodi.sourceforge.net/DTD/sodipodi-0.dtd"
   xmlns:inkscape="http://www.inkscape.org/namespaces/inkscape"
   id="svg4235"
   version="1.1"
   inkscape:version="0.48.4 r9939"
   width="754.71878"
   height="887.43751"
   xml:space="preserve"
   sodipodi:docname="display_system.pdf"><metadata
     id="metadata4241"><rdf:RDF><cc:Work
         rdf:about=""><dc:format>image/svg+xml</dc:format><dc:type
           rdf:resource="http://purl.org/dc/dcmitype/StillImage" /><dc:title></dc:title></cc:Work></rdf:RDF></metadata><defs
     id="defs4239" /><sodipodi:namedview
     pagecolor="#ffffff"
     bordercolor="#666666"
     borderopacity="1"
     objecttolerance="10"
     gridtolerance="10"
     guidetolerance="10"
     inkscape:pageopacity="0"
     inkscape:pageshadow="2"
     inkscape:window-width="640"
     inkscape:window-height="480"
     id="namedview4237"
     showgrid="false"
     inkscape:zoom="0.26593422"
     inkscape:cx="377.35937"
     inkscape:cy="443.71875"
     inkscape:window-x="0"
     inkscape:window-y="0"
     inkscape:window-maximized="0"
     inkscape:current-layer="g4243" /><g
     id="g4243"
     inkscape:groupmode="layer"
     inkscape:label="display_system"
     transform="matrix(1.25,0,0,-1.25,0,887.43751)"><g
       id="g4245"><g
         id="g4247"
         transform="matrix(1,0,0,-1,0,709.95001)"><path
           d="m 20.746,1.195 562.281,0 c 10.832,0 19.555,8.723 19.555,19.559 l 0,668.43 c 0,10.836 -8.723,19.554 -19.555,19.554 l -562.281,0 c -10.832,0 -19.555,-8.718 -19.555,-19.554 l 0,-668.43 C 1.191,9.918 9.914,1.195 20.746,1.195 z"
           style="fill:#e6e6e6;fill-opacity:1;fill-rule:nonzero;stroke:#000000;stroke-opacity:1;stroke-width:2.4;stroke-linecap:butt;stroke-linejoin:miter;stroke-miterlimit:4;stroke-dasharray:none"
           id="path4249" /></g><g
         id="g4251"
         transform="matrix(1,0,0,-1,0,709.95001)"><path
           d="m 48.969,185.902 181.461,0 c 2.113,0 3.82,1.703 3.82,3.821 l 0,62.664 c 0,2.117 -1.707,3.82 -3.82,3.82 l -181.461,0 c -2.117,0 -3.821,-1.703 -3.821,-3.82 l 0,-62.664 c 0,-2.118 1.704,-3.821 3.821,-3.821 z"
           style="fill:#f4d7d7;fill-opacity:1;fill-rule:nonzero;stroke:#d40000;stroke-opacity:1;stroke-width:2.4;stroke-linecap:butt;stroke-linejoin:miter;stroke-miterlimit:4;stroke-dasharray:none"
           id="path4253" /></g><g
         id="g4255"
         transform="matrix(1,0,0,-1,0,709.95001)"><path
           d="m 2.648,336.578 597.832,0"
           style="fill:none;stroke:#000000;stroke-opacity:1;stroke-width:2.4;stroke-linecap:butt;stroke-linejoin:miter;stroke-miterlimit:4;stroke-dasharray:none"
           id="path4257" /></g><g
         id="g4259"
         transform="matrix(1,0,0,-1,0,709.95001)"><path
           d="m 301.887,336.59 0,-230.824"
           style="fill:none;stroke:#000000;stroke-opacity:1;stroke-width:2.4;stroke-linecap:butt;stroke-linejoin:miter;stroke-miterlimit:4;stroke-dasharray:none"
           id="path4261" /></g><g
         id="g4263"
         transform="matrix(1,0,0,-1,0,709.95001)"><path
           d="m 210.137,380.227 183.5,0 c 5.691,0 10.277,4.582 10.277,10.273 l 0,168.551 c 0,5.691 -4.586,10.277 -10.277,10.277 l -183.5,0 c -5.692,0 -10.274,-4.586 -10.274,-10.277 l 0,-168.551 c 0,-5.691 4.582,-10.273 10.274,-10.273 z"
           style="fill:#d7f4d7;fill-opacity:1;fill-rule:nonzero;stroke:#008000;stroke-opacity:1;stroke-width:2.4;stroke-linecap:butt;stroke-linejoin:miter;stroke-miterlimit:4;stroke-dasharray:none"
           id="path4265" /></g><text
         transform="matrix(1,0,0,-1,271.57572,230.38464)"
         id="text4267"><tspan
           style="fill:#000000;fill-opacity:1;fill-rule:nonzero;stroke:none;font-family:Liberation Sans;font-variant:normal;font-weight:normal;font-size:19.2;writing-mode:lr;-inkscape-font-specification:LiberationSans"
           x="0 12.7872 17.0496 27.7248 33.0432 38.3616 42.624 53.2992"
           y="0"
           sodipodi:role="line"
           id="tspan4269">Plotting</tspan></text>
<g
         id="g4271"
         transform="matrix(1,0,0,-1,0,709.95001)"><path
           d="m 193.18,467.836 -53.293,0.199 -0.032,-209.625"
           style="fill:none;stroke:#000000;stroke-opacity:1;stroke-width:2.4;stroke-linecap:butt;stroke-linejoin:miter;stroke-miterlimit:4;stroke-dasharray:none"
           id="path4273" /></g><g
         id="g4275"
         transform="matrix(1,0.00373637,0.00373637,-1,0,709.95001)"><path
           d="m 196.968,468.548 -8.303,4.801 0.001,-9.597 8.302,4.796 z"
           style="fill:#000000;fill-opacity:1;fill-rule:evenodd;stroke:#000000;stroke-opacity:1;stroke-width:1.199992;stroke-linecap:butt;stroke-linejoin:miter;stroke-miterlimit:4;stroke-dasharray:none"
           id="path4277" /></g><g
         id="g4279"
         transform="matrix(1,0,0,-1,0,709.95001)"><path
           d="m 412.094,469.008 60.168,0.152 0.039,-161.867"
           style="fill:none;stroke:#000000;stroke-opacity:1;stroke-width:2.4;stroke-linecap:butt;stroke-linejoin:miter;stroke-miterlimit:4;stroke-dasharray:none"
           id="path4281" /></g><g
         id="g4283"
         transform="matrix(-1,0.00255423,0.00255423,1,0,709.95001)"><path
           d="m -407.75,-467.955 -8.304,4.803 -0.001,-9.602 8.305,4.799 z"
           style="fill:#000000;fill-opacity:1;fill-rule:evenodd;stroke:#000000;stroke-opacity:1;stroke-width:1.199996;stroke-linecap:butt;stroke-linejoin:miter;stroke-miterlimit:4;stroke-dasharray:none"
           id="path4285" /></g><g
         id="g4287"
         transform="matrix(1,0,0,-1,0,709.95001)"><path
           d="m 301.844,570.438 0,68.917"
           style="fill:none;stroke:#000000;stroke-opacity:1;stroke-width:2.4;stroke-linecap:butt;stroke-linejoin:miter;stroke-miterlimit:4;stroke-dasharray:none"
           id="path4289" /></g><path
         d="M 312.492,96.251 301.887,67.407 291.281,96.251 c 6.262,-4.61 14.828,-4.582 21.211,0 z"
         style="fill:#000000;fill-opacity:1;fill-rule:evenodd;stroke:none"
         id="path4291" /><text
         transform="matrix(1,0,0,-1,144.13917,221.37037)"
         id="text4293"><tspan
           style="fill:#000000;fill-opacity:1;fill-rule:nonzero;stroke:none;font-family:Liberation Sans;font-variant:normal;font-weight:normal;font-size:19.2;writing-mode:lr;-inkscape-font-specification:LiberationSans"
           x="0 13.8624 24.5376 29.856"
           y="0"
           sodipodi:role="line"
           id="tspan4295">Data</tspan><tspan
           style="fill:#000000;fill-opacity:1;fill-rule:nonzero;stroke:none;font-family:Liberation Sans;font-variant:normal;font-weight:normal;font-size:19.2;writing-mode:lr;-inkscape-font-specification:LiberationSans"
           x="271.9999872 285.8623872 290.1247872 299.7247872 310.3999872 314.6623872 325.3375872 334.9375872 340.2559872 350.9311872 361.6639872 366.9823872 371.2447872 381.9199872 392.5951872"
           y="1.1428704"
           sodipodi:role="line"
           id="tspan4297">Display options</tspan></text>
<g
         id="g4299"
         transform="matrix(1,0,0,-1,0,709.95001)"><path
           d="m 236.461,221.605 131.789,0"
           style="fill:none;stroke:#000000;stroke-opacity:1;stroke-width:2.4;stroke-linecap:butt;stroke-linejoin:miter;stroke-miterlimit:4;stroke-dasharray:2.4,2.4;stroke-dashoffset:0"
           id="path4301" /></g><g
         id="g4303"
         transform="matrix(1,0,0,-1,0,709.95001)"><path
           d="m 373.789,221.605 -8.305,4.797 0,-9.597 8.305,4.8 z"
           style="fill:#000000;fill-opacity:1;fill-rule:evenodd;stroke:#000000;stroke-opacity:1;stroke-width:1.2;stroke-linecap:butt;stroke-linejoin:miter;stroke-miterlimit:4;stroke-dasharray:none"
           id="path4305" /></g><text
         transform="matrix(1,0,0,-1,249.44034,470.28536)"
         id="text4307"><tspan
           style="fill:#000000;fill-opacity:1;fill-rule:nonzero;stroke:none;font-family:Liberation Sans;font-variant:normal;font-weight:normal;font-size:19.2;writing-mode:lr;-inkscape-font-specification:LiberationSans"
           x="0 5.3184 14.9184 25.5936"
           y="0"
           sodipodi:role="line"
           id="tspan4309">type</tspan><tspan
           style="fill:#000000;fill-opacity:1;fill-rule:nonzero;stroke:none;font-family:Liberation Sans;font-variant:normal;font-weight:normal;font-size:19.2;writing-mode:lr;-inkscape-font-specification:LiberationSans"
           x="0 10.6752 17.0688 27.744 38.4192"
           y="24"
           sodipodi:role="line"
           id="tspan4311">group</tspan><tspan
           style="fill:#000000;fill-opacity:1;fill-rule:nonzero;stroke:none;font-family:Liberation Sans;font-variant:normal;font-weight:normal;font-size:19.2;writing-mode:lr;-inkscape-font-specification:LiberationSans"
           x="0 4.2624 14.9376 25.6128 36.288"
           y="48"
           sodipodi:role="line"
           id="tspan4313">label</tspan><tspan
           style="fill:#000000;fill-opacity:1;fill-rule:nonzero;stroke:none;font-family:Liberation Sans;font-variant:normal;font-weight:normal;font-size:19.2;writing-mode:lr;-inkscape-font-specification:LiberationSans"
           x="0 4.2624"
           y="72"
           sodipodi:role="line"
           id="tspan4315">id</tspan></text>
<text
         transform="matrix(1,0,0,-1,269.89932,650.61568)"
         id="text4317"><tspan
           style="fill:#000000;fill-opacity:1;fill-rule:nonzero;stroke:none;font-family:Liberation Sans;font-variant:normal;font-weight:bold;font-size:25.6;writing-mode:lr;-inkscape-font-specification:LiberationSans-Bold"
           x="0 7.0912 22.7072 38.3232 53.9392"
           y="0"
           sodipodi:role="line"
           id="tspan4319">Input</tspan></text>
<g
         id="g4321"
         transform="matrix(1,0,0,-1,0,709.95001)"><path
           d="m 0.598,590.754 600.964,0"
           style="fill:none;stroke:#000000;stroke-opacity:1;stroke-width:2.4;stroke-linecap:butt;stroke-linejoin:miter;stroke-miterlimit:4;stroke-dasharray:none"
           id="path4323" /></g><text
         transform="matrix(1,0,0,-1,21.315723,90.418811)"
         id="text4325"><tspan
           style="fill:#000000;fill-opacity:1;fill-rule:nonzero;stroke:none;font-family:Liberation Sans;font-variant:normal;font-weight:bold;font-size:25.6;writing-mode:lr;-inkscape-font-specification:LiberationSans-Bold"
           x="0 19.8912 35.5072 44.032 59.648 75.264"
           y="0"
           sodipodi:role="line"
           id="tspan4327">Output</tspan><tspan
           style="fill:#000000;fill-opacity:1;fill-rule:nonzero;stroke:none;font-family:Liberation Sans;font-variant:normal;font-weight:bold;font-size:25.6;writing-mode:lr;-inkscape-font-specification:LiberationSans-Bold"
           x="217.252352 235.735552 249.969152 265.585152 281.201152 295.434752 305.393152 312.484352 328.100352"
           y="-253.8165"
           sodipodi:role="line"
           id="tspan4329">Rendering</tspan></text>
<g
         id="g4331"
         transform="matrix(1,0,0,-1,0,709.95001)"><path
           d="m 386.09,143.852 171.492,0 c 4.879,0 8.805,3.925 8.805,8.804 l 0,144.418 c 0,4.879 -3.926,8.805 -8.805,8.805 l -171.492,0 c -4.879,0 -8.805,-3.926 -8.805,-8.805 l 0,-144.418 c 0,-4.879 3.926,-8.804 8.805,-8.804 z"
           style="fill:#d5e5ff;fill-opacity:1;fill-rule:nonzero;stroke:#003380;stroke-opacity:1;stroke-width:2.4;stroke-linecap:butt;stroke-linejoin:miter;stroke-miterlimit:4;stroke-dasharray:none"
           id="path4333" /></g><text
         transform="matrix(1,0,0,-1,417.01338,582.42329)"
         id="text4335"><tspan
           style="fill:#000000;fill-opacity:1;fill-rule:nonzero;stroke:none;font-family:Liberation Sans;font-variant:normal;font-weight:bold;font-size:25.6;writing-mode:lr;-inkscape-font-specification:LiberationSans-Bold"
           x="0 19.8912 35.5072 44.032 51.1232 66.7392 82.3552"
           y="0"
           sodipodi:role="line"
           id="tspan4337">Options</tspan></text>
<text
         transform="matrix(1,0,0,-1,451.16494,521.2735)"
         id="text4339"><tspan
           style="fill:#000000;fill-opacity:1;fill-rule:nonzero;stroke:none;font-family:Liberation Sans;font-variant:normal;font-weight:normal;font-size:19.2;writing-mode:lr;-inkscape-font-specification:LiberationSans"
           x="0 10.6752 20.2752 30.9504"
           y="0"
           sodipodi:role="line"
           id="tspan4341">Type</tspan></text>
<g
         id="g4343"
         transform="matrix(1,0,0,-1,0,709.95001)"><path
           d="m 415.812,164.555 109.145,0"
           style="fill:none;stroke:#000000;stroke-opacity:1;stroke-width:1.6;stroke-linecap:butt;stroke-linejoin:miter;stroke-miterlimit:4;stroke-dasharray:none"
           id="path4345" /></g><g
         id="g4347"
         transform="matrix(1,0,0,-1,0,709.95001)"><path
           d="m 470.754,164.504 0,8.484"
           style="fill:none;stroke:#000000;stroke-opacity:1;stroke-width:1.6;stroke-linecap:butt;stroke-linejoin:miter;stroke-miterlimit:4;stroke-dasharray:none"
           id="path4349" /></g><g
         id="g4351"
         transform="matrix(1,0,0,-1,0,709.95001)"><path
           d="m 524.863,165.969 0,17.371"
           style="fill:none;stroke:#000000;stroke-opacity:1;stroke-width:1.6;stroke-linecap:butt;stroke-linejoin:miter;stroke-miterlimit:4;stroke-dasharray:1.6,1.6;stroke-dashoffset:0"
           id="path4353" /></g><g
         id="g4355"
         transform="matrix(1,0,0,-1,0,709.95001)"><path
           d="m 416.648,166.121 0,17.371"
           style="fill:none;stroke:#000000;stroke-opacity:1;stroke-width:1.6;stroke-linecap:butt;stroke-linejoin:miter;stroke-miterlimit:4;stroke-dasharray:1.6,1.6;stroke-dashoffset:0"
           id="path4357" /></g><g
         id="g4359"
         transform="matrix(1,0,0,-1,0,709.95001)"><path
           d="m 470.742,195.156 0,22.914 -54.797,0"
           style="fill:none;stroke:#000000;stroke-opacity:1;stroke-width:1.6;stroke-linecap:butt;stroke-linejoin:miter;stroke-miterlimit:4;stroke-dasharray:none"
           id="path4361" /></g><g
         id="g4363"
         transform="matrix(1,0,0,-1,0,709.95001)"><path
           d="m 470.719,219.625 0,17.371"
           style="fill:none;stroke:#000000;stroke-opacity:1;stroke-width:1.6;stroke-linecap:butt;stroke-linejoin:miter;stroke-miterlimit:4;stroke-dasharray:1.6,1.6;stroke-dashoffset:0"
           id="path4365" /></g><g
         id="g4367"
         transform="matrix(1,0,0,-1,0,709.95001)"><path
           d="m 468.812,218.07 57,0"
           style="fill:none;stroke:#000000;stroke-opacity:1;stroke-width:1.6;stroke-linecap:butt;stroke-linejoin:miter;stroke-miterlimit:4;stroke-dasharray:none"
           id="path4369" /></g><g
         id="g4371"
         transform="matrix(1,0,0,-1,0,709.95001)"><path
           d="m 524.996,218.812 0,8.485"
           style="fill:none;stroke:#000000;stroke-opacity:1;stroke-width:1.6;stroke-linecap:butt;stroke-linejoin:miter;stroke-miterlimit:4;stroke-dasharray:none"
           id="path4373" /></g><g
         id="g4375"
         transform="matrix(1,0,0,-1,0,709.95001)"><path
           d="m 524.562,246.656 0,22.914 -106.718,0"
           style="fill:none;stroke:#000000;stroke-opacity:1;stroke-width:1.6;stroke-linecap:butt;stroke-linejoin:miter;stroke-miterlimit:4;stroke-dasharray:none"
           id="path4377" /></g><g
         id="g4379"
         transform="matrix(1,0,0,-1,0,709.95001)"><path
           d="m 416.777,219.859 0,17.371"
           style="fill:none;stroke:#000000;stroke-opacity:1;stroke-width:1.6;stroke-linecap:butt;stroke-linejoin:miter;stroke-miterlimit:4;stroke-dasharray:1.6,1.6;stroke-dashoffset:0"
           id="path4381" /></g><g
         id="g4383"
         transform="matrix(1,0,0,-1,0,709.95001)"><path
           d="m 524.125,271.695 0,17.371"
           style="fill:none;stroke:#000000;stroke-opacity:1;stroke-width:1.6;stroke-linecap:butt;stroke-linejoin:miter;stroke-miterlimit:4;stroke-dasharray:1.6,1.6;stroke-dashoffset:0"
           id="path4385" /></g><g
         id="g4387"
         transform="matrix(1,0,0,-1,0,709.95001)"><path
           d="m 469.871,270.258 0,8.484"
           style="fill:none;stroke:#000000;stroke-opacity:1;stroke-width:1.6;stroke-linecap:butt;stroke-linejoin:miter;stroke-miterlimit:4;stroke-dasharray:none"
           id="path4389" /></g><text
         transform="matrix(1,0,0,-1,495.2751,466.22272)"
         id="text4391"><tspan
           style="fill:#000000;fill-opacity:1;fill-rule:nonzero;stroke:none;font-family:Liberation Sans;font-variant:normal;font-weight:normal;font-size:19.2;writing-mode:lr;-inkscape-font-specification:LiberationSans"
           x="0 14.9184 21.312 31.9872 42.6624"
           y="0"
           sodipodi:role="line"
           id="tspan4393">Group</tspan><tspan
           style="fill:#000000;fill-opacity:1;fill-rule:nonzero;stroke:none;font-family:Liberation Sans;font-variant:normal;font-weight:normal;font-size:19.2;writing-mode:lr;-inkscape-font-specification:LiberationSans"
           x="-48.571488 -37.896288 -27.221088 -16.545888 -5.870688"
           y="50.438285"
           sodipodi:role="line"
           id="tspan4395">Label</tspan></text>
<g
         id="g4397"
         transform="matrix(1,0,0,-1,0,709.95001)"><path
           d="m 419.723,271.336 0,17.371"
           style="fill:none;stroke:#000000;stroke-opacity:1;stroke-width:1.6;stroke-linecap:butt;stroke-linejoin:miter;stroke-miterlimit:4;stroke-dasharray:1.6,1.6;stroke-dashoffset:0"
           id="path4399" /></g><text
         transform="matrix(1,0,0,-1,53.372369,483.92682)"
         id="text4401"><tspan
           style="fill:#000000;fill-opacity:1;fill-rule:nonzero;stroke:none;font-family:Liberation Sans;font-variant:normal;font-weight:normal;font-size:19.2;writing-mode:lr;-inkscape-font-specification:LiberationSans"
           x="0 6.3936 19.1808 23.4432 34.176 50.1696 60.8448 71.52 76.8384 82.1568 96.0192 106.6944 117.3696 122.688 133.3632 137.6832 148.3584 159.0336 165.4272"
           y="0"
           sodipodi:role="line"
           id="tspan4403">(Element/Container)</tspan><tspan
           style="fill:#000000;fill-opacity:1;fill-rule:nonzero;stroke:none;font-family:Liberation Sans;font-variant:normal;font-weight:normal;font-size:19.2;writing-mode:lr;-inkscape-font-specification:LiberationSans"
           x="221.8941312 235.7565312 247.4685312 263.4621312"
           y="442.61445"
           sodipodi:role="line"
           id="tspan4405">HTML</tspan></text>
<g
         id="g4407"
         transform="matrix(1,0,0,-1,0,709.95001)"><path
           d="m 2.188,105.527 599.257,0"
           style="fill:none;stroke:#000000;stroke-opacity:1;stroke-width:2.4;stroke-linecap:butt;stroke-linejoin:miter;stroke-miterlimit:4;stroke-dasharray:none"
           id="path4409" /></g><text
         transform="matrix(1,0,0,-1,98.000684,579.54307)"
         id="text4411"><tspan
           style="fill:#000000;fill-opacity:1;fill-rule:nonzero;stroke:none;font-family:Liberation Sans;font-variant:normal;font-weight:bold;font-size:25.6;writing-mode:lr;-inkscape-font-specification:LiberationSans-Bold"
           x="0 18.4832 34.0992 49.7152 58.24 72.5504 88.1664"
           y="0"
           sodipodi:role="line"
           id="tspan4413">Content</tspan></text>
</g></g></svg>