<?xml version="1.0" encoding="UTF-8" standalone="no"?>
<!-- Created with Inkscape (http://www.inkscape.org/) -->

<svg
   xmlns:dc="http://purl.org/dc/elements/1.1/"
   xmlns:cc="http://creativecommons.org/ns#"
   xmlns:rdf="http://www.w3.org/1999/02/22-rdf-syntax-ns#"
   xmlns:svg="http://www.w3.org/2000/svg"
   xmlns="http://www.w3.org/2000/svg"
   xmlns:sodipodi="http://sodipodi.sourceforge.net/DTD/sodipodi-0.dtd"
   xmlns:inkscape="http://www.inkscape.org/namespaces/inkscape"
   id="svg4235"
   version="1.1"
   inkscape:version="0.48.4 r9939"
   width="792.46289"
   height="778.38068"
   xml:space="preserve"
   sodipodi:docname="display_system.svg"><metadata
     id="metadata4241"><rdf:RDF><cc:Work
         rdf:about=""><dc:format>image/svg+xml</dc:format><dc:type
           rdf:resource="http://purl.org/dc/dcmitype/StillImage" /><dc:title></dc:title></cc:Work></rdf:RDF></metadata><defs
     id="defs4239" /><sodipodi:namedview
     pagecolor="#ffffff"
     bordercolor="#666666"
     borderopacity="1"
     objecttolerance="10"
     gridtolerance="10"
     guidetolerance="10"
     inkscape:pageopacity="0"
     inkscape:pageshadow="2"
     inkscape:window-width="1366"
     inkscape:window-height="743"
     id="namedview4237"
     showgrid="false"
     inkscape:zoom="0.53186844"
     inkscape:cx="132.55685"
     inkscape:cy="338.81745"
     inkscape:window-x="0"
     inkscape:window-y="0"
     inkscape:window-maximized="1"
     inkscape:current-layer="g4243"
     fit-margin-top="0"
     fit-margin-left="0"
     fit-margin-right="0"
     fit-margin-bottom="0" /><g
     id="g4243"
     inkscape:groupmode="layer"
     inkscape:label="display_system"
     transform="matrix(1.25,0,0,-1.25,18.867906,887.44201)"><g
       transform="matrix(1.05,0,0,-0.87712586,-15.094325,709.95361)"
       id="g4247"><path
         inkscape:connector-curvature="0"
         id="path4249"
         style="fill:#e6e6e6;fill-opacity:1;fill-rule:nonzero;stroke:#000000;stroke-width:2.4000001;stroke-linecap:butt;stroke-linejoin:miter;stroke-miterlimit:4;stroke-opacity:1;stroke-dasharray:none"
         d="m 20.746,1.195 562.281,0 c 10.832,0 19.555,8.723 19.555,19.559 l 0,668.43 c 0,10.836 -8.723,19.554 -19.555,19.554 l -562.281,0 c -10.832,0 -19.555,-8.718 -19.555,-19.554 l 0,-668.43 C 1.191,9.918 9.914,1.195 20.746,1.195 z" /></g><g
       transform="matrix(1,0,0,-1,17.6,788.35001)"
       id="g4251"><path
         inkscape:connector-curvature="0"
         id="path4253"
         style="fill:#f4d7d7;fill-opacity:1;fill-rule:nonzero;stroke:#d40000;stroke-width:2.4000001;stroke-linecap:butt;stroke-linejoin:miter;stroke-miterlimit:4;stroke-opacity:1;stroke-dasharray:none"
         d="m 48.969,185.902 181.461,0 c 2.113,0 3.82,1.703 3.82,3.821 l 0,62.664 c 0,2.117 -1.707,3.82 -3.82,3.82 l -181.461,0 c -2.117,0 -3.821,-1.703 -3.821,-3.82 l 0,-62.664 c 0,-2.118 1.704,-3.821 3.821,-3.821 z" /></g><g
       transform="matrix(1.05,0,0,-1,-15.0782,788.35001)"
       id="g4255"><path
         inkscape:connector-curvature="0"
         id="path4257"
         style="fill:none;stroke:#000000;stroke-width:2.4000001;stroke-linecap:butt;stroke-linejoin:miter;stroke-miterlimit:4;stroke-opacity:1;stroke-dasharray:none"
         d="m 2.648,336.578 597.832,0" /></g><g
       transform="matrix(1,0,0,-1,17.6,788.35001)"
       id="g4263"><path
         inkscape:connector-curvature="0"
         id="path4265"
         style="fill:#d7f4d7;fill-opacity:1;fill-rule:nonzero;stroke:#008000;stroke-width:2.4000001;stroke-linecap:butt;stroke-linejoin:miter;stroke-miterlimit:4;stroke-opacity:1;stroke-dasharray:none"
         d="m 210.137,380.227 183.5,0 c 5.691,0 10.277,4.582 10.277,10.273 l 0,168.551 c 0,5.691 -4.586,10.277 -10.277,10.277 l -183.5,0 c -5.692,0 -10.274,-4.586 -10.274,-10.277 l 0,-168.551 c 0,-5.691 4.582,-10.273 10.274,-10.273 z" /></g><text
       id="text4267"
       transform="scale(1,-1)"
       x="289.17578"
       y="-308.78491"><tspan
         id="tspan4269"
         sodipodi:role="line"
         y="-308.78491"
         x="289.17578 301.96298 306.2254 316.90057 322.21899 327.53738 331.79977 342.47498"
         style="font-size:19.20000076px;font-variant:normal;font-weight:normal;writing-mode:lr-tb;fill:#000000;fill-opacity:1;fill-rule:nonzero;stroke:none;font-family:Liberation Sans;-inkscape-font-specification:LiberationSans">Plotting</tspan></text>
<g
       transform="matrix(1,0,0,-1,17.6,788.35001)"
       id="g4271"><path
         inkscape:connector-curvature="0"
         id="path4273"
         style="fill:none;stroke:#000000;stroke-width:2.4000001;stroke-linecap:butt;stroke-linejoin:miter;stroke-miterlimit:4;stroke-opacity:1;stroke-dasharray:none"
         d="m 193.18,467.836 -53.293,0.199 -0.032,-209.625" /></g><g
       transform="matrix(1,0.00373637,0.00373637,-1,17.6,788.35001)"
       id="g4275"><path
         inkscape:connector-curvature="0"
         id="path4277"
         style="fill:#000000;fill-opacity:1;fill-rule:evenodd;stroke:#000000;stroke-width:1.19999194;stroke-linecap:butt;stroke-linejoin:miter;stroke-miterlimit:4;stroke-opacity:1;stroke-dasharray:none"
         d="m 196.968,468.548 -8.303,4.801 0.001,-9.597 8.302,4.796 z" /></g><g
       transform="matrix(1,0,0,-1,17.6,788.35001)"
       id="g4279"><path
         inkscape:connector-curvature="0"
         id="path4281"
         style="fill:none;stroke:#000000;stroke-width:2.4000001;stroke-linecap:butt;stroke-linejoin:miter;stroke-miterlimit:4;stroke-opacity:1;stroke-dasharray:none"
         d="m 412.094,469.008 60.168,0.152 0.039,-161.867" /></g><g
       transform="matrix(-1,0.00255423,0.00255423,1,17.6,788.35001)"
       id="g4283"><path
         inkscape:connector-curvature="0"
         id="path4285"
         style="fill:#000000;fill-opacity:1;fill-rule:evenodd;stroke:#000000;stroke-width:1.19999599;stroke-linecap:butt;stroke-linejoin:miter;stroke-miterlimit:4;stroke-opacity:1;stroke-dasharray:none"
         d="m -407.75,-467.955 -8.304,4.803 -0.001,-9.602 8.305,4.799 z" /></g><g
       transform="matrix(1,0,0,-1,17.6,788.35001)"
       id="g4287"><path
         inkscape:connector-curvature="0"
         id="path4289"
         style="fill:none;stroke:#000000;stroke-width:2.4000001;stroke-linecap:butt;stroke-linejoin:miter;stroke-miterlimit:4;stroke-opacity:1;stroke-dasharray:none"
         d="m 301.844,570.438 0,68.917" /></g><path
       inkscape:connector-curvature="0"
       id="path4291"
       style="fill:#000000;fill-opacity:1;fill-rule:evenodd;stroke:none"
       d="m 330.092,174.651 -10.605,-28.844 -10.606,28.844 c 6.262,-4.61 14.828,-4.582 21.211,0 z" /><text
       id="text4293"
       transform="scale(1,-1)"
       x="161.73924"
       y="-299.7706"><tspan
         id="tspan4295"
         sodipodi:role="line"
         y="-299.7706"
         x="161.73924 175.60164 186.27684 191.59525"
         style="font-size:19.20000076px;font-variant:normal;font-weight:normal;writing-mode:lr-tb;fill:#000000;fill-opacity:1;fill-rule:nonzero;stroke:none;font-family:Liberation Sans;-inkscape-font-specification:LiberationSans">Data</tspan><tspan
         id="tspan4297"
         sodipodi:role="line"
         y="-298.62772"
         x="433.73923 447.60162 451.86401 461.46402 472.13922 476.40161 487.07681 496.67682 501.99521 512.67041 523.40302 528.72131 532.9837 543.65887 554.33411"
         style="font-size:19.20000076px;font-variant:normal;font-weight:normal;writing-mode:lr-tb;fill:#000000;fill-opacity:1;fill-rule:nonzero;stroke:none;font-family:Liberation Sans;-inkscape-font-specification:LiberationSans">Display options</tspan></text>
<g
       transform="matrix(1,0,0,-1,17.6,788.35001)"
       id="g4299"><path
         inkscape:connector-curvature="0"
         id="path4301"
         style="fill:none;stroke:#000000;stroke-width:2.4000001;stroke-linecap:butt;stroke-linejoin:miter;stroke-miterlimit:4;stroke-opacity:1;stroke-dasharray:2.4, 2.4;stroke-dashoffset:0"
         d="m 236.461,221.605 131.789,0" /></g><g
       transform="matrix(1,0,0,-1,17.6,788.35001)"
       id="g4303"><path
         inkscape:connector-curvature="0"
         id="path4305"
         style="fill:#000000;fill-opacity:1;fill-rule:evenodd;stroke:#000000;stroke-width:1.20000005;stroke-linecap:butt;stroke-linejoin:miter;stroke-miterlimit:4;stroke-opacity:1;stroke-dasharray:none"
         d="m 373.789,221.605 -8.305,4.797 0,-9.597 8.305,4.8 z" /></g><text
       id="text4307"
       transform="scale(1,-1)"
       x="267.04041"
       y="-548.68506"><tspan
         id="tspan4309"
         sodipodi:role="line"
         y="-548.68506"
         x="267.04041 272.3588 281.9588 292.634"
         style="font-size:19.20000076px;font-variant:normal;font-weight:normal;writing-mode:lr-tb;fill:#000000;fill-opacity:1;fill-rule:nonzero;stroke:none;font-family:Liberation Sans;-inkscape-font-specification:LiberationSans">type</tspan><tspan
         id="tspan4311"
         sodipodi:role="line"
         y="-524.68542"
         x="267.04041 277.71561 284.10919 294.78439 305.45959"
         style="font-size:19.20000076px;font-variant:normal;font-weight:normal;writing-mode:lr-tb;fill:#000000;fill-opacity:1;fill-rule:nonzero;stroke:none;font-family:Liberation Sans;-inkscape-font-specification:LiberationSans">group</tspan><tspan
         id="tspan4313"
         sodipodi:role="line"
         y="-500.68567"
         x="267.04041 271.3028 281.978 292.6532 303.3284"
         style="font-size:19.20000076px;font-variant:normal;font-weight:normal;writing-mode:lr-tb;fill:#000000;fill-opacity:1;fill-rule:nonzero;stroke:none;font-family:Liberation Sans;-inkscape-font-specification:LiberationSans">label</tspan><tspan
         id="tspan4315"
         sodipodi:role="line"
         y="-476.68567"
         x="267.04041 271.3028"
         style="font-size:19.20000076px;font-variant:normal;font-weight:normal;writing-mode:lr-tb;fill:#000000;fill-opacity:1;fill-rule:nonzero;stroke:none;font-family:Liberation Sans;-inkscape-font-specification:LiberationSans">id</tspan></text>
<text
       id="text4317"
       transform="scale(1,-1)"
       x="-1.0729859"
       y="-674.61548"><tspan
         id="tspan4319"
         sodipodi:role="line"
         y="-674.61548"
         x="-1.0729859 6.0181913 21.63423 37.250282 52.86628"
         style="font-size:25.60000038px;font-variant:normal;font-weight:bold;writing-mode:lr-tb;fill:#000000;fill-opacity:1;fill-rule:nonzero;stroke:none;font-family:Liberation Sans;-inkscape-font-specification:LiberationSans-Bold">Input</tspan></text>
<g
       transform="matrix(1.05,0,0,-1,-15.054,788.35001)"
       id="g4321"><path
         inkscape:connector-curvature="0"
         id="path4323"
         style="fill:none;stroke:#000000;stroke-width:2.4000001;stroke-linecap:butt;stroke-linejoin:miter;stroke-miterlimit:4;stroke-opacity:1;stroke-dasharray:none"
         d="m 0.598,590.754 600.964,0" /></g><g
       transform="matrix(1,0,0,-1,17.6,788.35001)"
       id="g4331"><path
         inkscape:connector-curvature="0"
         id="path4333"
         style="fill:#d5e5ff;fill-opacity:1;fill-rule:nonzero;stroke:#003380;stroke-width:2.4000001;stroke-linecap:butt;stroke-linejoin:miter;stroke-miterlimit:4;stroke-opacity:1;stroke-dasharray:none"
         d="m 386.09,143.852 171.492,0 c 4.879,0 8.805,3.925 8.805,8.804 l 0,144.418 c 0,4.879 -3.926,8.805 -8.805,8.805 l -171.492,0 c -4.879,0 -8.805,-3.926 -8.805,-8.805 l 0,-144.418 c 0,-4.879 3.926,-8.804 8.805,-8.804 z" /></g><text
       id="text4335"
       transform="scale(1,-1)"
       x="434.61343"
       y="-660.82251"><tspan
         id="tspan4337"
         sodipodi:role="line"
         y="-660.82251"
         x="434.61343 454.50464 470.12064 478.64545 485.73663 501.35263 516.96857"
         style="font-size:25.60000038px;font-variant:normal;font-weight:bold;writing-mode:lr-tb;fill:#000000;fill-opacity:1;fill-rule:nonzero;stroke:none;font-family:Liberation Sans;-inkscape-font-specification:LiberationSans-Bold">Options</tspan></text>
<text
       id="text4339"
       transform="scale(1,-1)"
       x="468.76501"
       y="-599.67273"><tspan
         id="tspan4341"
         sodipodi:role="line"
         y="-599.67273"
         x="468.76501 479.44022 489.04022 499.71539"
         style="font-size:19.20000076px;font-variant:normal;font-weight:normal;writing-mode:lr-tb;fill:#000000;fill-opacity:1;fill-rule:nonzero;stroke:none;font-family:Liberation Sans;-inkscape-font-specification:LiberationSans">Type</tspan></text>
<g
       transform="matrix(1,0,0,-1,17.6,788.35001)"
       id="g4343"><path
         inkscape:connector-curvature="0"
         id="path4345"
         style="fill:none;stroke:#000000;stroke-width:1.60000002;stroke-linecap:butt;stroke-linejoin:miter;stroke-miterlimit:4;stroke-opacity:1;stroke-dasharray:none"
         d="m 415.812,164.555 109.145,0" /></g><g
       transform="matrix(1,0,0,-1,17.6,788.35001)"
       id="g4347"><path
         inkscape:connector-curvature="0"
         id="path4349"
         style="fill:none;stroke:#000000;stroke-width:1.60000002;stroke-linecap:butt;stroke-linejoin:miter;stroke-miterlimit:4;stroke-opacity:1;stroke-dasharray:none"
         d="m 470.754,164.504 0,8.484" /></g><g
       transform="matrix(1,0,0,-1,17.6,788.35001)"
       id="g4351"><path
         inkscape:connector-curvature="0"
         id="path4353"
         style="fill:none;stroke:#000000;stroke-width:1.60000002;stroke-linecap:butt;stroke-linejoin:miter;stroke-miterlimit:4;stroke-opacity:1;stroke-dasharray:1.6, 1.6;stroke-dashoffset:0"
         d="m 524.863,165.969 0,17.371" /></g><g
       transform="matrix(1,0,0,-1,17.6,788.35001)"
       id="g4355"><path
         inkscape:connector-curvature="0"
         id="path4357"
         style="fill:none;stroke:#000000;stroke-width:1.60000002;stroke-linecap:butt;stroke-linejoin:miter;stroke-miterlimit:4;stroke-opacity:1;stroke-dasharray:1.6, 1.6;stroke-dashoffset:0"
         d="m 416.648,166.121 0,17.371" /></g><g
       transform="matrix(1,0,0,-1,17.6,788.35001)"
       id="g4359"><path
         inkscape:connector-curvature="0"
         id="path4361"
         style="fill:none;stroke:#000000;stroke-width:1.60000002;stroke-linecap:butt;stroke-linejoin:miter;stroke-miterlimit:4;stroke-opacity:1;stroke-dasharray:none"
         d="m 470.742,195.156 0,22.914 -54.797,0" /></g><g
       transform="matrix(1,0,0,-1,17.6,788.35001)"
       id="g4363"><path
         inkscape:connector-curvature="0"
         id="path4365"
         style="fill:none;stroke:#000000;stroke-width:1.60000002;stroke-linecap:butt;stroke-linejoin:miter;stroke-miterlimit:4;stroke-opacity:1;stroke-dasharray:1.6, 1.6;stroke-dashoffset:0"
         d="m 470.719,219.625 0,17.371" /></g><g
       transform="matrix(1,0,0,-1,17.6,788.35001)"
       id="g4367"><path
         inkscape:connector-curvature="0"
         id="path4369"
         style="fill:none;stroke:#000000;stroke-width:1.60000002;stroke-linecap:butt;stroke-linejoin:miter;stroke-miterlimit:4;stroke-opacity:1;stroke-dasharray:none"
         d="m 468.812,218.07 57,0" /></g><g
       transform="matrix(1,0,0,-1,17.6,788.35001)"
       id="g4371"><path
         inkscape:connector-curvature="0"
         id="path4373"
         style="fill:none;stroke:#000000;stroke-width:1.60000002;stroke-linecap:butt;stroke-linejoin:miter;stroke-miterlimit:4;stroke-opacity:1;stroke-dasharray:none"
         d="m 524.996,218.812 0,8.485" /></g><g
       transform="matrix(1,0,0,-1,17.6,788.35001)"
       id="g4375"><path
         inkscape:connector-curvature="0"
         id="path4377"
         style="fill:none;stroke:#000000;stroke-width:1.60000002;stroke-linecap:butt;stroke-linejoin:miter;stroke-miterlimit:4;stroke-opacity:1;stroke-dasharray:none"
         d="m 524.562,246.656 0,22.914 -106.718,0" /></g><g
       transform="matrix(1,0,0,-1,17.6,788.35001)"
       id="g4379"><path
         inkscape:connector-curvature="0"
         id="path4381"
         style="fill:none;stroke:#000000;stroke-width:1.60000002;stroke-linecap:butt;stroke-linejoin:miter;stroke-miterlimit:4;stroke-opacity:1;stroke-dasharray:1.6, 1.6;stroke-dashoffset:0"
         d="m 416.777,219.859 0,17.371" /></g><g
       transform="matrix(1,0,0,-1,17.6,788.35001)"
       id="g4383"><path
         inkscape:connector-curvature="0"
         id="path4385"
         style="fill:none;stroke:#000000;stroke-width:1.60000002;stroke-linecap:butt;stroke-linejoin:miter;stroke-miterlimit:4;stroke-opacity:1;stroke-dasharray:1.6, 1.6;stroke-dashoffset:0"
         d="m 524.125,271.695 0,17.371" /></g><g
       transform="matrix(1,0,0,-1,17.6,788.35001)"
       id="g4387"><path
         inkscape:connector-curvature="0"
         id="path4389"
         style="fill:none;stroke:#000000;stroke-width:1.60000002;stroke-linecap:butt;stroke-linejoin:miter;stroke-miterlimit:4;stroke-opacity:1;stroke-dasharray:none"
         d="m 469.871,270.258 0,8.484" /></g><text
       id="text4391"
       transform="scale(1,-1)"
       x="512.87512"
       y="-544.62244"><tspan
         id="tspan4393"
         sodipodi:role="line"
         y="-544.62244"
         x="512.87512 527.79327 534.18683 544.86206 555.53723"
         style="font-size:19.20000076px;font-variant:normal;font-weight:normal;writing-mode:lr-tb;fill:#000000;fill-opacity:1;fill-rule:nonzero;stroke:none;font-family:Liberation Sans;-inkscape-font-specification:LiberationSans">Group</tspan><tspan
         id="tspan4395"
         sodipodi:role="line"
         y="-494.18472"
         x="464.30368 474.97888 485.65408 496.32928 507.00446"
         style="font-size:19.20000076px;font-variant:normal;font-weight:normal;writing-mode:lr-tb;fill:#000000;fill-opacity:1;fill-rule:nonzero;stroke:none;font-family:Liberation Sans;-inkscape-font-specification:LiberationSans">Label</tspan></text>
<g
       transform="matrix(1,0,0,-1,17.6,788.35001)"
       id="g4397"><path
         inkscape:connector-curvature="0"
         id="path4399"
         style="fill:none;stroke:#000000;stroke-width:1.60000002;stroke-linecap:butt;stroke-linejoin:miter;stroke-miterlimit:4;stroke-opacity:1;stroke-dasharray:1.6, 1.6;stroke-dashoffset:0"
         d="m 419.723,271.336 0,17.371" /></g><text
       id="text4401"
       transform="scale(1,-1)"
       x="70.972351"
       y="-562.32642"><tspan
         id="tspan4403"
         sodipodi:role="line"
         y="-562.32642"
         x="70.972351 77.365952 90.153152 94.415535 105.14836 121.14197 131.81718 142.49242 147.81084 153.12924 166.99164 177.66684 188.34204 193.66045 204.33565 208.65564 219.33084 230.00604 236.39964"
         style="font-size:19.20000076px;font-variant:normal;font-weight:normal;writing-mode:lr-tb;fill:#000000;fill-opacity:1;fill-rule:nonzero;stroke:none;font-family:Liberation Sans;-inkscape-font-specification:LiberationSans">(Element/Container)</tspan><tspan
         id="tspan4405"
         sodipodi:role="line"
         y="-119.71232"
         x="292.86658 306.72897 318.44098 334.43457"
         style="font-size:19.20000076px;font-variant:normal;font-weight:normal;writing-mode:lr-tb;fill:#000000;fill-opacity:1;fill-rule:nonzero;stroke:none;font-family:Liberation Sans;-inkscape-font-specification:LiberationSans">HTML</tspan></text>
<text
       id="text4411"
       transform="scale(1,-1)"
       x="115.60069"
       y="-613.14301"><tspan
         id="tspan4413"
         sodipodi:role="line"
         y="-613.14301"
         x="115.60069 134.08391 149.69995 165.31595 173.84076 188.15115 203.76715"
         style="font-size:25.60000038px;font-variant:normal;font-weight:bold;writing-mode:lr-tb;fill:#000000;fill-opacity:1;fill-rule:nonzero;stroke:none;font-family:Liberation Sans;-inkscape-font-specification:LiberationSans-Bold">Content</tspan></text>
<text
       style="font-size:12px"
       id="text4317-1"
       x="-1.0729859"
       y="-415.28415"
       transform="scale(1,-1)"><tspan
         id="tspan4319-3"
         sodipodi:role="line"
         style="font-size:25.60000038px;font-variant:normal;font-weight:bold;writing-mode:lr-tb;fill:#000000;fill-opacity:1;fill-rule:nonzero;stroke:none;font-family:Liberation Sans;-inkscape-font-specification:LiberationSans-Bold"
         x="-1.0729859"
         y="-415.28415">Rendering</tspan></text>
<text
       style="font-size:12px"
       id="text4317-9"
       x="-0.41048548"
       y="-164.95703"
       transform="scale(1,-1)"><tspan
         id="tspan4319-2"
         sodipodi:role="line"
         style="font-size:25.60000038px;font-variant:normal;font-weight:bold;writing-mode:lr-tb;fill:#000000;fill-opacity:1;fill-rule:nonzero;stroke:none;font-family:Liberation Sans;-inkscape-font-specification:LiberationSans-Bold"
         x="-0.41048548"
         y="-164.95703">Output</tspan></text>
</g></svg>